<svg width="148" height="150" viewBox="0 0 148 150" fill="none" xmlns="http://www.w3.org/2000/svg">
<path fill-rule="evenodd" clip-rule="evenodd" d="M122.406 51.8388L70.5671 0L18.7288 51.8388L20.168 53.278L70.5671 2.87935L120.967 53.278L122.406 51.8388Z" fill="#252525"/>
<path fill-rule="evenodd" clip-rule="evenodd" d="M86.3753 51.0989L45.5244 91.7496L6.4926 52.5257L47.3434 11.874L44.1048 8.62012L0 52.5095L45.5082 98.2422L89.6139 54.3528L86.3753 51.0989Z" fill="#F9C967"/>
<path fill-rule="evenodd" clip-rule="evenodd" d="M60.5087 53.5154L102.987 11.2459L101.551 9.80283L59.0727 52.0723L60.5087 53.5154Z" fill="#252525"/>
<path fill-rule="evenodd" clip-rule="evenodd" d="M100.643 12.1435C114.194 25.7611 127.744 39.3773 141.295 52.9948C127.677 66.5452 114.061 80.0951 100.443 93.6455L103.682 96.9004C117.842 82.8101 132 68.7202 146.16 54.6304L147.787 53.011L146.168 51.3836C132.078 37.2232 117.988 23.0647 103.898 8.90485L100.643 12.1435Z" fill="#F9C967"/>
<path fill-rule="evenodd" clip-rule="evenodd" d="M17.8235 54.1817L70.5654 106.925L123.308 54.1817L120.061 50.9354L70.5654 100.432L21.0698 50.9354L17.8235 54.1817Z" fill="#F9C967"/>
<path d="M37.6201 118.377H35.0862C35.0405 118.05 34.9457 117.758 34.8032 117.504C34.6597 117.245 34.4777 117.025 34.2537 116.844C34.0297 116.663 33.7709 116.524 33.4779 116.428C33.1886 116.331 32.875 116.283 32.5352 116.283C31.9224 116.283 31.3877 116.435 30.9326 116.74C30.4789 117.04 30.1253 117.48 29.8751 118.058C29.6244 118.634 29.4986 119.331 29.4986 120.153C29.4986 120.998 29.6244 121.706 29.8751 122.281C30.1296 122.855 30.4837 123.289 30.9388 123.583C31.3939 123.876 31.9205 124.022 32.5176 124.022C32.8541 124.022 33.1643 123.979 33.4493 123.889C33.7385 123.8 33.9949 123.671 34.2189 123.502C34.4419 123.328 34.6273 123.118 34.7736 122.871C34.9247 122.624 35.0286 122.342 35.0862 122.027L37.6201 122.038C37.5538 122.581 37.3904 123.106 37.1283 123.612C36.87 124.113 36.5207 124.562 36.0813 124.96C35.6452 125.353 35.1248 125.665 34.5191 125.896C33.9177 126.124 33.2377 126.237 32.478 126.237C31.4215 126.237 30.4765 125.998 29.643 125.521C28.8143 125.042 28.1585 124.35 27.6772 123.444C27.1988 122.537 26.9595 121.44 26.9595 120.153C26.9595 118.861 27.2031 117.761 27.6882 116.856C28.1738 115.949 28.8338 115.259 29.6664 114.784C30.4994 114.307 31.4368 114.068 32.478 114.068C33.1643 114.068 33.8005 114.163 34.3871 114.356C34.9766 114.549 35.4985 114.832 35.9536 115.201C36.4087 115.567 36.7794 116.016 37.0644 116.549C37.3532 117.081 37.5386 117.69 37.6201 118.377ZM45.0667 122.293V117.191H47.5305V126.075H45.1659V124.462H45.0729C44.8728 124.982 44.5387 125.401 44.0726 125.717C43.609 126.033 43.0442 126.191 42.3775 126.191C41.7838 126.191 41.2605 126.056 40.8097 125.787C40.3588 125.516 40.0052 125.133 39.7508 124.635C39.5006 124.138 39.3733 123.543 39.369 122.848V117.191H41.8338V122.409C41.8381 122.933 41.9787 123.347 42.2565 123.651C42.5334 123.957 42.9056 124.109 43.3721 124.109C43.669 124.109 43.9473 124.041 44.2047 123.906C44.4634 123.768 44.6722 123.563 44.8299 123.293C44.9914 123.024 45.071 122.69 45.0667 122.293ZM49.5483 126.075V114.23H52.0116V118.684H52.0874C52.1951 118.444 52.3523 118.201 52.5563 117.954C52.7641 117.704 53.0338 117.496 53.3664 117.33C53.7024 117.161 54.1184 117.075 54.6155 117.075C55.2631 117.075 55.8607 117.245 56.4088 117.584C56.9554 117.92 57.3929 118.427 57.7207 119.106C58.0486 119.78 58.2125 120.627 58.2125 121.645C58.2125 122.636 58.0529 123.472 57.7336 124.155C57.4172 124.834 56.9849 125.349 56.4374 125.7C55.8936 126.047 55.2836 126.22 54.6088 126.22C54.1313 126.22 53.7243 126.142 53.3893 125.983C53.0576 125.825 52.7855 125.627 52.5725 125.387C52.3614 125.144 52.1994 124.9 52.0874 124.652H51.9773V126.075H49.5483ZM51.9596 121.634C51.9596 122.161 52.0335 122.622 52.1798 123.015C52.3266 123.41 52.5391 123.716 52.816 123.936C53.0938 124.152 53.4308 124.259 53.8292 124.259C54.2295 124.259 54.5693 124.149 54.8471 123.93C55.124 123.706 55.3346 123.397 55.4771 123.004C55.6239 122.607 55.6977 122.15 55.6977 121.634C55.6977 121.121 55.6258 120.67 55.4833 120.28C55.3403 119.89 55.1302 119.586 54.8519 119.366C54.5755 119.146 54.2333 119.036 53.8292 119.036C53.4279 119.036 53.0881 119.143 52.8108 119.355C52.5372 119.566 52.3266 119.868 52.1798 120.256C52.0335 120.647 51.9596 121.106 51.9596 121.634ZM62.391 126.244C61.8239 126.244 61.3187 126.145 60.8746 125.948C60.4319 125.748 60.0806 125.453 59.8219 125.063C59.5674 124.67 59.4406 124.18 59.4406 123.594C59.4406 123.101 59.5312 122.687 59.7123 122.351C59.8933 122.016 60.1407 121.744 60.4538 121.541C60.765 121.337 61.1205 121.182 61.5174 121.078C61.9182 120.974 62.3386 120.901 62.7784 120.858C63.2945 120.804 63.7115 120.754 64.0279 120.708C64.3439 120.657 64.5736 120.585 64.7156 120.489C64.8581 120.392 64.9301 120.25 64.9301 120.06V120.026C64.9301 119.659 64.8143 119.376 64.5822 119.175C64.3558 118.975 64.0318 118.874 63.6114 118.874C63.1673 118.874 62.8151 118.973 62.5525 119.169C62.2914 119.361 62.1165 119.605 62.0326 119.898L59.7528 119.713C59.8695 119.173 60.0964 118.707 60.4361 118.313C60.775 117.916 61.2129 117.612 61.7481 117.399C62.2885 117.183 62.9128 117.075 63.6224 117.075C64.1166 117.075 64.5884 117.133 65.0401 117.249C65.4943 117.364 65.8975 117.544 66.2487 117.787C66.6032 118.03 66.883 118.343 67.0879 118.725C67.2914 119.102 67.3948 119.555 67.3948 120.083V126.075H65.0568V124.844H64.9877C64.8452 125.121 64.6546 125.366 64.4159 125.578C64.1766 125.787 63.8897 125.951 63.5533 126.07C63.2183 126.186 62.8304 126.244 62.391 126.244ZM63.0958 124.542C63.4585 124.542 63.7797 124.471 64.0565 124.328C64.3344 124.182 64.5517 123.986 64.7094 123.739C64.8686 123.492 64.9467 123.213 64.9467 122.9V121.958C64.871 122.008 64.7647 122.053 64.6294 122.096C64.4978 122.135 64.3491 122.171 64.1833 122.206C64.0189 122.237 63.8526 122.266 63.6862 122.293C63.5209 122.316 63.3698 122.337 63.2354 122.357C62.9457 122.398 62.6931 122.466 62.4772 122.559C62.2618 122.652 62.0931 122.777 61.974 122.934C61.8548 123.089 61.7953 123.282 61.7953 123.513C61.7953 123.849 61.9163 124.106 62.1594 124.283C62.4057 124.456 62.7188 124.542 63.0958 124.542ZM71.7696 120.94V126.075H69.3058V117.191H71.6538V118.759H71.7586C71.955 118.242 72.2847 117.833 72.747 117.532C73.2107 117.228 73.7711 117.075 74.4307 117.075C75.0483 117.075 75.5858 117.211 76.0443 117.48C76.5032 117.75 76.8597 118.136 77.1146 118.637C77.3686 119.135 77.4959 119.728 77.4959 120.418V126.075H75.0326V120.858C75.0354 120.314 74.8967 119.89 74.6161 119.586C74.3344 119.277 73.9465 119.123 73.4533 119.123C73.1221 119.123 72.8285 119.195 72.574 119.337C72.3233 119.479 72.127 119.689 71.9836 119.961C71.8449 120.232 71.7739 120.558 71.7696 120.94ZM83.2541 126.075V114.23H85.7598V124.011H90.8371V126.075H83.2541ZM92.4497 117.191H94.9145V126.076H92.4497V117.191ZM93.6878 116.045C93.3213 116.045 93.0063 115.925 92.7447 115.681C92.4864 115.434 92.3573 115.14 92.3573 114.797C92.3573 114.457 92.4864 114.166 92.7447 113.923C93.0063 113.676 93.3213 113.553 93.6878 113.553C94.0543 113.553 94.3664 113.676 94.6242 113.923C94.8868 114.166 95.0184 114.457 95.0184 114.797C95.0184 115.14 94.8868 115.434 94.6242 115.681C94.3664 115.925 94.0543 116.045 93.6878 116.045ZM99.3521 120.94V126.075H96.8874V117.191H99.2359V118.759H99.3407C99.5371 118.242 99.8659 117.833 100.329 117.532C100.793 117.228 101.353 117.075 102.014 117.075C102.63 117.075 103.167 117.211 103.626 117.48C104.085 117.75 104.442 118.136 104.697 118.637C104.952 119.135 105.078 119.728 105.078 120.418V126.075H102.614V120.858C102.618 120.314 102.48 119.89 102.197 119.586C101.916 119.277 101.529 119.123 101.035 119.123C100.704 119.123 100.411 119.195 100.157 119.337C99.9045 119.479 99.7081 119.689 99.5656 119.961C99.4274 120.232 99.356 120.558 99.3521 120.94ZM109.253 123.519L109.258 120.563H109.618L112.463 117.191H115.292L111.469 121.656H110.884L109.253 123.519ZM107.021 114.23H109.484V126.075H107.021V114.23ZM112.573 126.075L109.959 122.206L111.602 120.465L115.459 126.075H112.573Z" fill="black"/>
<path d="M45.7148 143.582L45.6824 144.022C45.6281 144.825 45.3297 145.439 44.7865 145.863C44.2541 146.286 43.6623 146.498 43.0108 146.498C42.3918 146.498 41.8928 146.362 41.5125 146.091C41.1327 145.819 40.8606 145.516 40.6981 145.179C40.6223 145.037 40.5675 144.902 40.5351 144.771C40.5022 144.641 40.486 144.516 40.486 144.397C40.486 144.104 40.5899 143.859 40.7958 143.664C41.0021 143.457 41.2356 143.354 41.4958 143.354C41.7789 143.354 42.012 143.441 42.1964 143.615C42.3818 143.789 42.4733 144.006 42.4733 144.267C42.4733 144.451 42.4294 144.603 42.3432 144.723C42.2669 144.842 42.1802 144.945 42.0825 145.032C41.9958 145.119 41.9257 145.183 41.8709 145.227C41.8166 145.26 41.7789 145.287 41.7565 145.309C41.7465 145.32 41.7351 145.33 41.7241 145.341V145.374C41.7241 145.418 41.7303 145.467 41.7403 145.52C41.7627 145.575 41.7842 145.63 41.8056 145.683C41.8819 145.814 42.001 145.933 42.164 146.042C42.3379 146.139 42.5771 146.189 42.8807 146.189C43.0985 146.189 43.2662 146.145 43.3854 146.058C43.5055 145.96 43.5975 145.857 43.6623 145.749C43.6951 145.695 43.7223 145.64 43.7438 145.586C43.7662 145.52 43.7824 145.467 43.7928 145.423V145.39C43.8038 145.379 43.809 145.369 43.809 145.358C43.8314 145.293 43.8476 145.227 43.8581 145.162C43.8801 145.097 43.8905 145.021 43.8905 144.934V135.975H42.6362V135.666H46.9691V135.975H45.7148V143.582ZM56.6298 144.397L56.9067 144.576C56.505 145.206 56.0713 145.683 55.6038 146.009C55.1363 146.335 54.5887 146.498 53.9587 146.498C53.0576 146.498 52.2484 146.183 51.5316 145.553C50.8149 144.923 50.4565 144.027 50.4565 142.865C50.4565 141.888 50.7663 141.036 51.3853 140.308C52.0153 139.581 52.7969 139.217 53.7305 139.217C53.9049 139.217 54.1003 139.233 54.3171 139.266C54.5339 139.298 54.7508 139.359 54.9686 139.445C55.4022 139.619 55.8106 139.938 56.19 140.406C56.5698 140.862 56.7866 141.551 56.8419 142.475H52.2808L52.2975 143.598V143.908C52.3084 144.017 52.3184 144.125 52.3299 144.234C52.3737 144.723 52.4976 145.167 52.7044 145.569C52.9103 145.972 53.3073 146.172 53.8934 146.172C54.2733 146.172 54.6969 146.063 55.1639 145.846C55.6314 145.618 56.1199 145.135 56.6298 144.397ZM52.2808 142.214H55.1477C55.1692 141.476 55.1101 140.841 54.9686 140.308C54.8385 139.765 54.4524 139.494 53.812 139.494C53.3997 139.494 53.0904 139.592 52.8836 139.787C52.6768 139.971 52.5305 140.178 52.4438 140.406C52.3785 140.558 52.3351 140.704 52.3137 140.846C52.3022 140.987 52.2975 141.101 52.2975 141.188L52.2808 142.214ZM59.7155 139.673V139.396H63.0385V139.673H62.2403L64.3577 144.397L65.5633 141.644L64.6836 139.673H63.9831V139.396H67.4524V139.673H66.4917L68.5928 144.397L69.9286 141.09C69.9824 140.971 70.0201 140.862 70.0425 140.764C70.0639 140.655 70.0687 140.564 70.0587 140.487C70.0587 140.271 69.9986 140.108 69.8795 139.999C69.7594 139.879 69.6241 139.798 69.4725 139.755C69.3748 139.722 69.2767 139.7 69.179 139.689C69.0918 139.678 69.0212 139.673 68.9674 139.673V139.396H71.8991V139.673C71.5408 139.717 71.2744 139.825 71.1014 139.999C70.927 140.162 70.7692 140.39 70.6286 140.683C70.6063 140.737 70.58 140.802 70.5472 140.878C70.5148 140.944 70.4823 141.014 70.4495 141.09L68.1367 146.514H67.7293L65.8235 142.214L63.9831 146.514H63.5432L60.4161 139.673H59.7155ZM80.8741 144.397L81.151 144.576C80.7502 145.206 80.3151 145.683 79.8481 146.009C79.3815 146.335 78.833 146.498 78.203 146.498C77.3019 146.498 76.4927 146.183 75.7759 145.553C75.0592 144.923 74.7008 144.027 74.7008 142.865C74.7008 141.888 75.0106 141.036 75.6292 140.308C76.2596 139.581 77.0412 139.217 77.9748 139.217C78.1487 139.217 78.3446 139.233 78.5614 139.266C78.7792 139.298 78.996 139.359 79.2128 139.445C79.6475 139.619 80.0544 139.938 80.4343 140.406C80.815 140.862 81.0319 141.551 81.0857 142.475H76.5251L76.5413 143.598V143.908C76.5527 144.017 76.5637 144.125 76.5742 144.234C76.618 144.723 76.7429 145.167 76.9487 145.569C77.1556 145.972 77.5516 146.172 78.1377 146.172C78.5185 146.172 78.9422 146.063 79.4082 145.846C79.8757 145.618 80.3642 145.135 80.8741 144.397ZM76.5251 142.214H79.392C79.4144 141.476 79.3544 140.841 79.2128 140.308C79.0823 139.765 78.6977 139.494 78.0562 139.494C77.644 139.494 77.3347 139.592 77.1279 139.787C76.922 139.971 76.7757 140.178 76.6881 140.406C76.6228 140.558 76.5804 140.704 76.558 140.846C76.5475 140.987 76.5413 141.101 76.5413 141.188L76.5251 142.214ZM85.2627 135.992H84.2367V135.715H85.8656C86.0724 135.715 86.2463 135.71 86.3869 135.699C86.5285 135.688 86.6638 135.666 86.7939 135.633H86.8268C86.8377 135.622 86.8492 135.617 86.8592 135.617V146.058H87.8852V146.335H84.2367V146.058H85.2627V135.992ZM90.928 146.058H91.9545V139.673H90.928V139.396H92.8828C92.9705 139.385 93.062 139.375 93.1597 139.363C93.2574 139.352 93.3875 139.336 93.5505 139.315V140.764C93.7359 140.33 94.0128 139.966 94.3811 139.673C94.7509 139.38 95.1694 139.233 95.6354 139.233C95.9838 139.233 96.2445 139.293 96.4175 139.412C96.6028 139.521 96.7382 139.645 96.8244 139.787C96.8573 139.852 96.8797 139.918 96.8897 139.982C96.9121 140.048 96.9221 140.108 96.9221 140.162C96.9221 140.466 96.8468 140.715 96.6943 140.911C96.5428 141.095 96.3469 141.188 96.1077 141.188C95.8799 141.188 95.6845 141.117 95.5215 140.976C95.3586 140.824 95.2771 140.639 95.2771 140.422V140.357C95.2771 140.336 95.2833 140.314 95.2933 140.292V140.162C95.2933 140.02 95.2556 139.934 95.1794 139.901C95.1141 139.868 95.0164 139.852 94.8863 139.852C94.8648 139.852 94.8372 139.857 94.8048 139.868H94.7233C94.4302 139.945 94.1595 140.189 93.9089 140.601C93.6706 141.004 93.5505 141.481 93.5505 142.035V146.058H94.577V146.335H90.928V146.058ZM103.577 146.808L100.206 139.673H99.4727V139.396H102.991V139.673H101.965L104.359 144.69L105.662 140.992C105.684 140.916 105.706 140.834 105.727 140.748C105.748 140.65 105.76 140.553 105.76 140.455C105.76 140.259 105.695 140.08 105.564 139.918C105.445 139.755 105.2 139.673 104.832 139.673H104.685V139.396H107.307V139.673C107.003 139.694 106.764 139.803 106.59 139.999C106.428 140.194 106.292 140.406 106.183 140.634C106.151 140.71 106.118 140.792 106.085 140.878C106.053 140.954 106.025 141.025 106.004 141.09L103.121 148.843C102.991 149.191 102.811 149.451 102.584 149.625C102.367 149.799 102.132 149.913 101.883 149.967C101.829 149.979 101.769 149.984 101.704 149.984C101.649 149.995 101.595 150 101.541 150C101.041 150 100.65 149.886 100.368 149.658C100.086 149.43 99.9287 149.18 99.8958 148.909V148.827C99.8958 148.523 99.9773 148.257 100.14 148.029C100.303 147.801 100.51 147.687 100.759 147.687H100.922C100.987 147.698 101.052 147.714 101.118 147.736C101.269 147.78 101.406 147.855 101.525 147.964C101.655 148.083 101.72 148.252 101.72 148.469C101.72 148.523 101.715 148.577 101.704 148.632C101.693 148.697 101.676 148.757 101.655 148.811C101.644 148.843 101.634 148.876 101.622 148.909C101.611 148.941 101.601 148.973 101.59 149.006C101.579 149.028 101.569 149.055 101.558 149.088V149.186C101.558 149.272 101.606 149.337 101.704 149.381C101.802 149.435 101.937 149.462 102.111 149.462C102.23 149.462 102.334 149.425 102.421 149.349C102.518 149.283 102.595 149.207 102.649 149.12C102.692 149.055 102.725 148.99 102.747 148.925C102.779 148.871 102.8 148.827 102.811 148.795L103.577 146.808Z" fill="black"/>
</svg>
