<svg width="103" height="105" viewBox="0 0 103 105" fill="none" xmlns="http://www.w3.org/2000/svg">
<path fill-rule="evenodd" clip-rule="evenodd" d="M85.3102 36.2871L49.1813 0L13.0527 36.2871L14.0558 37.2946L49.1813 2.01554L84.3072 37.2946L85.3102 36.2871Z" fill="white"/>
<path fill-rule="evenodd" clip-rule="evenodd" d="M60.199 35.7693L31.7281 64.2248L4.525 36.7681L32.9959 8.31192L30.7387 6.03418L0 36.7567L31.7168 68.7696L62.4562 38.0471L60.199 35.7693Z" fill="#F9C967"/>
<path fill-rule="evenodd" clip-rule="evenodd" d="M42.1719 37.4604L71.7771 7.87181L70.7763 6.86167L41.1711 36.4503L42.1719 37.4604Z" fill="white"/>
<path fill-rule="evenodd" clip-rule="evenodd" d="M70.1431 8.50047C79.5873 18.0328 89.0309 27.5641 98.4751 37.0964C88.9844 46.5817 79.4946 56.0666 70.0039 65.5519L72.2611 67.8303C82.1298 57.9671 91.9975 48.1042 101.866 38.2413L103 37.1077L101.872 35.9685C92.0513 26.0563 82.2318 16.1453 72.4115 6.2334L70.1431 8.50047Z" fill="#F9C967"/>
<path fill-rule="evenodd" clip-rule="evenodd" d="M12.4219 37.9272L49.1802 74.8472L85.9388 37.9272L83.6763 35.6548L49.1802 70.3023L14.6844 35.6548L12.4219 37.9272Z" fill="#F9C967"/>
<path d="M26.2189 82.8642H24.4529C24.4211 82.6351 24.355 82.4309 24.2557 82.2528C24.1557 82.072 24.0288 81.9178 23.8727 81.7911C23.7166 81.6643 23.5363 81.5672 23.332 81.4995C23.1304 81.4318 22.9118 81.3981 22.675 81.3981C22.2479 81.3981 21.8753 81.5045 21.5581 81.718C21.2419 81.9285 20.9954 82.2364 20.8211 82.6411C20.6464 83.0437 20.5587 83.5321 20.5587 84.1072C20.5587 84.6986 20.6464 85.1943 20.8211 85.597C20.9984 85.999 21.2452 86.3029 21.5624 86.508C21.8796 86.7132 22.2466 86.8159 22.6627 86.8159C22.8972 86.8159 23.1135 86.7852 23.3121 86.7222C23.5137 86.6605 23.6924 86.5697 23.8485 86.4516C24.0039 86.3299 24.1331 86.1828 24.2351 86.01C24.3404 85.8372 24.4128 85.6397 24.4529 85.4189L26.2189 85.4269C26.1727 85.8072 26.0588 86.1744 25.8761 86.5284C25.6961 86.879 25.4527 87.1935 25.1464 87.4721C24.8425 87.7473 24.4799 87.9658 24.0577 88.1276C23.6386 88.2867 23.1646 88.3664 22.6352 88.3664C21.8988 88.3664 21.2402 88.199 20.6593 87.8647C20.0817 87.5298 19.6247 87.0451 19.2893 86.4109C18.9558 85.7765 18.7891 85.0085 18.7891 84.1072C18.7891 83.2028 18.9588 82.4332 19.2969 81.7991C19.6353 81.1646 20.0953 80.6816 20.6756 80.3493C21.2562 80.0154 21.9095 79.8479 22.6352 79.8479C23.1135 79.8479 23.5568 79.9146 23.9657 80.0497C24.3766 80.1848 24.7402 80.3823 25.0574 80.6409C25.3746 80.8974 25.633 81.2116 25.8316 81.5846C26.0329 81.9572 26.1621 82.3835 26.2189 82.8642ZM31.4088 85.605V82.0339H33.126V88.253H31.4779V87.1238H31.4132C31.2737 87.4874 31.0408 87.7807 30.716 88.0022C30.3928 88.223 29.9993 88.3341 29.5346 88.3341C29.1208 88.3341 28.7561 88.2393 28.4419 88.0509C28.1277 87.8617 27.8812 87.5932 27.7039 87.2449C27.5295 86.897 27.4408 86.48 27.4378 85.994V82.0339H29.1556V85.6864C29.1586 86.0533 29.2566 86.3432 29.4502 86.5561C29.6432 86.7702 29.9026 86.8763 30.2278 86.8763C30.4347 86.8763 30.6287 86.8293 30.808 86.7345C30.9884 86.6378 31.1338 86.4943 31.2438 86.3052C31.3564 86.1167 31.4118 85.8829 31.4088 85.605ZM34.5322 88.253V79.961H36.249V83.0791H36.3018C36.3769 82.9113 36.4865 82.7411 36.6287 82.5683C36.7735 82.3932 36.9615 82.2471 37.1933 82.131C37.4274 82.0126 37.7174 81.9529 38.0638 81.9529C38.5152 81.9529 38.9317 82.072 39.3136 82.3091C39.6946 82.5443 39.9995 82.8989 40.228 83.3743C40.4565 83.846 40.5708 84.4391 40.5708 85.1516C40.5708 85.8452 40.4595 86.4306 40.237 86.909C40.0164 87.3837 39.7152 87.7443 39.3336 87.9902C38.9546 88.2333 38.5295 88.3541 38.0592 88.3541C37.7264 88.3541 37.4427 88.2994 37.2092 88.1883C36.9781 88.0779 36.7884 87.9388 36.6399 87.7713C36.4928 87.6009 36.3799 87.4301 36.3018 87.2569H36.2251V88.253H34.5322ZM36.2128 85.144C36.2128 85.5129 36.2643 85.8358 36.3663 86.1107C36.4686 86.3869 36.6167 86.6011 36.8097 86.7552C37.0033 86.9063 37.2381 86.9817 37.5158 86.9817C37.7948 86.9817 38.0316 86.9047 38.2252 86.7509C38.4182 86.5941 38.565 86.3783 38.6643 86.103C38.7666 85.8252 38.8181 85.5053 38.8181 85.144C38.8181 84.7847 38.7679 84.4691 38.6686 84.1959C38.569 83.9234 38.4225 83.7102 38.2285 83.5561C38.0359 83.4023 37.7974 83.3252 37.5158 83.3252C37.2361 83.3252 36.9993 83.4 36.806 83.5484C36.6154 83.6965 36.4686 83.9077 36.3663 84.1796C36.2643 84.4528 36.2128 84.7744 36.2128 85.144ZM43.4829 88.3708C43.0877 88.3708 42.7356 88.3017 42.4261 88.164C42.1175 88.0235 41.8727 87.817 41.6924 87.5445C41.515 87.2689 41.4267 86.9263 41.4267 86.5164C41.4267 86.1708 41.4898 85.8809 41.616 85.6457C41.7422 85.4112 41.9146 85.2214 42.1328 85.0793C42.3497 84.9358 42.5974 84.8277 42.8741 84.7547C43.1534 84.682 43.4464 84.6309 43.7529 84.6009C44.1126 84.5632 44.4033 84.5282 44.6238 84.4955C44.844 84.4605 45.0041 84.4094 45.1031 84.3424C45.2024 84.2746 45.2525 84.1749 45.2525 84.0421V84.0181C45.2525 83.7612 45.1718 83.5634 45.0101 83.423C44.8523 83.2825 44.6265 83.2122 44.3335 83.2122C44.024 83.2122 43.7785 83.2812 43.5955 83.4187C43.4135 83.5531 43.2916 83.7236 43.2331 83.9287L41.6442 83.7993C41.7256 83.4217 41.8837 83.0951 42.1205 82.8192C42.3566 82.5413 42.6619 82.3285 43.0349 82.1794C43.4115 82.0283 43.8466 81.9529 44.3411 81.9529C44.6856 81.9529 45.0144 81.9936 45.3292 82.0746C45.6458 82.1554 45.9268 82.2808 46.1715 82.4509C46.4186 82.621 46.6136 82.8402 46.7564 83.1074C46.8982 83.3716 46.9703 83.6889 46.9703 84.0585V88.253H45.3409V87.3907H45.2927C45.1934 87.5852 45.0605 87.7563 44.8941 87.9051C44.7274 88.0509 44.5275 88.1656 44.293 88.249C44.0595 88.3301 43.7891 88.3708 43.4829 88.3708ZM43.9741 87.1799C44.2269 87.1799 44.4508 87.1298 44.6437 87.0301C44.8374 86.9277 44.9888 86.7902 45.0987 86.6178C45.2097 86.4443 45.2641 86.2492 45.2641 86.0303V85.3705C45.2113 85.4055 45.1373 85.4375 45.0429 85.4676C44.9513 85.4946 44.8477 85.5203 44.7321 85.5443C44.6175 85.566 44.5016 85.5863 44.3857 85.605C44.2704 85.6213 44.1651 85.6364 44.0715 85.65C43.8695 85.6791 43.6935 85.7268 43.543 85.7915C43.3929 85.8565 43.2753 85.9439 43.1923 86.0543C43.1093 86.1624 43.0677 86.2975 43.0677 86.4593C43.0677 86.6945 43.1521 86.8743 43.3215 86.9984C43.4932 87.1195 43.7114 87.1799 43.9741 87.1799ZM50.0193 84.6579V88.253H48.3022V82.0339H49.9386V83.1314H50.0117C50.1485 82.7695 50.3784 82.4836 50.7005 82.2728C51.0237 82.0596 51.4143 81.9529 51.874 81.9529C52.3044 81.9529 52.679 82.0476 52.9986 82.2364C53.3184 82.4256 53.5668 82.6954 53.7445 83.046C53.9216 83.3946 54.0102 83.81 54.0102 84.293V88.253H52.2934V84.6009C52.2954 84.2203 52.1988 83.9234 52.0032 83.7102C51.8069 83.4944 51.5365 83.3863 51.1927 83.3863C50.9619 83.3863 50.7573 83.4367 50.58 83.5364C50.4053 83.6358 50.2684 83.7823 50.1684 83.9731C50.0718 84.1629 50.0223 84.3907 50.0193 84.6579ZM58.0234 88.253V79.961H59.7698V86.8079H63.3083V88.253H58.0234ZM64.4323 82.0339H66.1501V88.2534H64.4323V82.0339ZM65.2952 81.232C65.0398 81.232 64.8202 81.1476 64.6379 80.9771C64.4579 80.804 64.3678 80.5982 64.3678 80.358C64.3678 80.1198 64.4579 79.9163 64.6379 79.7465C64.8202 79.5734 65.0398 79.4873 65.2952 79.4873C65.5506 79.4873 65.7681 79.5734 65.9478 79.7465C66.1308 79.9163 66.2225 80.1198 66.2225 80.358C66.2225 80.5982 66.1308 80.804 65.9478 80.9771C65.7681 81.1476 65.5506 81.232 65.2952 81.232ZM69.2429 84.6579V88.253H67.5251V82.0339H69.1619V83.1314H69.2349C69.3718 82.7695 69.6009 82.4836 69.9238 82.2728C70.247 82.0596 70.6375 81.9529 71.0979 81.9529C71.5277 81.9529 71.902 82.0476 72.2218 82.2364C72.5413 82.4256 72.7904 82.6954 72.9678 83.046C73.1455 83.3946 73.2338 83.81 73.2338 84.293V88.253H71.516V84.6009C71.519 84.2203 71.4227 83.9234 71.2257 83.7102C71.0301 83.4944 70.7598 83.3863 70.4157 83.3863C70.1852 83.3863 69.9806 83.4367 69.8036 83.5364C69.6279 83.6358 69.491 83.7823 69.3917 83.9731C69.2954 84.1629 69.2456 84.3907 69.2429 84.6579ZM76.1433 86.4637L76.147 84.3944H76.3977L78.3806 82.0339H80.3521L77.6874 85.1597H77.2799L76.1433 86.4637ZM74.5876 79.961H76.3044V88.253H74.5876V79.961ZM78.457 88.253L76.6352 85.5443L77.7801 84.326L80.4687 88.253H78.457Z" fill="white"/>
<path d="M31.861 100.508L31.8384 100.816C31.8005 101.378 31.5926 101.807 31.214 102.104C30.843 102.401 30.4305 102.549 29.9764 102.549C29.545 102.549 29.1973 102.454 28.9322 102.264C28.6675 102.073 28.4779 101.861 28.3646 101.625C28.3118 101.526 28.2736 101.431 28.251 101.34C28.2281 101.249 28.2168 101.161 28.2168 101.078C28.2168 100.873 28.2892 100.702 28.4327 100.565C28.5765 100.42 28.7392 100.348 28.9206 100.348C29.1179 100.348 29.2803 100.409 29.4088 100.53C29.538 100.653 29.6018 100.804 29.6018 100.987C29.6018 101.116 29.5712 101.223 29.5111 101.306C29.458 101.389 29.3975 101.462 29.3294 101.523C29.269 101.583 29.2202 101.629 29.182 101.659C29.1441 101.682 29.1179 101.701 29.1023 101.716C29.0953 101.724 29.0873 101.731 29.0797 101.739V101.762C29.0797 101.793 29.084 101.827 29.091 101.864C29.1066 101.902 29.1215 101.941 29.1365 101.979C29.1896 102.07 29.2727 102.153 29.3862 102.229C29.5075 102.298 29.6742 102.332 29.8858 102.332C30.0376 102.332 30.1545 102.301 30.2375 102.241C30.3212 102.172 30.3853 102.1 30.4305 102.024C30.4534 101.987 30.4723 101.948 30.4873 101.91C30.5029 101.864 30.5142 101.827 30.5215 101.796V101.773C30.5291 101.766 30.5328 101.758 30.5328 101.751C30.5484 101.705 30.5597 101.659 30.567 101.614C30.5823 101.568 30.5896 101.515 30.5896 101.454V95.183H29.7154V94.9665H32.7352V95.183H31.861V100.508ZM39.4682 101.078L39.6611 101.203C39.3812 101.644 39.0789 101.979 38.7531 102.207C38.4273 102.435 38.0456 102.549 37.6066 102.549C36.9785 102.549 36.4145 102.328 35.915 101.887C35.4155 101.446 35.1657 100.819 35.1657 100.006C35.1657 99.3218 35.3816 98.7254 35.813 98.216C36.2521 97.7066 36.7968 97.4521 37.4475 97.4521C37.569 97.4521 37.7052 97.4634 37.8563 97.4861C38.0075 97.5091 38.1586 97.5511 38.3104 97.6115C38.6126 97.7336 38.8972 97.9571 39.1616 98.2844C39.4263 98.6036 39.5774 99.086 39.616 99.7325H36.4371L36.4487 100.519V100.736C36.4564 100.812 36.4634 100.888 36.4713 100.964C36.5019 101.306 36.5882 101.617 36.7324 101.899C36.8759 102.18 37.1525 102.321 37.5611 102.321C37.8258 102.321 38.121 102.244 38.4465 102.093C38.7724 101.933 39.1128 101.595 39.4682 101.078ZM36.4371 99.55H38.4352C38.4502 99.0333 38.409 98.5886 38.3104 98.216C38.2197 97.836 37.9507 97.6459 37.5043 97.6459C37.217 97.6459 37.0014 97.7143 36.8573 97.851C36.7131 97.9801 36.6112 98.1246 36.5507 98.2844C36.5052 98.3904 36.475 98.4932 36.46 98.5923C36.4521 98.6913 36.4487 98.7711 36.4487 98.8318L36.4371 99.55ZM41.6187 97.7713V97.5775H43.9347V97.7713H43.3784L44.8541 101.078L45.6944 99.151L45.0812 97.7713H44.593V97.5775H47.0109V97.7713H46.3414L47.8057 101.078L48.7367 98.7634C48.7742 98.68 48.8005 98.6036 48.8161 98.5352C48.831 98.4588 48.8344 98.3948 48.8274 98.3414C48.8274 98.1896 48.7855 98.0755 48.7025 97.9991C48.6188 97.9157 48.5245 97.859 48.4189 97.8283C48.3508 97.8053 48.2824 97.7903 48.2143 97.7826C48.1535 97.775 48.1043 97.7713 48.0668 97.7713V97.5775H50.1101V97.7713C49.8603 97.802 49.6747 97.8774 49.5541 97.9991C49.4325 98.1132 49.3226 98.273 49.2246 98.4782C49.209 98.5159 49.1907 98.5616 49.1678 98.615C49.1452 98.6607 49.1227 98.7097 49.0997 98.7634L47.4879 102.56H47.2039L45.8757 99.55L44.593 102.56H44.2864L42.107 97.7713H41.6187ZM56.3652 101.078L56.5581 101.203C56.2788 101.644 55.9756 101.979 55.6501 102.207C55.3249 102.435 54.9426 102.549 54.5036 102.549C53.8755 102.549 53.3115 102.328 52.812 101.887C52.3125 101.446 52.0627 100.819 52.0627 100.006C52.0627 99.3218 52.2786 98.7254 52.7097 98.216C53.1491 97.7066 53.6938 97.4521 54.3445 97.4521C54.4657 97.4521 54.6022 97.4634 54.7533 97.4861C54.9051 97.5091 55.0562 97.5511 55.2074 97.6115C55.5103 97.7336 55.7939 97.9571 56.0586 98.2844C56.324 98.6036 56.4751 99.086 56.5126 99.7325H53.3341L53.3454 100.519V100.736C53.3534 100.812 53.361 100.888 53.3683 100.964C53.3989 101.306 53.4859 101.617 53.6294 101.899C53.7735 102.18 54.0495 102.321 54.4581 102.321C54.7234 102.321 55.0187 102.244 55.3435 102.093C55.6694 101.933 56.0098 101.595 56.3652 101.078ZM53.3341 99.55H55.3322C55.3478 99.0333 55.306 98.5886 55.2074 98.216C55.1164 97.836 54.8483 97.6459 54.4013 97.6459C54.114 97.6459 53.8984 97.7143 53.7543 97.851C53.6108 97.9801 53.5088 98.1246 53.4477 98.2844C53.4022 98.3904 53.3726 98.4932 53.357 98.5923C53.3497 98.6913 53.3454 98.7711 53.3454 98.8318L53.3341 99.55ZM59.4238 95.1943H58.7087V95.0005H59.844C59.9881 95.0005 60.1093 94.9968 60.2073 94.9892C60.306 94.9815 60.4003 94.9665 60.4909 94.9435H60.5139C60.5215 94.9358 60.5295 94.9321 60.5364 94.9321V102.241H61.2515V102.435H58.7087V102.241H59.4238V95.1943ZM63.3722 102.241H64.0876V97.7713H63.3722V97.5775H64.7346C64.7957 97.5695 64.8595 97.5625 64.9276 97.5545C64.9957 97.5468 65.0864 97.5355 65.1999 97.5204V98.5352C65.3291 98.231 65.5221 97.9765 65.7789 97.7713C66.0366 97.5661 66.3282 97.4634 66.653 97.4634C66.8958 97.4634 67.0775 97.5054 67.1981 97.5888C67.3273 97.6652 67.4216 97.752 67.4817 97.851C67.5046 97.8967 67.5202 97.9424 67.5272 97.9878C67.5428 98.0335 67.5498 98.0755 67.5498 98.1132C67.5498 98.3264 67.4973 98.5009 67.391 98.638C67.2854 98.7667 67.1489 98.8318 66.9822 98.8318C66.8234 98.8318 66.6872 98.7824 66.5737 98.6833C66.4601 98.5773 66.4033 98.4475 66.4033 98.2957V98.25C66.4033 98.2353 66.4076 98.2196 66.4146 98.2046V98.1132C66.4146 98.0142 66.3883 97.9538 66.3352 97.9308C66.2897 97.9081 66.2216 97.8967 66.1309 97.8967C66.116 97.8967 66.0967 97.9004 66.0741 97.9081H66.0173C65.8131 97.9615 65.6244 98.1326 65.4497 98.4211C65.2836 98.7027 65.1999 99.0369 65.1999 99.4246V102.241H65.9154V102.435H63.3722V102.241ZM72.1881 102.765L69.8382 97.7713H69.3274V97.5775H71.7792V97.7713H71.0641L72.7328 101.283L73.6411 98.6947C73.6561 98.6413 73.6717 98.5843 73.6863 98.5239C73.7013 98.4555 73.7092 98.3871 73.7092 98.3187C73.7092 98.1816 73.6637 98.0562 73.5731 97.9424C73.49 97.8283 73.319 97.7713 73.0622 97.7713H72.9599V97.5775H74.7877V97.7713C74.5754 97.7863 74.4094 97.8624 74.2881 97.9991C74.1745 98.1363 74.0802 98.2844 74.0042 98.4438C73.9816 98.4975 73.959 98.5546 73.9361 98.615C73.9135 98.6683 73.8942 98.7177 73.8793 98.7634L71.8702 104.191C71.7792 104.434 71.6543 104.616 71.4956 104.738C71.3444 104.86 71.181 104.939 71.0073 104.977C70.9698 104.985 70.9279 104.989 70.8824 104.989C70.8442 104.997 70.8067 105 70.7688 105C70.4204 105 70.1481 104.92 69.9515 104.761C69.7545 104.601 69.6452 104.426 69.6223 104.236V104.179C69.6223 103.966 69.6791 103.78 69.7927 103.62C69.9063 103.461 70.0501 103.381 70.2241 103.381H70.3377C70.3829 103.389 70.4284 103.4 70.4739 103.415C70.5795 103.446 70.6745 103.499 70.7576 103.575C70.8486 103.658 70.8937 103.777 70.8937 103.928C70.8937 103.966 70.8904 104.004 70.8824 104.042C70.8748 104.088 70.8632 104.13 70.8486 104.168C70.8406 104.191 70.8336 104.213 70.8256 104.236C70.818 104.259 70.8107 104.282 70.8031 104.305C70.7951 104.32 70.7881 104.339 70.7805 104.362V104.43C70.7805 104.49 70.8143 104.536 70.8824 104.567C70.9505 104.605 71.0448 104.624 71.1664 104.624C71.2494 104.624 71.3215 104.598 71.382 104.544C71.4501 104.498 71.5032 104.445 71.5411 104.384C71.5713 104.339 71.5942 104.293 71.6091 104.248C71.6317 104.21 71.6467 104.179 71.6543 104.157L72.1881 102.765Z" fill="white"/>
</svg>
