<svg width="257" height="61" viewBox="0 0 257 61" fill="none" xmlns="http://www.w3.org/2000/svg">
<path d="M48.5 18.1429H30.0714L24.5 1L18.9286 18.1429H0.5L15.5 28.4286L9.71429 45.5714L24.5 34.8571L39.2857 45.5714L33.5 28.4286L48.5 18.1429Z" stroke="#F9C967" stroke-linejoin="round"/>
<path d="M160.5 23.8571H135.929L128.5 1L121.071 23.8571H96.5L116.5 37.5714L108.786 60.4286L128.5 46.1429L148.214 60.4286L140.5 37.5714L160.5 23.8571Z" stroke="#F9C967" stroke-linejoin="round"/>
<path d="M256.5 18.1429H238.071L232.5 1L226.929 18.1429H208.5L223.5 28.4286L217.714 45.5714L232.5 34.8571L247.286 45.5714L241.5 28.4286L256.5 18.1429Z" stroke="#F9C967" stroke-linejoin="round"/>
</svg>
