<svg width="16" height="282" viewBox="0 0 16 282" fill="none" xmlns="http://www.w3.org/2000/svg">
<path d="M10.0234 1.00365C10.0254 0.451369 9.57937 0.0020223 9.02709 6.67572e-06C8.47481 -0.00200895 8.02546 0.444069 8.02344 0.99635L10.0234 1.00365ZM7.29186 281.704C7.68095 282.096 8.31411 282.099 8.70606 281.71L15.0932 275.369C15.4852 274.98 15.4875 274.347 15.0984 273.955C14.7093 273.563 14.0761 273.56 13.6842 273.95L8.0067 279.586L2.37053 273.908C1.98143 273.516 1.34827 273.514 0.956326 273.903C0.564379 274.292 0.562068 274.925 0.951165 275.317L7.29186 281.704ZM8.02344 0.99635L7.00155 280.996L9.00153 281.004L10.0234 1.00365L8.02344 0.99635Z" fill="white"/>
</svg>
