<svg width="122" height="118" viewBox="0 0 122 118" fill="none" xmlns="http://www.w3.org/2000/svg">
<path d="M63.412 6.04428C62.0808 7.32091 59.9278 7.32091 58.5967 6.04428C57.2655 4.76765 57.2655 2.70285 58.5967 1.42622C59.9278 0.149593 62.0808 0.149593 63.412 1.42622C64.7431 2.70285 64.7431 4.76765 63.412 6.04428ZM77.8116 15.236C76.4804 13.9594 74.3274 13.9594 72.9963 15.236C71.6651 16.5126 71.6651 18.5774 72.9963 19.854C74.3274 21.1307 76.4804 21.1307 77.8116 19.854C79.1427 18.5774 79.1427 16.5126 77.8116 15.236ZM92.2112 29.0457C90.88 27.7691 88.727 27.7691 87.3959 29.0457C86.0647 30.3224 86.0647 32.3872 87.3959 33.6638C88.727 34.9404 90.88 34.9404 92.2112 33.6638C93.5423 32.3872 93.5423 30.3224 92.2112 29.0457ZM106.611 42.8555C105.28 41.5789 103.127 41.5789 101.795 42.8555C100.464 44.1321 100.464 46.1969 101.795 47.4736C103.127 48.7502 105.28 48.7502 106.611 47.4736C107.942 46.1969 107.942 44.1321 106.611 42.8555ZM121.01 56.6653C119.679 55.3886 117.526 55.3886 116.195 56.6653C114.864 57.9419 114.864 60.0067 116.195 61.2833C117.526 62.56 119.679 62.56 121.01 61.2833C122.33 60.0067 122.33 57.9419 121.01 56.6653ZM49.0124 15.236C47.6813 13.9594 45.5283 13.9594 44.1971 15.236C42.866 16.5126 42.866 18.5774 44.1971 19.854C45.5283 21.1307 47.6813 21.1307 49.0124 19.854C50.3436 18.5774 50.3436 16.5126 49.0124 15.236ZM63.412 29.0457C62.0808 27.7691 59.9278 27.7691 58.5967 29.0457C57.2655 30.3224 57.2655 32.3872 58.5967 33.6638C59.9278 34.9404 62.0808 34.9404 63.412 33.6638C64.7431 32.3872 64.7431 30.3224 63.412 29.0457ZM77.8116 42.8555C76.4804 41.5789 74.3274 41.5789 72.9963 42.8555C71.6651 44.1321 71.6651 46.1969 72.9963 47.4736C74.3274 48.7502 76.4804 48.7502 77.8116 47.4736C79.1427 46.1969 79.1427 44.1321 77.8116 42.8555ZM92.2112 56.6653C90.88 55.3886 88.727 55.3886 87.3959 56.6653C86.0647 57.9419 86.0647 60.0067 87.3959 61.2833C88.727 62.56 90.88 62.56 92.2112 61.2833C93.5423 60.0067 93.5423 57.9419 92.2112 56.6653ZM106.611 70.475C105.28 69.1984 103.127 69.1984 101.795 70.475C100.464 71.7517 100.464 73.8165 101.795 75.0931C103.127 76.3697 105.28 76.3697 106.611 75.0931C107.942 73.8165 107.942 71.7517 106.611 70.475ZM34.6128 29.0457C33.2817 27.7691 31.1287 27.7691 29.7975 29.0457C28.4664 30.3224 28.4664 32.3872 29.7975 33.6638C31.1287 34.9404 33.2817 34.9404 34.6128 33.6638C35.944 32.3872 35.944 30.3224 34.6128 29.0457ZM49.0124 42.8555C47.6813 41.5789 45.5283 41.5789 44.1971 42.8555C42.866 44.1321 42.866 46.1969 44.1971 47.4736C45.5283 48.7502 47.6813 48.7502 49.0124 47.4736C50.3436 46.1969 50.3436 44.1321 49.0124 42.8555ZM63.412 56.6653C62.0808 55.3886 59.9278 55.3886 58.5967 56.6653C57.2655 57.9419 57.2655 60.0067 58.5967 61.2833C59.9278 62.56 62.0808 62.56 63.412 61.2833C64.7431 60.0067 64.7431 57.9419 63.412 56.6653ZM77.8116 70.475C76.4804 69.1984 74.3274 69.1984 72.9963 70.475C71.6651 71.7517 71.6651 73.8165 72.9963 75.0931C74.3274 76.3697 76.4804 76.3697 77.8116 75.0931C79.1427 73.8165 79.1427 71.7517 77.8116 70.475ZM92.2112 84.2848C90.88 83.0082 88.727 83.0082 87.3959 84.2848C86.0647 85.5614 86.0647 87.6262 87.3959 88.9029C88.727 90.1795 90.88 90.1795 92.2112 88.9029C93.5423 87.6262 93.5423 85.5503 92.2112 84.2848ZM20.2132 42.8555C18.8821 41.5789 16.7291 41.5789 15.3979 42.8555C14.0668 44.1321 14.0668 46.1969 15.3979 47.4736C16.7291 48.7502 18.8821 48.7502 20.2132 47.4736C21.5444 46.1969 21.5444 44.1321 20.2132 42.8555ZM34.6128 56.6653C33.2817 55.3886 31.1287 55.3886 29.7975 56.6653C28.4664 57.9419 28.4664 60.0067 29.7975 61.2833C31.1287 62.56 33.2817 62.56 34.6128 61.2833C35.944 60.0067 35.944 57.9419 34.6128 56.6653ZM49.0124 70.475C47.6813 69.1984 45.5283 69.1984 44.1971 70.475C42.866 71.7517 42.866 73.8165 44.1971 75.0931C45.5283 76.3697 47.6813 76.3697 49.0124 75.0931C50.3436 73.8165 50.3436 71.7517 49.0124 70.475ZM63.412 84.2848C62.0808 83.0082 59.9278 83.0082 58.5967 84.2848C57.2655 85.5614 57.2655 87.6262 58.5967 88.9029C59.9278 90.1795 62.0808 90.1795 63.412 88.9029C64.7431 87.6262 64.7431 85.5503 63.412 84.2848ZM77.8116 98.0946C76.4804 96.8179 74.3274 96.8179 72.9963 98.0946C71.6651 99.3712 71.6651 101.436 72.9963 102.713C74.3274 103.989 76.4804 103.989 77.8116 102.713C79.1427 101.436 79.1427 99.3601 77.8116 98.0946ZM5.81365 56.6653C4.4825 55.3886 2.32951 55.3886 0.998363 56.6653C-0.332788 57.9419 -0.332788 60.0067 0.998363 61.2833C2.32951 62.56 4.4825 62.56 5.81365 61.2833C7.1448 60.0067 7.1448 57.9419 5.81365 56.6653ZM20.2132 70.475C18.8821 69.1984 16.7291 69.1984 15.3979 70.475C14.0668 71.7517 14.0668 73.8165 15.3979 75.0931C16.7291 76.3697 18.8821 76.3697 20.2132 75.0931C21.5444 73.8165 21.5444 71.7517 20.2132 70.475ZM34.6128 84.2848C33.2817 83.0082 31.1287 83.0082 29.7975 84.2848C28.4664 85.5614 28.4664 87.6262 29.7975 88.9029C31.1287 90.1795 33.2817 90.1795 34.6128 88.9029C35.944 87.6262 35.944 85.5503 34.6128 84.2848ZM49.0124 98.0946C47.6813 96.8179 45.5283 96.8179 44.1971 98.0946C42.866 99.3712 42.866 101.436 44.1971 102.713C45.5283 103.989 47.6813 103.989 49.0124 102.713C50.3436 101.436 50.3436 99.3601 49.0124 98.0946ZM63.412 111.893C62.0808 110.617 59.9278 110.617 58.5967 111.893C57.2655 113.17 57.2655 115.235 58.5967 116.511C59.9278 117.788 62.0808 117.788 63.412 116.511C64.7431 115.246 64.7431 113.17 63.412 111.893Z" fill="white"/>
</svg>
