<svg width="60" height="60" viewBox="0 0 60 60" fill="none" xmlns="http://www.w3.org/2000/svg">
<circle cx="30" cy="30" r="29.5" stroke="white"/>
<path d="M34.7552 20.489C36.0154 20.4927 37.2228 20.995 38.1139 21.8861C39.005 22.7771 39.5072 23.9846 39.511 25.2448V34.7553C39.5072 36.0154 39.005 37.2229 38.1139 38.114C37.2228 39.005 36.0154 39.5073 34.7552 39.5111H25.2447C23.9845 39.5073 22.7771 39.005 21.886 38.114C20.9949 37.2229 20.4927 36.0154 20.4889 34.7553V25.2448C20.4927 23.9846 20.9949 22.7771 21.886 21.8861C22.7771 20.995 23.9845 20.4927 25.2447 20.489H34.7552ZM34.7552 18.587H25.2447C21.5828 18.587 18.5869 21.5829 18.5869 25.2448V34.7553C18.5869 38.4171 21.5828 41.4131 25.2447 41.4131H34.7552C38.4171 41.4131 41.413 38.4171 41.413 34.7553V25.2448C41.413 21.5829 38.4171 18.587 34.7552 18.587Z" fill="white"/>
<path d="M36.1815 25.2447C35.8994 25.2447 35.6235 25.1611 35.3889 25.0043C35.1543 24.8476 34.9715 24.6247 34.8635 24.3641C34.7555 24.1034 34.7272 23.8165 34.7823 23.5398C34.8373 23.2631 34.9732 23.0088 35.1727 22.8093C35.3723 22.6098 35.6265 22.4739 35.9032 22.4189C36.1799 22.3638 36.4668 22.3921 36.7275 22.5001C36.9881 22.6081 37.211 22.7909 37.3677 23.0255C37.5245 23.2601 37.6081 23.536 37.6081 23.8181C37.6086 24.0056 37.5719 24.1913 37.5004 24.3645C37.4288 24.5378 37.3238 24.6952 37.1912 24.8278C37.0586 24.9603 36.9012 25.0654 36.7279 25.137C36.5547 25.2085 36.369 25.2451 36.1815 25.2447Z" fill="white"/>
<path d="M29.9995 26.1955C30.752 26.1955 31.4875 26.4187 32.1132 26.8367C32.7388 27.2547 33.2265 27.8489 33.5144 28.5441C33.8024 29.2393 33.8777 30.0043 33.7309 30.7423C33.5841 31.4803 33.2218 32.1582 32.6897 32.6902C32.1576 33.2223 31.4797 33.5847 30.7417 33.7315C30.0037 33.8783 29.2388 33.8029 28.5436 33.515C27.8484 33.227 27.2542 32.7394 26.8362 32.1137C26.4181 31.4881 26.195 30.7525 26.195 30C26.1961 28.9914 26.5972 28.0243 27.3105 27.311C28.0237 26.5978 28.9908 26.1966 29.9995 26.1955ZM29.9995 24.2935C28.8708 24.2935 27.7676 24.6282 26.8291 25.2552C25.8907 25.8823 25.1593 26.7735 24.7274 27.8162C24.2954 28.859 24.1824 30.0064 24.4026 31.1133C24.6228 32.2203 25.1663 33.2371 25.9644 34.0352C26.7624 34.8332 27.7792 35.3767 28.8862 35.5969C29.9932 35.8171 31.1406 35.7041 32.1833 35.2722C33.226 34.8403 34.1173 34.1088 34.7443 33.1704C35.3713 32.232 35.706 31.1287 35.706 30C35.706 28.4866 35.1048 27.0351 34.0346 25.9649C32.9644 24.8947 31.513 24.2935 29.9995 24.2935Z" fill="white"/>
</svg>
