<svg width="60" height="60" viewBox="0 0 60 60" fill="none" xmlns="http://www.w3.org/2000/svg">
<circle cx="30" cy="30" r="29.5" stroke="white"/>
<path fill-rule="evenodd" clip-rule="evenodd" d="M20.5858 22.5624C20.9609 22.2023 21.4696 22 22 22H38C38.5304 22 39.0391 22.2023 39.4142 22.5624C39.7893 22.9224 40 23.4108 40 23.92V25.7089L30 31.0055L20 25.7089V23.92C20 23.4108 20.2107 22.9224 20.5858 22.5624ZM22 22.64C21.6464 22.64 21.3072 22.7749 21.0572 23.0149C20.8071 23.2549 20.6667 23.5805 20.6667 23.92V25.3311L30 30.2745L39.3333 25.3311V23.92C39.3333 23.5805 39.1929 23.2549 38.9428 23.0149C38.6928 22.7749 38.3536 22.64 38 22.64H22ZM20.6667 27.44V36.08C20.6667 36.4195 20.8071 36.745 21.0572 36.9851C21.3072 37.2251 21.6464 37.36 22 37.36H38C38.3536 37.36 38.6928 37.2251 38.9428 36.9851C39.1929 36.745 39.3333 36.4195 39.3333 36.08V27.44H40V36.08C40 36.5892 39.7893 37.0776 39.4142 37.4376C39.0391 37.7977 38.5304 38 38 38H22C21.4696 38 20.9609 37.7977 20.5858 37.4376C20.2107 37.0776 20 36.5892 20 36.08V27.44H20.6667Z" fill="white" stroke="white" stroke-miterlimit="10" stroke-linecap="square"/>
</svg>
