<svg width="24" height="25" viewBox="0 0 24 25" fill="none" xmlns="http://www.w3.org/2000/svg">
<path d="M21.75 20.5625L15.9338 14.7453C16.8711 13.4572 17.3753 11.9049 17.3738 10.3119C17.3738 6.14234 13.9814 2.75 9.81188 2.75C5.64234 2.75 2.25 6.14234 2.25 10.3119C2.25 14.4814 5.64234 17.8738 9.81188 17.8738C11.4049 17.8753 12.9572 17.3711 14.2453 16.4338L20.0625 22.25L21.75 20.5625ZM9.81188 15.4855C8.7885 15.4856 7.78809 15.1822 6.93714 14.6137C6.0862 14.0452 5.42296 13.2371 5.03129 12.2917C4.63961 11.3462 4.53711 10.3058 4.73674 9.30211C4.93637 8.2984 5.42916 7.37643 6.15279 6.65279C6.87643 5.92916 7.7984 5.43637 8.80211 5.23674C9.80583 5.03711 10.8462 5.13961 11.7917 5.53129C12.7371 5.92296 13.5452 6.5862 14.1137 7.43714C14.6822 8.28809 14.9856 9.2885 14.9855 10.3119C14.9839 11.6835 14.4383 12.9985 13.4684 13.9684C12.4985 14.9383 11.1835 15.4839 9.81188 15.4855Z" fill="white"/>
</svg>
