<svg width="60" height="60" viewBox="0 0 60 60" fill="none" xmlns="http://www.w3.org/2000/svg">
<circle cx="30" cy="30" r="29.5" stroke="white"/>
<path d="M42.228 22.5357C41.3106 22.9343 40.34 23.1969 39.3467 23.3152C40.3905 22.704 41.1755 21.733 41.5544 20.5843C40.5676 21.1613 39.4897 21.5662 38.3669 21.7816C37.8942 21.2861 37.3256 20.892 36.6957 20.6231C36.0658 20.3542 35.3879 20.2162 34.703 20.2174C31.9303 20.2174 29.6864 22.4287 29.6864 25.1546C29.6844 25.5337 29.7279 25.9118 29.8158 26.2806C27.8275 26.1874 25.8806 25.6802 24.0996 24.7914C22.3186 23.9027 20.7427 22.6519 19.4727 21.1192C19.0272 21.8703 18.7916 22.7273 18.7905 23.6006C18.7905 25.3125 19.6837 26.8258 21.0324 27.7123C20.2333 27.6934 19.4506 27.4819 18.7508 27.0958V27.1569C18.7508 29.5516 20.4831 31.5438 22.7759 31.9973C22.3447 32.1122 21.9004 32.1705 21.4542 32.1705C21.1376 32.1711 20.8217 32.1404 20.5111 32.0788C21.1485 34.0404 23.0037 35.4671 25.2012 35.5078C23.4155 36.884 21.2232 37.6278 18.9688 37.6223C18.5687 37.6217 18.1689 37.5979 17.7715 37.551C20.0649 39.0154 22.7308 39.79 25.4519 39.7826C34.6923 39.7826 39.7406 32.2572 39.7406 25.7303C39.7406 25.5163 39.735 25.3023 39.7248 25.0934C40.7046 24.3965 41.5523 23.5303 42.228 22.5357Z" fill="white"/>
</svg>
