<?xml version="1.0" encoding="UTF-8" standalone="no"?>
<!DOCTYPE svg PUBLIC "-//W3C//DTD SVG 1.1//EN" "http://www.w3.org/Graphics/SVG/1.1/DTD/svg11.dtd">
<svg width="100%" height="100%" viewBox="0 0 339 133" version="1.1" xmlns="http://www.w3.org/2000/svg" xmlns:xlink="http://www.w3.org/1999/xlink" xml:space="preserve" xmlns:serif="http://www.serif.com/" style="fill-rule:evenodd;clip-rule:evenodd;stroke-linejoin:round;stroke-miterlimit:2;">
    <g transform="matrix(1,0,0,1,-625.363,-478.155)">
        <g transform="matrix(1,0,0,1,-17.1231,20.6518)">
            <g id="Front-chain" transform="matrix(1,0,0,1,24.0979,-5.25684)">
                <g transform="matrix(-1.15849,-0.393106,0.362537,-1.06841,1173.77,1000.24)">
                    <path d="M333.997,290.624C335.797,290.976 340.084,288.947 340.535,296.263C340.924,302.566 343.097,302.417 346.391,302.2C349.125,302.021 350.206,300.012 350.136,297.857C349.9,290.513 349.025,287.219 349.025,287.219C348.017,282.829 343.68,278.506 339.424,278.696C331.259,279.062 317.563,279.285 317.563,279.285C314.677,279.285 312.334,281.825 312.334,284.955C312.334,288.084 314.677,290.624 317.563,290.624L342.383,290.624" style="fill:rgb(224,224,224);"/>
                    <clipPath id="_clip1">
                        <path d="M333.997,290.624C335.797,290.976 340.084,288.947 340.535,296.263C340.924,302.566 343.097,302.417 346.391,302.2C349.125,302.021 350.206,300.012 350.136,297.857C349.9,290.513 349.025,287.219 349.025,287.219C348.017,282.829 343.68,278.506 339.424,278.696C331.259,279.062 317.563,279.285 317.563,279.285C314.677,279.285 312.334,281.825 312.334,284.955C312.334,288.084 314.677,290.624 317.563,290.624L342.383,290.624"/>
                    </clipPath>
                    <g clip-path="url(#_clip1)">
                        <g transform="matrix(-0.601362,-0.600332,0.553649,-0.652068,340.551,658.676)">
                            <path d="M269.575,309.855C266.968,306.625 267.902,311.226 281.414,315.463C288.775,317.771 294.816,308.352 297.38,306.298C300.223,304.021 300.552,303.146 303.304,303.395C304.296,303.486 306.478,304.392 305.766,305.089C302.991,307.804 291.937,317.386 286.655,319.684C282.802,321.36 276.923,320.516 274.076,318.878C271.229,317.239 270.605,311.13 269.575,309.855Z" style="fill:rgb(170,170,170);"/>
                        </g>
                        <g transform="matrix(-0.601362,-0.600332,0.553649,-0.652068,340.551,658.676)">
                            <path d="M307.364,287.714C305.59,287.446 303.913,289.167 302.445,290.295C300.241,291.988 294.314,296.423 294.14,297.874C293.965,299.326 299.146,299.968 301.397,299.005C303.91,297.93 308.224,293.305 309.218,291.424C309.864,290.201 309.46,287.903 307.364,287.714Z" style="fill:rgb(249,249,249);"/>
                        </g>
                        <g transform="matrix(-0.399378,-0.398694,0.298495,-0.351557,371.269,510.733)">
                            <path d="M307.364,287.714C305.59,287.446 303.913,289.167 302.445,290.295C300.241,291.988 294.314,296.423 294.14,297.874C293.965,299.326 299.146,299.968 301.397,299.005C303.91,297.93 308.224,293.305 309.218,291.424C309.864,290.201 309.46,287.903 307.364,287.714Z" style="fill:rgb(249,249,249);"/>
                        </g>
                    </g>
                </g>
                <g transform="matrix(-1.15849,-0.393106,0.362537,-1.06841,1173.77,1000.24)">
                    <path d="M333.964,291.067C334.414,291.146 335.007,291.092 335.655,291.067L336.579,291.067C337.421,291.113 338.291,291.334 338.954,292.174C339.569,292.953 340,294.231 340.127,296.293C340.335,299.656 341.076,301.274 342.147,302.046C343.215,302.815 344.664,302.758 346.415,302.643C347.922,302.544 348.966,301.926 349.63,301.051C350.296,300.175 350.583,299.03 350.545,297.841C350.313,290.626 349.466,287.281 349.419,287.103C348.366,282.534 343.838,278.055 339.407,278.254C331.305,278.617 317.756,278.839 317.559,278.842C314.449,278.844 311.925,281.582 311.925,284.955C311.925,288.328 314.451,291.067 317.563,291.067L333.964,291.067ZM339.068,291.067C339.244,291.218 339.414,291.394 339.575,291.597C340.269,292.477 340.799,293.906 340.943,296.234C341.124,299.174 341.663,300.633 342.6,301.308C343.54,301.985 344.824,301.859 346.366,301.758C347.594,301.677 348.457,301.201 348.999,300.488C349.541,299.775 349.759,298.839 349.728,297.872C349.494,290.603 348.632,287.341 348.632,287.341C348.631,287.336 348.629,287.331 348.628,287.326C347.662,283.118 343.52,278.956 339.44,279.139C331.272,279.505 317.569,279.728 317.569,279.728C317.567,279.728 317.565,279.728 317.563,279.728C314.902,279.728 312.743,282.07 312.743,284.955C312.743,287.839 314.902,290.181 317.563,290.181L335.805,290.181C336.047,290.171 336.295,290.167 336.546,290.179L336.597,290.181L342.383,290.181C342.609,290.181 342.792,290.38 342.792,290.624C342.792,290.869 342.609,291.067 342.383,291.067L339.068,291.067Z"/>
                </g>
                <g transform="matrix(-1.21696,-0.125123,0.115394,-1.12232,1241.28,903.946)">
                    <path d="M333.997,290.624C335.797,290.976 340.084,288.947 340.535,296.263C340.924,302.566 343.097,302.417 346.391,302.2C349.125,302.021 350.206,300.012 350.136,297.857C349.9,290.513 349.025,287.219 349.025,287.219C348.017,282.829 343.68,278.506 339.424,278.696C331.259,279.062 317.563,279.285 317.563,279.285C314.677,279.285 312.334,281.825 312.334,284.955C312.334,288.084 314.677,290.624 317.563,290.624L342.383,290.624" style="fill:rgb(224,224,224);"/>
                    <clipPath id="_clip2">
                        <path d="M333.997,290.624C335.797,290.976 340.084,288.947 340.535,296.263C340.924,302.566 343.097,302.417 346.391,302.2C349.125,302.021 350.206,300.012 350.136,297.857C349.9,290.513 349.025,287.219 349.025,287.219C348.017,282.829 343.68,278.506 339.424,278.696C331.259,279.062 317.563,279.285 317.563,279.285C314.677,279.285 312.334,281.825 312.334,284.955C312.334,288.084 314.677,290.624 317.563,290.624L342.383,290.624"/>
                    </clipPath>
                    <g clip-path="url(#_clip2)">
                        <g transform="matrix(-0.601362,-0.600332,0.553649,-0.652068,340.551,658.676)">
                            <path d="M269.575,309.855C266.968,306.625 267.902,311.226 281.414,315.463C288.775,317.771 294.816,308.352 297.38,306.298C300.223,304.021 300.552,303.146 303.304,303.395C304.296,303.486 306.478,304.392 305.766,305.089C302.991,307.804 291.937,317.386 286.655,319.684C282.802,321.36 276.923,320.516 274.076,318.878C271.229,317.239 270.605,311.13 269.575,309.855Z" style="fill:rgb(170,170,170);"/>
                        </g>
                        <g transform="matrix(-0.601362,-0.600332,0.553649,-0.652068,340.551,658.676)">
                            <path d="M307.364,287.714C305.59,287.446 303.913,289.167 302.445,290.295C300.241,291.988 294.314,296.423 294.14,297.874C293.965,299.326 299.146,299.968 301.397,299.005C303.91,297.93 308.224,293.305 309.218,291.424C309.864,290.201 309.46,287.903 307.364,287.714Z" style="fill:rgb(249,249,249);"/>
                        </g>
                        <g transform="matrix(-0.399378,-0.398694,0.298495,-0.351557,371.269,510.733)">
                            <path d="M307.364,287.714C305.59,287.446 303.913,289.167 302.445,290.295C300.241,291.988 294.314,296.423 294.14,297.874C293.965,299.326 299.146,299.968 301.397,299.005C303.91,297.93 308.224,293.305 309.218,291.424C309.864,290.201 309.46,287.903 307.364,287.714Z" style="fill:rgb(249,249,249);"/>
                        </g>
                    </g>
                </g>
                <g transform="matrix(-1.21696,-0.125123,0.115394,-1.12232,1241.28,903.946)">
                    <path d="M333.964,291.067C334.414,291.146 335.007,291.092 335.655,291.067L336.579,291.067C337.421,291.113 338.291,291.334 338.954,292.174C339.569,292.953 340,294.231 340.127,296.293C340.335,299.656 341.076,301.274 342.147,302.046C343.215,302.815 344.664,302.758 346.415,302.643C347.922,302.544 348.966,301.926 349.63,301.051C350.296,300.175 350.583,299.03 350.545,297.841C350.313,290.626 349.466,287.281 349.419,287.103C348.366,282.534 343.838,278.055 339.407,278.254C331.305,278.617 317.756,278.839 317.559,278.842C314.449,278.844 311.925,281.582 311.925,284.955C311.925,288.328 314.451,291.067 317.563,291.067L333.964,291.067ZM339.068,291.067C339.244,291.218 339.414,291.394 339.575,291.597C340.269,292.477 340.799,293.906 340.943,296.234C341.124,299.174 341.663,300.633 342.6,301.308C343.54,301.985 344.824,301.859 346.366,301.758C347.594,301.677 348.457,301.201 348.999,300.488C349.541,299.775 349.759,298.839 349.728,297.872C349.494,290.603 348.632,287.341 348.632,287.341C348.631,287.336 348.629,287.331 348.628,287.326C347.662,283.118 343.52,278.956 339.44,279.139C331.272,279.505 317.569,279.728 317.569,279.728C317.567,279.728 317.565,279.728 317.563,279.728C314.902,279.728 312.743,282.07 312.743,284.955C312.743,287.839 314.902,290.181 317.563,290.181L335.805,290.181C336.047,290.171 336.295,290.167 336.546,290.179L336.597,290.181L342.383,290.181C342.609,290.181 342.792,290.38 342.792,290.624C342.792,290.869 342.609,291.067 342.383,291.067L339.068,291.067Z"/>
                </g>
                <g transform="matrix(-1.22301,-0.0297629,0.0274484,-1.12791,1245.88,855.263)">
                    <path d="M333.997,290.624C335.797,290.976 340.084,288.947 340.535,296.263C340.924,302.566 343.097,302.417 346.391,302.2C349.125,302.021 350.206,300.012 350.136,297.857C349.9,290.513 349.025,287.219 349.025,287.219C348.017,282.829 343.68,278.506 339.424,278.696C331.259,279.062 317.563,279.285 317.563,279.285C314.677,279.285 312.334,281.825 312.334,284.955C312.334,288.084 314.677,290.624 317.563,290.624L342.383,290.624" style="fill:rgb(224,224,224);"/>
                    <clipPath id="_clip3">
                        <path d="M333.997,290.624C335.797,290.976 340.084,288.947 340.535,296.263C340.924,302.566 343.097,302.417 346.391,302.2C349.125,302.021 350.206,300.012 350.136,297.857C349.9,290.513 349.025,287.219 349.025,287.219C348.017,282.829 343.68,278.506 339.424,278.696C331.259,279.062 317.563,279.285 317.563,279.285C314.677,279.285 312.334,281.825 312.334,284.955C312.334,288.084 314.677,290.624 317.563,290.624L342.383,290.624"/>
                    </clipPath>
                    <g clip-path="url(#_clip3)">
                        <g transform="matrix(-0.601362,-0.600332,0.553649,-0.652068,340.551,658.676)">
                            <path d="M269.575,309.855C266.968,306.625 267.902,311.226 281.414,315.463C288.775,317.771 294.816,308.352 297.38,306.298C300.223,304.021 300.552,303.146 303.304,303.395C304.296,303.486 306.478,304.392 305.766,305.089C302.991,307.804 291.937,317.386 286.655,319.684C282.802,321.36 276.923,320.516 274.076,318.878C271.229,317.239 270.605,311.13 269.575,309.855Z" style="fill:rgb(170,170,170);"/>
                        </g>
                        <g transform="matrix(-0.601362,-0.600332,0.553649,-0.652068,340.551,658.676)">
                            <path d="M307.364,287.714C305.59,287.446 303.913,289.167 302.445,290.295C300.241,291.988 294.314,296.423 294.14,297.874C293.965,299.326 299.146,299.968 301.397,299.005C303.91,297.93 308.224,293.305 309.218,291.424C309.864,290.201 309.46,287.903 307.364,287.714Z" style="fill:rgb(249,249,249);"/>
                        </g>
                        <g transform="matrix(-0.399378,-0.398694,0.298495,-0.351557,371.269,510.733)">
                            <path d="M307.364,287.714C305.59,287.446 303.913,289.167 302.445,290.295C300.241,291.988 294.314,296.423 294.14,297.874C293.965,299.326 299.146,299.968 301.397,299.005C303.91,297.93 308.224,293.305 309.218,291.424C309.864,290.201 309.46,287.903 307.364,287.714Z" style="fill:rgb(249,249,249);"/>
                        </g>
                    </g>
                </g>
                <g transform="matrix(-1.22301,-0.0297629,0.0274484,-1.12791,1245.88,855.263)">
                    <path d="M333.964,291.067C334.414,291.146 335.007,291.092 335.655,291.067L336.579,291.067C337.421,291.113 338.291,291.334 338.954,292.174C339.569,292.953 340,294.231 340.127,296.293C340.335,299.656 341.076,301.274 342.147,302.046C343.215,302.815 344.664,302.758 346.415,302.643C347.922,302.544 348.966,301.926 349.63,301.051C350.296,300.175 350.583,299.03 350.545,297.841C350.313,290.626 349.466,287.281 349.419,287.103C348.366,282.534 343.838,278.055 339.407,278.254C331.305,278.617 317.756,278.839 317.559,278.842C314.449,278.844 311.925,281.582 311.925,284.955C311.925,288.328 314.451,291.067 317.563,291.067L333.964,291.067ZM339.068,291.067C339.244,291.218 339.414,291.394 339.575,291.597C340.269,292.477 340.799,293.906 340.943,296.234C341.124,299.174 341.663,300.633 342.6,301.308C343.54,301.985 344.824,301.859 346.366,301.758C347.594,301.677 348.457,301.201 348.999,300.488C349.541,299.775 349.759,298.839 349.728,297.872C349.494,290.603 348.632,287.341 348.632,287.341C348.631,287.336 348.629,287.331 348.628,287.326C347.662,283.118 343.52,278.956 339.44,279.139C331.272,279.505 317.569,279.728 317.569,279.728C317.567,279.728 317.565,279.728 317.563,279.728C314.902,279.728 312.743,282.07 312.743,284.955C312.743,287.839 314.902,290.181 317.563,290.181L335.805,290.181C336.047,290.171 336.295,290.167 336.546,290.179L336.597,290.181L342.383,290.181C342.609,290.181 342.792,290.38 342.792,290.624C342.792,290.869 342.609,291.067 342.383,291.067L339.068,291.067Z"/>
                </g>
                <g transform="matrix(-1.14799,0.422795,-0.389917,-1.05872,1312.9,672.774)">
                    <path d="M333.997,290.624C335.797,290.976 340.084,288.947 340.535,296.263C340.924,302.566 343.097,302.417 346.391,302.2C349.125,302.021 350.206,300.012 350.136,297.857C349.9,290.513 349.025,287.219 349.025,287.219C348.017,282.829 343.68,278.506 339.424,278.696C331.259,279.062 317.563,279.285 317.563,279.285C314.677,279.285 312.334,281.825 312.334,284.955C312.334,288.084 314.677,290.624 317.563,290.624L342.383,290.624" style="fill:rgb(224,224,224);"/>
                    <clipPath id="_clip4">
                        <path d="M333.997,290.624C335.797,290.976 340.084,288.947 340.535,296.263C340.924,302.566 343.097,302.417 346.391,302.2C349.125,302.021 350.206,300.012 350.136,297.857C349.9,290.513 349.025,287.219 349.025,287.219C348.017,282.829 343.68,278.506 339.424,278.696C331.259,279.062 317.563,279.285 317.563,279.285C314.677,279.285 312.334,281.825 312.334,284.955C312.334,288.084 314.677,290.624 317.563,290.624L342.383,290.624"/>
                    </clipPath>
                    <g clip-path="url(#_clip4)">
                        <g transform="matrix(-0.601362,-0.600332,0.553649,-0.652068,340.551,658.676)">
                            <path d="M269.575,309.855C266.968,306.625 267.902,311.226 281.414,315.463C288.775,317.771 294.816,308.352 297.38,306.298C300.223,304.021 300.552,303.146 303.304,303.395C304.296,303.486 306.478,304.392 305.766,305.089C302.991,307.804 291.937,317.386 286.655,319.684C282.802,321.36 276.923,320.516 274.076,318.878C271.229,317.239 270.605,311.13 269.575,309.855Z" style="fill:rgb(170,170,170);"/>
                        </g>
                        <g transform="matrix(-0.601362,-0.600332,0.553649,-0.652068,340.551,658.676)">
                            <path d="M307.364,287.714C305.59,287.446 303.913,289.167 302.445,290.295C300.241,291.988 294.314,296.423 294.14,297.874C293.965,299.326 299.146,299.968 301.397,299.005C303.91,297.93 308.224,293.305 309.218,291.424C309.864,290.201 309.46,287.903 307.364,287.714Z" style="fill:rgb(249,249,249);"/>
                        </g>
                        <g transform="matrix(-0.399378,-0.398694,0.298495,-0.351557,371.269,510.733)">
                            <path d="M307.364,287.714C305.59,287.446 303.913,289.167 302.445,290.295C300.241,291.988 294.314,296.423 294.14,297.874C293.965,299.326 299.146,299.968 301.397,299.005C303.91,297.93 308.224,293.305 309.218,291.424C309.864,290.201 309.46,287.903 307.364,287.714Z" style="fill:rgb(249,249,249);"/>
                        </g>
                    </g>
                </g>
                <g transform="matrix(-1.14799,0.422795,-0.389917,-1.05872,1312.9,672.774)">
                    <path d="M333.964,291.067C334.414,291.146 335.007,291.092 335.655,291.067L336.579,291.067C337.421,291.113 338.291,291.334 338.954,292.174C339.569,292.953 340,294.231 340.127,296.293C340.335,299.656 341.076,301.274 342.147,302.046C343.215,302.815 344.664,302.758 346.415,302.643C347.922,302.544 348.966,301.926 349.63,301.051C350.296,300.175 350.583,299.03 350.545,297.841C350.313,290.626 349.466,287.281 349.419,287.103C348.366,282.534 343.838,278.055 339.407,278.254C331.305,278.617 317.756,278.839 317.559,278.842C314.449,278.844 311.925,281.582 311.925,284.955C311.925,288.328 314.451,291.067 317.563,291.067L333.964,291.067ZM339.068,291.067C339.244,291.218 339.414,291.394 339.575,291.597C340.269,292.477 340.799,293.906 340.943,296.234C341.124,299.174 341.663,300.633 342.6,301.308C343.54,301.985 344.824,301.859 346.366,301.758C347.594,301.677 348.457,301.201 348.999,300.488C349.541,299.775 349.759,298.839 349.728,297.872C349.494,290.603 348.632,287.341 348.632,287.341C348.631,287.336 348.629,287.331 348.628,287.326C347.662,283.118 343.52,278.956 339.44,279.139C331.272,279.505 317.569,279.728 317.569,279.728C317.567,279.728 317.565,279.728 317.563,279.728C314.902,279.728 312.743,282.07 312.743,284.955C312.743,287.839 314.902,290.181 317.563,290.181L335.805,290.181C336.047,290.171 336.295,290.167 336.546,290.179L336.597,290.181L342.383,290.181C342.609,290.181 342.792,290.38 342.792,290.624C342.792,290.869 342.609,291.067 342.383,291.067L339.068,291.067Z"/>
                </g>
                <g transform="matrix(-1.14268,0.436939,-0.402961,-1.05382,1282.78,662.639)">
                    <path d="M333.997,290.624C335.797,290.976 340.084,288.947 340.535,296.263C340.924,302.566 343.097,302.417 346.391,302.2C349.125,302.021 350.206,300.012 350.136,297.857C349.9,290.513 349.025,287.219 349.025,287.219C348.017,282.829 343.68,278.506 339.424,278.696C331.259,279.062 317.563,279.285 317.563,279.285C314.677,279.285 312.334,281.825 312.334,284.955C312.334,288.084 314.677,290.624 317.563,290.624L342.383,290.624" style="fill:rgb(224,224,224);"/>
                    <clipPath id="_clip5">
                        <path d="M333.997,290.624C335.797,290.976 340.084,288.947 340.535,296.263C340.924,302.566 343.097,302.417 346.391,302.2C349.125,302.021 350.206,300.012 350.136,297.857C349.9,290.513 349.025,287.219 349.025,287.219C348.017,282.829 343.68,278.506 339.424,278.696C331.259,279.062 317.563,279.285 317.563,279.285C314.677,279.285 312.334,281.825 312.334,284.955C312.334,288.084 314.677,290.624 317.563,290.624L342.383,290.624"/>
                    </clipPath>
                    <g clip-path="url(#_clip5)">
                        <g transform="matrix(-0.601362,-0.600332,0.553649,-0.652068,340.551,658.676)">
                            <path d="M269.575,309.855C266.968,306.625 267.902,311.226 281.414,315.463C288.775,317.771 294.816,308.352 297.38,306.298C300.223,304.021 300.552,303.146 303.304,303.395C304.296,303.486 306.478,304.392 305.766,305.089C302.991,307.804 291.937,317.386 286.655,319.684C282.802,321.36 276.923,320.516 274.076,318.878C271.229,317.239 270.605,311.13 269.575,309.855Z" style="fill:rgb(170,170,170);"/>
                        </g>
                        <g transform="matrix(-0.601362,-0.600332,0.553649,-0.652068,340.551,658.676)">
                            <path d="M307.364,287.714C305.59,287.446 303.913,289.167 302.445,290.295C300.241,291.988 294.314,296.423 294.14,297.874C293.965,299.326 299.146,299.968 301.397,299.005C303.91,297.93 308.224,293.305 309.218,291.424C309.864,290.201 309.46,287.903 307.364,287.714Z" style="fill:rgb(249,249,249);"/>
                        </g>
                        <g transform="matrix(-0.399378,-0.398694,0.298495,-0.351557,371.269,510.733)">
                            <path d="M307.364,287.714C305.59,287.446 303.913,289.167 302.445,290.295C300.241,291.988 294.314,296.423 294.14,297.874C293.965,299.326 299.146,299.968 301.397,299.005C303.91,297.93 308.224,293.305 309.218,291.424C309.864,290.201 309.46,287.903 307.364,287.714Z" style="fill:rgb(249,249,249);"/>
                        </g>
                    </g>
                </g>
                <g transform="matrix(-1.14268,0.436939,-0.402961,-1.05382,1282.78,662.639)">
                    <path d="M333.964,291.067C334.414,291.146 335.007,291.092 335.655,291.067L336.579,291.067C337.421,291.113 338.291,291.334 338.954,292.174C339.569,292.953 340,294.231 340.127,296.293C340.335,299.656 341.076,301.274 342.147,302.046C343.215,302.815 344.664,302.758 346.415,302.643C347.922,302.544 348.966,301.926 349.63,301.051C350.296,300.175 350.583,299.03 350.545,297.841C350.313,290.626 349.466,287.281 349.419,287.103C348.366,282.534 343.838,278.055 339.407,278.254C331.305,278.617 317.756,278.839 317.559,278.842C314.449,278.844 311.925,281.582 311.925,284.955C311.925,288.328 314.451,291.067 317.563,291.067L333.964,291.067ZM339.068,291.067C339.244,291.218 339.414,291.394 339.575,291.597C340.269,292.477 340.799,293.906 340.943,296.234C341.124,299.174 341.663,300.633 342.6,301.308C343.54,301.985 344.824,301.859 346.366,301.758C347.594,301.677 348.457,301.201 348.999,300.488C349.541,299.775 349.759,298.839 349.728,297.872C349.494,290.603 348.632,287.341 348.632,287.341C348.631,287.336 348.629,287.331 348.628,287.326C347.662,283.118 343.52,278.956 339.44,279.139C331.272,279.505 317.569,279.728 317.569,279.728C317.567,279.728 317.565,279.728 317.563,279.728C314.902,279.728 312.743,282.07 312.743,284.955C312.743,287.839 314.902,290.181 317.563,290.181L335.805,290.181C336.047,290.171 336.295,290.167 336.546,290.179L336.597,290.181L342.383,290.181C342.609,290.181 342.792,290.38 342.792,290.624C342.792,290.869 342.609,291.067 342.383,291.067L339.068,291.067Z"/>
                </g>
                <g transform="matrix(-1.06098,0.609056,-0.561695,-0.97848,1268.92,578.819)">
                    <path d="M333.997,290.624C335.797,290.976 340.084,288.947 340.535,296.263C340.924,302.566 343.097,302.417 346.391,302.2C349.125,302.021 350.206,300.012 350.136,297.857C349.9,290.513 349.025,287.219 349.025,287.219C348.017,282.829 343.68,278.506 339.424,278.696C331.259,279.062 317.563,279.285 317.563,279.285C314.677,279.285 312.334,281.825 312.334,284.955C312.334,288.084 314.677,290.624 317.563,290.624L342.383,290.624" style="fill:rgb(224,224,224);"/>
                    <clipPath id="_clip6">
                        <path d="M333.997,290.624C335.797,290.976 340.084,288.947 340.535,296.263C340.924,302.566 343.097,302.417 346.391,302.2C349.125,302.021 350.206,300.012 350.136,297.857C349.9,290.513 349.025,287.219 349.025,287.219C348.017,282.829 343.68,278.506 339.424,278.696C331.259,279.062 317.563,279.285 317.563,279.285C314.677,279.285 312.334,281.825 312.334,284.955C312.334,288.084 314.677,290.624 317.563,290.624L342.383,290.624"/>
                    </clipPath>
                    <g clip-path="url(#_clip6)">
                        <g transform="matrix(-0.601362,-0.600332,0.553649,-0.652068,340.551,658.676)">
                            <path d="M269.575,309.855C266.968,306.625 267.902,311.226 281.414,315.463C288.775,317.771 294.816,308.352 297.38,306.298C300.223,304.021 300.552,303.146 303.304,303.395C304.296,303.486 306.478,304.392 305.766,305.089C302.991,307.804 291.937,317.386 286.655,319.684C282.802,321.36 276.923,320.516 274.076,318.878C271.229,317.239 270.605,311.13 269.575,309.855Z" style="fill:rgb(170,170,170);"/>
                        </g>
                        <g transform="matrix(-0.601362,-0.600332,0.553649,-0.652068,340.551,658.676)">
                            <path d="M307.364,287.714C305.59,287.446 303.913,289.167 302.445,290.295C300.241,291.988 294.314,296.423 294.14,297.874C293.965,299.326 299.146,299.968 301.397,299.005C303.91,297.93 308.224,293.305 309.218,291.424C309.864,290.201 309.46,287.903 307.364,287.714Z" style="fill:rgb(249,249,249);"/>
                        </g>
                        <g transform="matrix(-0.399378,-0.398694,0.298495,-0.351557,371.269,510.733)">
                            <path d="M307.364,287.714C305.59,287.446 303.913,289.167 302.445,290.295C300.241,291.988 294.314,296.423 294.14,297.874C293.965,299.326 299.146,299.968 301.397,299.005C303.91,297.93 308.224,293.305 309.218,291.424C309.864,290.201 309.46,287.903 307.364,287.714Z" style="fill:rgb(249,249,249);"/>
                        </g>
                    </g>
                </g>
                <g transform="matrix(-1.06098,0.609056,-0.561695,-0.97848,1268.92,578.819)">
                    <path d="M333.964,291.067C334.414,291.146 335.007,291.092 335.655,291.067L336.579,291.067C337.421,291.113 338.291,291.334 338.954,292.174C339.569,292.953 340,294.231 340.127,296.293C340.335,299.656 341.076,301.274 342.147,302.046C343.215,302.815 344.664,302.758 346.415,302.643C347.922,302.544 348.966,301.926 349.63,301.051C350.296,300.175 350.583,299.03 350.545,297.841C350.313,290.626 349.466,287.281 349.419,287.103C348.366,282.534 343.838,278.055 339.407,278.254C331.305,278.617 317.756,278.839 317.559,278.842C314.449,278.844 311.925,281.582 311.925,284.955C311.925,288.328 314.451,291.067 317.563,291.067L333.964,291.067ZM339.068,291.067C339.244,291.218 339.414,291.394 339.575,291.597C340.269,292.477 340.799,293.906 340.943,296.234C341.124,299.174 341.663,300.633 342.6,301.308C343.54,301.985 344.824,301.859 346.366,301.758C347.594,301.677 348.457,301.201 348.999,300.488C349.541,299.775 349.759,298.839 349.728,297.872C349.494,290.603 348.632,287.341 348.632,287.341C348.631,287.336 348.629,287.331 348.628,287.326C347.662,283.118 343.52,278.956 339.44,279.139C331.272,279.505 317.569,279.728 317.569,279.728C317.567,279.728 317.565,279.728 317.563,279.728C314.902,279.728 312.743,282.07 312.743,284.955C312.743,287.839 314.902,290.181 317.563,290.181L335.805,290.181C336.047,290.171 336.295,290.167 336.546,290.179L336.597,290.181L342.383,290.181C342.609,290.181 342.792,290.38 342.792,290.624C342.792,290.869 342.609,291.067 342.383,291.067L339.068,291.067Z"/>
                </g>
                <g transform="matrix(-1.04914,0.629242,-0.580311,-0.967556,1237.64,564.046)">
                    <path d="M333.997,290.624C335.797,290.976 340.084,288.947 340.535,296.263C340.924,302.566 343.097,302.417 346.391,302.2C349.125,302.021 350.206,300.012 350.136,297.857C349.9,290.513 349.025,287.219 349.025,287.219C348.017,282.829 343.68,278.506 339.424,278.696C331.259,279.062 317.563,279.285 317.563,279.285C314.677,279.285 312.334,281.825 312.334,284.955C312.334,288.084 314.677,290.624 317.563,290.624L342.383,290.624" style="fill:rgb(224,224,224);"/>
                    <clipPath id="_clip7">
                        <path d="M333.997,290.624C335.797,290.976 340.084,288.947 340.535,296.263C340.924,302.566 343.097,302.417 346.391,302.2C349.125,302.021 350.206,300.012 350.136,297.857C349.9,290.513 349.025,287.219 349.025,287.219C348.017,282.829 343.68,278.506 339.424,278.696C331.259,279.062 317.563,279.285 317.563,279.285C314.677,279.285 312.334,281.825 312.334,284.955C312.334,288.084 314.677,290.624 317.563,290.624L342.383,290.624"/>
                    </clipPath>
                    <g clip-path="url(#_clip7)">
                        <g transform="matrix(-0.601362,-0.600332,0.553649,-0.652068,340.551,658.676)">
                            <path d="M269.575,309.855C266.968,306.625 267.902,311.226 281.414,315.463C288.775,317.771 294.816,308.352 297.38,306.298C300.223,304.021 300.552,303.146 303.304,303.395C304.296,303.486 306.478,304.392 305.766,305.089C302.991,307.804 291.937,317.386 286.655,319.684C282.802,321.36 276.923,320.516 274.076,318.878C271.229,317.239 270.605,311.13 269.575,309.855Z" style="fill:rgb(170,170,170);"/>
                        </g>
                        <g transform="matrix(-0.601362,-0.600332,0.553649,-0.652068,340.551,658.676)">
                            <path d="M307.364,287.714C305.59,287.446 303.913,289.167 302.445,290.295C300.241,291.988 294.314,296.423 294.14,297.874C293.965,299.326 299.146,299.968 301.397,299.005C303.91,297.93 308.224,293.305 309.218,291.424C309.864,290.201 309.46,287.903 307.364,287.714Z" style="fill:rgb(249,249,249);"/>
                        </g>
                        <g transform="matrix(-0.399378,-0.398694,0.298495,-0.351557,371.269,510.733)">
                            <path d="M307.364,287.714C305.59,287.446 303.913,289.167 302.445,290.295C300.241,291.988 294.314,296.423 294.14,297.874C293.965,299.326 299.146,299.968 301.397,299.005C303.91,297.93 308.224,293.305 309.218,291.424C309.864,290.201 309.46,287.903 307.364,287.714Z" style="fill:rgb(249,249,249);"/>
                        </g>
                    </g>
                </g>
                <g transform="matrix(-1.04914,0.629242,-0.580311,-0.967556,1237.64,564.046)">
                    <path d="M333.964,291.067C334.414,291.146 335.007,291.092 335.655,291.067L336.579,291.067C337.421,291.113 338.291,291.334 338.954,292.174C339.569,292.953 340,294.231 340.127,296.293C340.335,299.656 341.076,301.274 342.147,302.046C343.215,302.815 344.664,302.758 346.415,302.643C347.922,302.544 348.966,301.926 349.63,301.051C350.296,300.175 350.583,299.03 350.545,297.841C350.313,290.626 349.466,287.281 349.419,287.103C348.366,282.534 343.838,278.055 339.407,278.254C331.305,278.617 317.756,278.839 317.559,278.842C314.449,278.844 311.925,281.582 311.925,284.955C311.925,288.328 314.451,291.067 317.563,291.067L333.964,291.067ZM339.068,291.067C339.244,291.218 339.414,291.394 339.575,291.597C340.269,292.477 340.799,293.906 340.943,296.234C341.124,299.174 341.663,300.633 342.6,301.308C343.54,301.985 344.824,301.859 346.366,301.758C347.594,301.677 348.457,301.201 348.999,300.488C349.541,299.775 349.759,298.839 349.728,297.872C349.494,290.603 348.632,287.341 348.632,287.341C348.631,287.336 348.629,287.331 348.628,287.326C347.662,283.118 343.52,278.956 339.44,279.139C331.272,279.505 317.569,279.728 317.569,279.728C317.567,279.728 317.565,279.728 317.563,279.728C314.902,279.728 312.743,282.07 312.743,284.955C312.743,287.839 314.902,290.181 317.563,290.181L335.805,290.181C336.047,290.171 336.295,290.167 336.546,290.179L336.597,290.181L342.383,290.181C342.609,290.181 342.792,290.38 342.792,290.624C342.792,290.869 342.609,291.067 342.383,291.067L339.068,291.067Z"/>
                </g>
                <g transform="matrix(-0.900022,0.828613,-0.764178,-0.830034,1211.44,458.526)">
                    <path d="M333.997,290.624C335.797,290.976 340.084,288.947 340.535,296.263C340.924,302.566 343.097,302.417 346.391,302.2C349.125,302.021 350.206,300.012 350.136,297.857C349.9,290.513 349.025,287.219 349.025,287.219C348.017,282.829 343.68,278.506 339.424,278.696C331.259,279.062 317.563,279.285 317.563,279.285C314.677,279.285 312.334,281.825 312.334,284.955C312.334,288.084 314.677,290.624 317.563,290.624L342.383,290.624" style="fill:rgb(224,224,224);"/>
                    <clipPath id="_clip8">
                        <path d="M333.997,290.624C335.797,290.976 340.084,288.947 340.535,296.263C340.924,302.566 343.097,302.417 346.391,302.2C349.125,302.021 350.206,300.012 350.136,297.857C349.9,290.513 349.025,287.219 349.025,287.219C348.017,282.829 343.68,278.506 339.424,278.696C331.259,279.062 317.563,279.285 317.563,279.285C314.677,279.285 312.334,281.825 312.334,284.955C312.334,288.084 314.677,290.624 317.563,290.624L342.383,290.624"/>
                    </clipPath>
                    <g clip-path="url(#_clip8)">
                        <g transform="matrix(-0.601362,-0.600332,0.553649,-0.652068,340.551,658.676)">
                            <path d="M269.575,309.855C266.968,306.625 267.902,311.226 281.414,315.463C288.775,317.771 294.816,308.352 297.38,306.298C300.223,304.021 300.552,303.146 303.304,303.395C304.296,303.486 306.478,304.392 305.766,305.089C302.991,307.804 291.937,317.386 286.655,319.684C282.802,321.36 276.923,320.516 274.076,318.878C271.229,317.239 270.605,311.13 269.575,309.855Z" style="fill:rgb(170,170,170);"/>
                        </g>
                        <g transform="matrix(-0.601362,-0.600332,0.553649,-0.652068,340.551,658.676)">
                            <path d="M307.364,287.714C305.59,287.446 303.913,289.167 302.445,290.295C300.241,291.988 294.314,296.423 294.14,297.874C293.965,299.326 299.146,299.968 301.397,299.005C303.91,297.93 308.224,293.305 309.218,291.424C309.864,290.201 309.46,287.903 307.364,287.714Z" style="fill:rgb(249,249,249);"/>
                        </g>
                        <g transform="matrix(-0.399378,-0.398694,0.298495,-0.351557,371.269,510.733)">
                            <path d="M307.364,287.714C305.59,287.446 303.913,289.167 302.445,290.295C300.241,291.988 294.314,296.423 294.14,297.874C293.965,299.326 299.146,299.968 301.397,299.005C303.91,297.93 308.224,293.305 309.218,291.424C309.864,290.201 309.46,287.903 307.364,287.714Z" style="fill:rgb(249,249,249);"/>
                        </g>
                    </g>
                </g>
                <g transform="matrix(-0.900022,0.828613,-0.764178,-0.830034,1211.44,458.526)">
                    <path d="M333.964,291.067C334.414,291.146 335.007,291.092 335.655,291.067L336.579,291.067C337.421,291.113 338.291,291.334 338.954,292.174C339.569,292.953 340,294.231 340.127,296.293C340.335,299.656 341.076,301.274 342.147,302.046C343.215,302.815 344.664,302.758 346.415,302.643C347.922,302.544 348.966,301.926 349.63,301.051C350.296,300.175 350.583,299.03 350.545,297.841C350.313,290.626 349.466,287.281 349.419,287.103C348.366,282.534 343.838,278.055 339.407,278.254C331.305,278.617 317.756,278.839 317.559,278.842C314.449,278.844 311.925,281.582 311.925,284.955C311.925,288.328 314.451,291.067 317.563,291.067L333.964,291.067ZM339.068,291.067C339.244,291.218 339.414,291.394 339.575,291.597C340.269,292.477 340.799,293.906 340.943,296.234C341.124,299.174 341.663,300.633 342.6,301.308C343.54,301.985 344.824,301.859 346.366,301.758C347.594,301.677 348.457,301.201 348.999,300.488C349.541,299.775 349.759,298.839 349.728,297.872C349.494,290.603 348.632,287.341 348.632,287.341C348.631,287.336 348.629,287.331 348.628,287.326C347.662,283.118 343.52,278.956 339.44,279.139C331.272,279.505 317.569,279.728 317.569,279.728C317.567,279.728 317.565,279.728 317.563,279.728C314.902,279.728 312.743,282.07 312.743,284.955C312.743,287.839 314.902,290.181 317.563,290.181L335.805,290.181C336.047,290.171 336.295,290.167 336.546,290.179L336.597,290.181L342.383,290.181C342.609,290.181 342.792,290.38 342.792,290.624C342.792,290.869 342.609,291.067 342.383,291.067L339.068,291.067Z"/>
                </g>
                <g transform="matrix(-0.900022,0.828613,-0.764178,-0.830034,1177.38,464.463)">
                    <path d="M333.997,290.624C335.797,290.976 340.084,288.947 340.535,296.263C340.924,302.566 343.097,302.417 346.391,302.2C349.125,302.021 350.206,300.012 350.136,297.857C349.9,290.513 349.025,287.219 349.025,287.219C348.017,282.829 343.68,278.506 339.424,278.696C331.259,279.062 317.563,279.285 317.563,279.285C314.677,279.285 312.334,281.825 312.334,284.955C312.334,288.084 314.677,290.624 317.563,290.624L342.383,290.624" style="fill:rgb(224,224,224);"/>
                    <clipPath id="_clip9">
                        <path d="M333.997,290.624C335.797,290.976 340.084,288.947 340.535,296.263C340.924,302.566 343.097,302.417 346.391,302.2C349.125,302.021 350.206,300.012 350.136,297.857C349.9,290.513 349.025,287.219 349.025,287.219C348.017,282.829 343.68,278.506 339.424,278.696C331.259,279.062 317.563,279.285 317.563,279.285C314.677,279.285 312.334,281.825 312.334,284.955C312.334,288.084 314.677,290.624 317.563,290.624L342.383,290.624"/>
                    </clipPath>
                    <g clip-path="url(#_clip9)">
                        <g transform="matrix(-0.601362,-0.600332,0.553649,-0.652068,340.551,658.676)">
                            <path d="M269.575,309.855C266.968,306.625 267.902,311.226 281.414,315.463C288.775,317.771 294.816,308.352 297.38,306.298C300.223,304.021 300.552,303.146 303.304,303.395C304.296,303.486 306.478,304.392 305.766,305.089C302.991,307.804 291.937,317.386 286.655,319.684C282.802,321.36 276.923,320.516 274.076,318.878C271.229,317.239 270.605,311.13 269.575,309.855Z" style="fill:rgb(170,170,170);"/>
                        </g>
                        <g transform="matrix(-0.601362,-0.600332,0.553649,-0.652068,340.551,658.676)">
                            <path d="M307.364,287.714C305.59,287.446 303.913,289.167 302.445,290.295C300.241,291.988 294.314,296.423 294.14,297.874C293.965,299.326 299.146,299.968 301.397,299.005C303.91,297.93 308.224,293.305 309.218,291.424C309.864,290.201 309.46,287.903 307.364,287.714Z" style="fill:rgb(249,249,249);"/>
                        </g>
                        <g transform="matrix(-0.399378,-0.398694,0.298495,-0.351557,371.269,510.733)">
                            <path d="M307.364,287.714C305.59,287.446 303.913,289.167 302.445,290.295C300.241,291.988 294.314,296.423 294.14,297.874C293.965,299.326 299.146,299.968 301.397,299.005C303.91,297.93 308.224,293.305 309.218,291.424C309.864,290.201 309.46,287.903 307.364,287.714Z" style="fill:rgb(249,249,249);"/>
                        </g>
                    </g>
                </g>
                <g transform="matrix(-0.900022,0.828613,-0.764178,-0.830034,1177.38,464.463)">
                    <path d="M333.964,291.067C334.414,291.146 335.007,291.092 335.655,291.067L336.579,291.067C337.421,291.113 338.291,291.334 338.954,292.174C339.569,292.953 340,294.231 340.127,296.293C340.335,299.656 341.076,301.274 342.147,302.046C343.215,302.815 344.664,302.758 346.415,302.643C347.922,302.544 348.966,301.926 349.63,301.051C350.296,300.175 350.583,299.03 350.545,297.841C350.313,290.626 349.466,287.281 349.419,287.103C348.366,282.534 343.838,278.055 339.407,278.254C331.305,278.617 317.756,278.839 317.559,278.842C314.449,278.844 311.925,281.582 311.925,284.955C311.925,288.328 314.451,291.067 317.563,291.067L333.964,291.067ZM339.068,291.067C339.244,291.218 339.414,291.394 339.575,291.597C340.269,292.477 340.799,293.906 340.943,296.234C341.124,299.174 341.663,300.633 342.6,301.308C343.54,301.985 344.824,301.859 346.366,301.758C347.594,301.677 348.457,301.201 348.999,300.488C349.541,299.775 349.759,298.839 349.728,297.872C349.494,290.603 348.632,287.341 348.632,287.341C348.631,287.336 348.629,287.331 348.628,287.326C347.662,283.118 343.52,278.956 339.44,279.139C331.272,279.505 317.569,279.728 317.569,279.728C317.567,279.728 317.565,279.728 317.563,279.728C314.902,279.728 312.743,282.07 312.743,284.955C312.743,287.839 314.902,290.181 317.563,290.181L335.805,290.181C336.047,290.171 336.295,290.167 336.546,290.179L336.597,290.181L342.383,290.181C342.609,290.181 342.792,290.38 342.792,290.624C342.792,290.869 342.609,291.067 342.383,291.067L339.068,291.067Z"/>
                </g>
                <g transform="matrix(0.372281,1.16535,-1.07473,0.343332,827.329,35.8836)">
                    <path d="M333.997,290.624C335.797,290.976 340.084,288.947 340.535,296.263C340.924,302.566 343.097,302.417 346.391,302.2C349.125,302.021 350.206,300.012 350.136,297.857C349.9,290.513 349.025,287.219 349.025,287.219C348.017,282.829 343.68,278.506 339.424,278.696C331.259,279.062 317.563,279.285 317.563,279.285C314.677,279.285 312.334,281.825 312.334,284.955C312.334,288.084 314.677,290.624 317.563,290.624L342.383,290.624" style="fill:rgb(224,224,224);"/>
                    <clipPath id="_clip10">
                        <path d="M333.997,290.624C335.797,290.976 340.084,288.947 340.535,296.263C340.924,302.566 343.097,302.417 346.391,302.2C349.125,302.021 350.206,300.012 350.136,297.857C349.9,290.513 349.025,287.219 349.025,287.219C348.017,282.829 343.68,278.506 339.424,278.696C331.259,279.062 317.563,279.285 317.563,279.285C314.677,279.285 312.334,281.825 312.334,284.955C312.334,288.084 314.677,290.624 317.563,290.624L342.383,290.624"/>
                    </clipPath>
                    <g clip-path="url(#_clip10)">
                        <g transform="matrix(-0.601362,-0.600332,0.553649,-0.652068,340.551,658.676)">
                            <path d="M269.575,309.855C266.968,306.625 267.902,311.226 281.414,315.463C288.775,317.771 294.816,308.352 297.38,306.298C300.223,304.021 300.552,303.146 303.304,303.395C304.296,303.486 306.478,304.392 305.766,305.089C302.991,307.804 291.937,317.386 286.655,319.684C282.802,321.36 276.923,320.516 274.076,318.878C271.229,317.239 270.605,311.13 269.575,309.855Z" style="fill:rgb(170,170,170);"/>
                        </g>
                        <g transform="matrix(-0.601362,-0.600332,0.553649,-0.652068,340.551,658.676)">
                            <path d="M307.364,287.714C305.59,287.446 303.913,289.167 302.445,290.295C300.241,291.988 294.314,296.423 294.14,297.874C293.965,299.326 299.146,299.968 301.397,299.005C303.91,297.93 308.224,293.305 309.218,291.424C309.864,290.201 309.46,287.903 307.364,287.714Z" style="fill:rgb(249,249,249);"/>
                        </g>
                        <g transform="matrix(-0.399378,-0.398694,0.298495,-0.351557,371.269,510.733)">
                            <path d="M307.364,287.714C305.59,287.446 303.913,289.167 302.445,290.295C300.241,291.988 294.314,296.423 294.14,297.874C293.965,299.326 299.146,299.968 301.397,299.005C303.91,297.93 308.224,293.305 309.218,291.424C309.864,290.201 309.46,287.903 307.364,287.714Z" style="fill:rgb(249,249,249);"/>
                        </g>
                    </g>
                </g>
                <g transform="matrix(0.372281,1.16535,-1.07473,0.343332,827.329,35.8836)">
                    <path d="M333.964,291.067C334.414,291.146 335.007,291.092 335.655,291.067L336.579,291.067C337.421,291.113 338.291,291.334 338.954,292.174C339.569,292.953 340,294.231 340.127,296.293C340.335,299.656 341.076,301.274 342.147,302.046C343.215,302.815 344.664,302.758 346.415,302.643C347.922,302.544 348.966,301.926 349.63,301.051C350.296,300.175 350.583,299.03 350.545,297.841C350.313,290.626 349.466,287.281 349.419,287.103C348.366,282.534 343.838,278.055 339.407,278.254C331.305,278.617 317.756,278.839 317.559,278.842C314.449,278.844 311.925,281.582 311.925,284.955C311.925,288.328 314.451,291.067 317.563,291.067L333.964,291.067ZM339.068,291.067C339.244,291.218 339.414,291.394 339.575,291.597C340.269,292.477 340.799,293.906 340.943,296.234C341.124,299.174 341.663,300.633 342.6,301.308C343.54,301.985 344.824,301.859 346.366,301.758C347.594,301.677 348.457,301.201 348.999,300.488C349.541,299.775 349.759,298.839 349.728,297.872C349.494,290.603 348.632,287.341 348.632,287.341C348.631,287.336 348.629,287.331 348.628,287.326C347.662,283.118 343.52,278.956 339.44,279.139C331.272,279.505 317.569,279.728 317.569,279.728C317.567,279.728 317.565,279.728 317.563,279.728C314.902,279.728 312.743,282.07 312.743,284.955C312.743,287.839 314.902,290.181 317.563,290.181L335.805,290.181C336.047,290.171 336.295,290.167 336.546,290.179L336.597,290.181L342.383,290.181C342.609,290.181 342.792,290.38 342.792,290.624C342.792,290.869 342.609,291.067 342.383,291.067L339.068,291.067Z"/>
                </g>
                <g transform="matrix(0.449888,-1.13765,1.04918,0.414904,183.45,760.608)">
                    <path d="M334.225,290.217C336.024,290.568 340.084,288.947 340.535,296.263C340.924,302.566 343.097,302.417 346.391,302.2C349.125,302.021 350.206,300.012 350.136,297.857C349.9,290.513 349.025,287.219 349.025,287.219C348.017,282.829 343.635,279.392 339.424,278.696C332.891,277.618 317.563,279.285 317.563,279.285C314.677,279.285 312.334,281.825 312.334,284.955C312.334,288.084 315.019,290.973 317.563,290.624C326.12,289.451 342.383,290.624 342.383,290.624" style="fill:rgb(224,224,224);"/>
                    <clipPath id="_clip11">
                        <path d="M334.225,290.217C336.024,290.568 340.084,288.947 340.535,296.263C340.924,302.566 343.097,302.417 346.391,302.2C349.125,302.021 350.206,300.012 350.136,297.857C349.9,290.513 349.025,287.219 349.025,287.219C348.017,282.829 343.635,279.392 339.424,278.696C332.891,277.618 317.563,279.285 317.563,279.285C314.677,279.285 312.334,281.825 312.334,284.955C312.334,288.084 315.019,290.973 317.563,290.624C326.12,289.451 342.383,290.624 342.383,290.624"/>
                    </clipPath>
                    <g clip-path="url(#_clip11)">
                        <g transform="matrix(0.633438,0.560207,-0.516644,0.686848,287.684,-76.1259)">
                            <path d="M280.937,296.564C280.937,296.564 286.638,300.102 293.411,293.849C300.185,287.597 289.154,301.789 289.154,301.789L280.937,299.66L280.937,296.564Z" style="fill:rgb(170,170,170);"/>
                        </g>
                        <g transform="matrix(0.633438,0.560207,-0.516644,0.686848,287.684,-76.1259)">
                            <path d="M313.604,278.038C313.604,278.038 316.636,284.746 323.345,286.746C330.053,288.746 316.425,289.649 316.425,289.649L307.54,282.682L313.604,278.038Z" style="fill:rgb(170,170,170);"/>
                        </g>
                        <g transform="matrix(0.633438,0.560207,-0.516644,0.686848,287.684,-76.1259)">
                            <path d="M316.183,269.551C316.183,269.551 309.088,268.361 298.251,278.102C287.413,287.843 285.285,288.165 281.608,287.456C277.931,286.746 290.574,271.78 290.574,271.78C290.574,271.78 302.379,263.65 310.314,265.651C318.248,267.652 316.183,269.551 316.183,269.551Z" style="fill:rgb(249,249,249);"/>
                        </g>
                    </g>
                </g>
                <g transform="matrix(0.449888,-1.13765,1.04918,0.414904,183.45,760.608)">
                    <path d="M334.178,290.657C334.729,290.759 335.48,290.692 336.275,290.737C336.988,290.778 337.744,290.914 338.395,291.433C339.291,292.147 339.959,293.561 340.127,296.293C340.335,299.656 341.076,301.274 342.147,302.046C343.215,302.815 344.664,302.758 346.415,302.643C347.922,302.544 348.966,301.926 349.63,301.051C350.296,300.175 350.583,299.03 350.545,297.841C350.313,290.625 349.465,287.28 349.419,287.103C348.371,282.558 343.848,278.979 339.485,278.258C333.047,277.195 318.105,278.781 317.538,278.842C314.44,278.854 311.925,281.588 311.925,284.955C311.925,286.973 312.959,288.901 314.381,290.037C315.35,290.812 316.496,291.217 317.614,291.064C322.159,290.441 328.885,290.483 334.178,290.657ZM339.054,290.867C339.998,291.721 340.762,293.293 340.943,296.234C341.124,299.174 341.663,300.633 342.6,301.308C343.54,301.985 344.824,301.859 346.366,301.758C347.594,301.677 348.457,301.201 348.999,300.488C349.541,299.775 349.759,298.839 349.728,297.872C349.494,290.603 348.632,287.341 348.632,287.341C348.631,287.336 348.629,287.331 348.628,287.326C347.657,283.096 343.42,279.805 339.362,279.135C332.86,278.061 317.603,279.726 317.603,279.726C317.59,279.727 317.576,279.728 317.563,279.728C314.902,279.728 312.743,282.07 312.743,284.955C312.743,286.692 313.642,288.346 314.866,289.324C315.66,289.959 316.595,290.31 317.511,290.185C322.094,289.556 328.879,289.598 334.209,289.774C334.227,289.773 334.246,289.774 334.264,289.776C334.884,289.796 335.484,289.818 336.058,289.842C336.144,289.844 336.231,289.847 336.318,289.852L336.318,289.852C339.894,290.001 342.41,290.182 342.41,290.182C342.635,290.198 342.806,290.41 342.791,290.654C342.776,290.898 342.581,291.083 342.356,291.066C342.356,291.066 341.08,290.974 339.054,290.867Z"/>
                </g>
                <g transform="matrix(0.948027,-0.773229,0.713101,0.874306,149.082,488.928)">
                    <path d="M334.225,290.217C336.024,290.568 340.084,288.947 340.535,296.263C340.924,302.566 343.097,302.417 346.391,302.2C349.125,302.021 350.206,300.012 350.136,297.857C349.9,290.513 349.025,287.219 349.025,287.219C348.017,282.829 343.635,279.392 339.424,278.696C332.891,277.618 317.563,279.285 317.563,279.285C314.677,279.285 312.334,281.825 312.334,284.955C312.334,288.084 315.019,290.973 317.563,290.624C326.12,289.451 342.383,290.624 342.383,290.624" style="fill:rgb(224,224,224);"/>
                    <clipPath id="_clip12">
                        <path d="M334.225,290.217C336.024,290.568 340.084,288.947 340.535,296.263C340.924,302.566 343.097,302.417 346.391,302.2C349.125,302.021 350.206,300.012 350.136,297.857C349.9,290.513 349.025,287.219 349.025,287.219C348.017,282.829 343.635,279.392 339.424,278.696C332.891,277.618 317.563,279.285 317.563,279.285C314.677,279.285 312.334,281.825 312.334,284.955C312.334,288.084 315.019,290.973 317.563,290.624C326.12,289.451 342.383,290.624 342.383,290.624"/>
                    </clipPath>
                    <g clip-path="url(#_clip12)">
                        <g transform="matrix(0.633438,0.560207,-0.516644,0.686848,287.684,-76.1259)">
                            <path d="M280.937,296.564C280.937,296.564 286.638,300.102 293.411,293.849C300.185,287.597 289.154,301.789 289.154,301.789L280.937,299.66L280.937,296.564Z" style="fill:rgb(170,170,170);"/>
                        </g>
                        <g transform="matrix(0.633438,0.560207,-0.516644,0.686848,287.684,-76.1259)">
                            <path d="M313.604,278.038C313.604,278.038 316.636,284.746 323.345,286.746C330.053,288.746 316.425,289.649 316.425,289.649L307.54,282.682L313.604,278.038Z" style="fill:rgb(170,170,170);"/>
                        </g>
                        <g transform="matrix(0.633438,0.560207,-0.516644,0.686848,287.684,-76.1259)">
                            <path d="M316.183,269.551C316.183,269.551 309.088,268.361 298.251,278.102C287.413,287.843 285.285,288.165 281.608,287.456C277.931,286.746 290.574,271.78 290.574,271.78C290.574,271.78 302.379,263.65 310.314,265.651C318.248,267.652 316.183,269.551 316.183,269.551Z" style="fill:rgb(249,249,249);"/>
                        </g>
                    </g>
                </g>
                <g transform="matrix(0.948027,-0.773229,0.713101,0.874306,149.082,488.928)">
                    <path d="M334.178,290.657C334.729,290.759 335.48,290.692 336.275,290.737C336.988,290.778 337.744,290.914 338.395,291.433C339.291,292.147 339.959,293.561 340.127,296.293C340.335,299.656 341.076,301.274 342.147,302.046C343.215,302.815 344.664,302.758 346.415,302.643C347.922,302.544 348.966,301.926 349.63,301.051C350.296,300.175 350.583,299.03 350.545,297.841C350.313,290.625 349.465,287.28 349.419,287.103C348.371,282.558 343.848,278.979 339.485,278.258C333.047,277.195 318.105,278.781 317.538,278.842C314.44,278.854 311.925,281.588 311.925,284.955C311.925,286.973 312.959,288.901 314.381,290.037C315.35,290.812 316.496,291.217 317.614,291.064C322.159,290.441 328.885,290.483 334.178,290.657ZM339.054,290.867C339.998,291.721 340.762,293.293 340.943,296.234C341.124,299.174 341.663,300.633 342.6,301.308C343.54,301.985 344.824,301.859 346.366,301.758C347.594,301.677 348.457,301.201 348.999,300.488C349.541,299.775 349.759,298.839 349.728,297.872C349.494,290.603 348.632,287.341 348.632,287.341C348.631,287.336 348.629,287.331 348.628,287.326C347.657,283.096 343.42,279.805 339.362,279.135C332.86,278.061 317.603,279.726 317.603,279.726C317.59,279.727 317.576,279.728 317.563,279.728C314.902,279.728 312.743,282.07 312.743,284.955C312.743,286.692 313.642,288.346 314.866,289.324C315.66,289.959 316.595,290.31 317.511,290.185C322.094,289.556 328.879,289.598 334.209,289.774C334.227,289.773 334.246,289.774 334.264,289.776C334.884,289.796 335.484,289.818 336.058,289.842C336.144,289.844 336.231,289.847 336.318,289.852L336.318,289.852C339.894,290.001 342.41,290.182 342.41,290.182C342.635,290.198 342.806,290.41 342.791,290.654C342.776,290.898 342.581,291.083 342.356,291.066C342.356,291.066 341.08,290.974 339.054,290.867Z"/>
                </g>
                <g transform="matrix(0.964349,-0.752775,0.694237,0.889359,182.421,472.862)">
                    <path d="M334.225,290.217C336.024,290.568 340.084,288.947 340.535,296.263C340.924,302.566 343.097,302.417 346.391,302.2C349.125,302.021 350.206,300.012 350.136,297.857C349.9,290.513 349.025,287.219 349.025,287.219C348.017,282.829 343.635,279.392 339.424,278.696C332.891,277.618 317.563,279.285 317.563,279.285C314.677,279.285 312.334,281.825 312.334,284.955C312.334,288.084 315.019,290.973 317.563,290.624C326.12,289.451 342.383,290.624 342.383,290.624" style="fill:rgb(224,224,224);"/>
                    <clipPath id="_clip13">
                        <path d="M334.225,290.217C336.024,290.568 340.084,288.947 340.535,296.263C340.924,302.566 343.097,302.417 346.391,302.2C349.125,302.021 350.206,300.012 350.136,297.857C349.9,290.513 349.025,287.219 349.025,287.219C348.017,282.829 343.635,279.392 339.424,278.696C332.891,277.618 317.563,279.285 317.563,279.285C314.677,279.285 312.334,281.825 312.334,284.955C312.334,288.084 315.019,290.973 317.563,290.624C326.12,289.451 342.383,290.624 342.383,290.624"/>
                    </clipPath>
                    <g clip-path="url(#_clip13)">
                        <g transform="matrix(0.633438,0.560207,-0.516644,0.686848,287.684,-76.1259)">
                            <path d="M280.937,296.564C280.937,296.564 286.638,300.102 293.411,293.849C300.185,287.597 289.154,301.789 289.154,301.789L280.937,299.66L280.937,296.564Z" style="fill:rgb(170,170,170);"/>
                        </g>
                        <g transform="matrix(0.633438,0.560207,-0.516644,0.686848,287.684,-76.1259)">
                            <path d="M313.604,278.038C313.604,278.038 316.636,284.746 323.345,286.746C330.053,288.746 316.425,289.649 316.425,289.649L307.54,282.682L313.604,278.038Z" style="fill:rgb(170,170,170);"/>
                        </g>
                        <g transform="matrix(0.633438,0.560207,-0.516644,0.686848,287.684,-76.1259)">
                            <path d="M316.183,269.551C316.183,269.551 309.088,268.361 298.251,278.102C287.413,287.843 285.285,288.165 281.608,287.456C277.931,286.746 290.574,271.78 290.574,271.78C290.574,271.78 302.379,263.65 310.314,265.651C318.248,267.652 316.183,269.551 316.183,269.551Z" style="fill:rgb(249,249,249);"/>
                        </g>
                    </g>
                </g>
                <g transform="matrix(0.964349,-0.752775,0.694237,0.889359,182.421,472.862)">
                    <path d="M334.178,290.657C334.729,290.759 335.48,290.692 336.275,290.737C336.988,290.778 337.744,290.914 338.395,291.433C339.291,292.147 339.959,293.561 340.127,296.293C340.335,299.656 341.076,301.274 342.147,302.046C343.215,302.815 344.664,302.758 346.415,302.643C347.922,302.544 348.966,301.926 349.63,301.051C350.296,300.175 350.583,299.03 350.545,297.841C350.313,290.625 349.465,287.28 349.419,287.103C348.371,282.558 343.848,278.979 339.485,278.258C333.047,277.195 318.105,278.781 317.538,278.842C314.44,278.854 311.925,281.588 311.925,284.955C311.925,286.973 312.959,288.901 314.381,290.037C315.35,290.812 316.496,291.217 317.614,291.064C322.159,290.441 328.885,290.483 334.178,290.657ZM339.054,290.867C339.998,291.721 340.762,293.293 340.943,296.234C341.124,299.174 341.663,300.633 342.6,301.308C343.54,301.985 344.824,301.859 346.366,301.758C347.594,301.677 348.457,301.201 348.999,300.488C349.541,299.775 349.759,298.839 349.728,297.872C349.494,290.603 348.632,287.341 348.632,287.341C348.631,287.336 348.629,287.331 348.628,287.326C347.657,283.096 343.42,279.805 339.362,279.135C332.86,278.061 317.603,279.726 317.603,279.726C317.59,279.727 317.576,279.728 317.563,279.728C314.902,279.728 312.743,282.07 312.743,284.955C312.743,286.692 313.642,288.346 314.866,289.324C315.66,289.959 316.595,290.31 317.511,290.185C322.094,289.556 328.879,289.598 334.209,289.774C334.227,289.773 334.246,289.774 334.264,289.776C334.884,289.796 335.484,289.818 336.058,289.842C336.144,289.844 336.231,289.847 336.318,289.852L336.318,289.852C339.894,290.001 342.41,290.182 342.41,290.182C342.635,290.198 342.806,290.41 342.791,290.654C342.776,290.898 342.581,291.083 342.356,291.066C342.356,291.066 341.08,290.974 339.054,290.867Z"/>
                </g>
                <g transform="matrix(1.07919,-0.576175,0.53137,0.995274,225.533,385.188)">
                    <path d="M334.225,290.217C336.024,290.568 340.084,288.947 340.535,296.263C340.924,302.566 343.097,302.417 346.391,302.2C349.125,302.021 350.206,300.012 350.136,297.857C349.9,290.513 349.025,287.219 349.025,287.219C348.017,282.829 343.635,279.392 339.424,278.696C332.891,277.618 317.563,279.285 317.563,279.285C314.677,279.285 312.334,281.825 312.334,284.955C312.334,288.084 315.019,290.973 317.563,290.624C326.12,289.451 342.383,290.624 342.383,290.624" style="fill:rgb(224,224,224);"/>
                    <clipPath id="_clip14">
                        <path d="M334.225,290.217C336.024,290.568 340.084,288.947 340.535,296.263C340.924,302.566 343.097,302.417 346.391,302.2C349.125,302.021 350.206,300.012 350.136,297.857C349.9,290.513 349.025,287.219 349.025,287.219C348.017,282.829 343.635,279.392 339.424,278.696C332.891,277.618 317.563,279.285 317.563,279.285C314.677,279.285 312.334,281.825 312.334,284.955C312.334,288.084 315.019,290.973 317.563,290.624C326.12,289.451 342.383,290.624 342.383,290.624"/>
                    </clipPath>
                    <g clip-path="url(#_clip14)">
                        <g transform="matrix(0.633438,0.560207,-0.516644,0.686848,287.684,-76.1259)">
                            <path d="M280.937,296.564C280.937,296.564 286.638,300.102 293.411,293.849C300.185,287.597 289.154,301.789 289.154,301.789L280.937,299.66L280.937,296.564Z" style="fill:rgb(170,170,170);"/>
                        </g>
                        <g transform="matrix(0.633438,0.560207,-0.516644,0.686848,287.684,-76.1259)">
                            <path d="M313.604,278.038C313.604,278.038 316.636,284.746 323.345,286.746C330.053,288.746 316.425,289.649 316.425,289.649L307.54,282.682L313.604,278.038Z" style="fill:rgb(170,170,170);"/>
                        </g>
                        <g transform="matrix(0.633438,0.560207,-0.516644,0.686848,287.684,-76.1259)">
                            <path d="M316.183,269.551C316.183,269.551 309.088,268.361 298.251,278.102C287.413,287.843 285.285,288.165 281.608,287.456C277.931,286.746 290.574,271.78 290.574,271.78C290.574,271.78 302.379,263.65 310.314,265.651C318.248,267.652 316.183,269.551 316.183,269.551Z" style="fill:rgb(249,249,249);"/>
                        </g>
                    </g>
                </g>
                <g transform="matrix(1.07919,-0.576175,0.53137,0.995274,225.533,385.188)">
                    <path d="M334.178,290.657C334.729,290.759 335.48,290.692 336.275,290.737C336.988,290.778 337.744,290.914 338.395,291.433C339.291,292.147 339.959,293.561 340.127,296.293C340.335,299.656 341.076,301.274 342.147,302.046C343.215,302.815 344.664,302.758 346.415,302.643C347.922,302.544 348.966,301.926 349.63,301.051C350.296,300.175 350.583,299.03 350.545,297.841C350.313,290.625 349.465,287.28 349.419,287.103C348.371,282.558 343.848,278.979 339.485,278.258C333.047,277.195 318.105,278.781 317.538,278.842C314.44,278.854 311.925,281.588 311.925,284.955C311.925,286.973 312.959,288.901 314.381,290.037C315.35,290.812 316.496,291.217 317.614,291.064C322.159,290.441 328.885,290.483 334.178,290.657ZM339.054,290.867C339.998,291.721 340.762,293.293 340.943,296.234C341.124,299.174 341.663,300.633 342.6,301.308C343.54,301.985 344.824,301.859 346.366,301.758C347.594,301.677 348.457,301.201 348.999,300.488C349.541,299.775 349.759,298.839 349.728,297.872C349.494,290.603 348.632,287.341 348.632,287.341C348.631,287.336 348.629,287.331 348.628,287.326C347.657,283.096 343.42,279.805 339.362,279.135C332.86,278.061 317.603,279.726 317.603,279.726C317.59,279.727 317.576,279.728 317.563,279.728C314.902,279.728 312.743,282.07 312.743,284.955C312.743,286.692 313.642,288.346 314.866,289.324C315.66,289.959 316.595,290.31 317.511,290.185C322.094,289.556 328.879,289.598 334.209,289.774C334.227,289.773 334.246,289.774 334.264,289.776C334.884,289.796 335.484,289.818 336.058,289.842C336.144,289.844 336.231,289.847 336.318,289.852L336.318,289.852C339.894,290.001 342.41,290.182 342.41,290.182C342.635,290.198 342.806,290.41 342.791,290.654C342.776,290.898 342.581,291.083 342.356,291.066C342.356,291.066 341.08,290.974 339.054,290.867Z"/>
                </g>
                <g transform="matrix(1.07919,-0.576175,0.53137,0.995274,257.914,389.346)">
                    <path d="M334.225,290.217C336.024,290.568 340.084,288.947 340.535,296.263C340.924,302.566 343.097,302.417 346.391,302.2C349.125,302.021 350.206,300.012 350.136,297.857C349.9,290.513 349.025,287.219 349.025,287.219C348.017,282.829 343.635,279.392 339.424,278.696C332.891,277.618 317.563,279.285 317.563,279.285C314.677,279.285 312.334,281.825 312.334,284.955C312.334,288.084 315.019,290.973 317.563,290.624C326.12,289.451 342.383,290.624 342.383,290.624" style="fill:rgb(224,224,224);"/>
                    <clipPath id="_clip15">
                        <path d="M334.225,290.217C336.024,290.568 340.084,288.947 340.535,296.263C340.924,302.566 343.097,302.417 346.391,302.2C349.125,302.021 350.206,300.012 350.136,297.857C349.9,290.513 349.025,287.219 349.025,287.219C348.017,282.829 343.635,279.392 339.424,278.696C332.891,277.618 317.563,279.285 317.563,279.285C314.677,279.285 312.334,281.825 312.334,284.955C312.334,288.084 315.019,290.973 317.563,290.624C326.12,289.451 342.383,290.624 342.383,290.624"/>
                    </clipPath>
                    <g clip-path="url(#_clip15)">
                        <g transform="matrix(0.633438,0.560207,-0.516644,0.686848,287.684,-76.1259)">
                            <path d="M280.937,296.564C280.937,296.564 286.638,300.102 293.411,293.849C300.185,287.597 289.154,301.789 289.154,301.789L280.937,299.66L280.937,296.564Z" style="fill:rgb(170,170,170);"/>
                        </g>
                        <g transform="matrix(0.633438,0.560207,-0.516644,0.686848,287.684,-76.1259)">
                            <path d="M313.604,278.038C313.604,278.038 316.636,284.746 323.345,286.746C330.053,288.746 316.425,289.649 316.425,289.649L307.54,282.682L313.604,278.038Z" style="fill:rgb(170,170,170);"/>
                        </g>
                        <g transform="matrix(0.633438,0.560207,-0.516644,0.686848,287.684,-76.1259)">
                            <path d="M316.183,269.551C316.183,269.551 309.088,268.361 298.251,278.102C287.413,287.843 285.285,288.165 281.608,287.456C277.931,286.746 290.574,271.78 290.574,271.78C290.574,271.78 302.379,263.65 310.314,265.651C318.248,267.652 316.183,269.551 316.183,269.551Z" style="fill:rgb(249,249,249);"/>
                        </g>
                    </g>
                </g>
                <g transform="matrix(1.07919,-0.576175,0.53137,0.995274,257.914,389.346)">
                    <path d="M334.178,290.657C334.729,290.759 335.48,290.692 336.275,290.737C336.988,290.778 337.744,290.914 338.395,291.433C339.291,292.147 339.959,293.561 340.127,296.293C340.335,299.656 341.076,301.274 342.147,302.046C343.215,302.815 344.664,302.758 346.415,302.643C347.922,302.544 348.966,301.926 349.63,301.051C350.296,300.175 350.583,299.03 350.545,297.841C350.313,290.625 349.465,287.28 349.419,287.103C348.371,282.558 343.848,278.979 339.485,278.258C333.047,277.195 318.105,278.781 317.538,278.842C314.44,278.854 311.925,281.588 311.925,284.955C311.925,286.973 312.959,288.901 314.381,290.037C315.35,290.812 316.496,291.217 317.614,291.064C322.159,290.441 328.885,290.483 334.178,290.657ZM339.054,290.867C339.998,291.721 340.762,293.293 340.943,296.234C341.124,299.174 341.663,300.633 342.6,301.308C343.54,301.985 344.824,301.859 346.366,301.758C347.594,301.677 348.457,301.201 348.999,300.488C349.541,299.775 349.759,298.839 349.728,297.872C349.494,290.603 348.632,287.341 348.632,287.341C348.631,287.336 348.629,287.331 348.628,287.326C347.657,283.096 343.42,279.805 339.362,279.135C332.86,278.061 317.603,279.726 317.603,279.726C317.59,279.727 317.576,279.728 317.563,279.728C314.902,279.728 312.743,282.07 312.743,284.955C312.743,286.692 313.642,288.346 314.866,289.324C315.66,289.959 316.595,290.31 317.511,290.185C322.094,289.556 328.879,289.598 334.209,289.774C334.227,289.773 334.246,289.774 334.264,289.776C334.884,289.796 335.484,289.818 336.058,289.842C336.144,289.844 336.231,289.847 336.318,289.852L336.318,289.852C339.894,290.001 342.41,290.182 342.41,290.182C342.635,290.198 342.806,290.41 342.791,290.654C342.776,290.898 342.581,291.083 342.356,291.066C342.356,291.066 341.08,290.974 339.054,290.867Z"/>
                </g>
                <g transform="matrix(1.13747,-0.450342,0.415323,1.04901,305.16,338.241)">
                    <path d="M334.225,290.217C336.024,290.568 340.084,288.947 340.535,296.263C340.924,302.566 343.097,302.417 346.391,302.2C349.125,302.021 350.206,300.012 350.136,297.857C349.9,290.513 349.025,287.219 349.025,287.219C348.017,282.829 343.635,279.392 339.424,278.696C332.891,277.618 317.563,279.285 317.563,279.285C314.677,279.285 312.334,281.825 312.334,284.955C312.334,288.084 315.019,290.973 317.563,290.624C326.12,289.451 342.383,290.624 342.383,290.624" style="fill:rgb(224,224,224);"/>
                    <clipPath id="_clip16">
                        <path d="M334.225,290.217C336.024,290.568 340.084,288.947 340.535,296.263C340.924,302.566 343.097,302.417 346.391,302.2C349.125,302.021 350.206,300.012 350.136,297.857C349.9,290.513 349.025,287.219 349.025,287.219C348.017,282.829 343.635,279.392 339.424,278.696C332.891,277.618 317.563,279.285 317.563,279.285C314.677,279.285 312.334,281.825 312.334,284.955C312.334,288.084 315.019,290.973 317.563,290.624C326.12,289.451 342.383,290.624 342.383,290.624"/>
                    </clipPath>
                    <g clip-path="url(#_clip16)">
                        <g transform="matrix(0.633438,0.560207,-0.516644,0.686848,287.684,-76.1259)">
                            <path d="M280.937,296.564C280.937,296.564 286.638,300.102 293.411,293.849C300.185,287.597 289.154,301.789 289.154,301.789L280.937,299.66L280.937,296.564Z" style="fill:rgb(170,170,170);"/>
                        </g>
                        <g transform="matrix(0.633438,0.560207,-0.516644,0.686848,287.684,-76.1259)">
                            <path d="M313.604,278.038C313.604,278.038 316.636,284.746 323.345,286.746C330.053,288.746 316.425,289.649 316.425,289.649L307.54,282.682L313.604,278.038Z" style="fill:rgb(170,170,170);"/>
                        </g>
                        <g transform="matrix(0.633438,0.560207,-0.516644,0.686848,287.684,-76.1259)">
                            <path d="M316.183,269.551C316.183,269.551 309.088,268.361 298.251,278.102C287.413,287.843 285.285,288.165 281.608,287.456C277.931,286.746 290.574,271.78 290.574,271.78C290.574,271.78 302.379,263.65 310.314,265.651C318.248,267.652 316.183,269.551 316.183,269.551Z" style="fill:rgb(249,249,249);"/>
                        </g>
                    </g>
                </g>
                <g transform="matrix(1.13747,-0.450342,0.415323,1.04901,305.16,338.241)">
                    <path d="M334.178,290.657C334.729,290.759 335.48,290.692 336.275,290.737C336.988,290.778 337.744,290.914 338.395,291.433C339.291,292.147 339.959,293.561 340.127,296.293C340.335,299.656 341.076,301.274 342.147,302.046C343.215,302.815 344.664,302.758 346.415,302.643C347.922,302.544 348.966,301.926 349.63,301.051C350.296,300.175 350.583,299.03 350.545,297.841C350.313,290.625 349.465,287.28 349.419,287.103C348.371,282.558 343.848,278.979 339.485,278.258C333.047,277.195 318.105,278.781 317.538,278.842C314.44,278.854 311.925,281.588 311.925,284.955C311.925,286.973 312.959,288.901 314.381,290.037C315.35,290.812 316.496,291.217 317.614,291.064C322.159,290.441 328.885,290.483 334.178,290.657ZM339.054,290.867C339.998,291.721 340.762,293.293 340.943,296.234C341.124,299.174 341.663,300.633 342.6,301.308C343.54,301.985 344.824,301.859 346.366,301.758C347.594,301.677 348.457,301.201 348.999,300.488C349.541,299.775 349.759,298.839 349.728,297.872C349.494,290.603 348.632,287.341 348.632,287.341C348.631,287.336 348.629,287.331 348.628,287.326C347.657,283.096 343.42,279.805 339.362,279.135C332.86,278.061 317.603,279.726 317.603,279.726C317.59,279.727 317.576,279.728 317.563,279.728C314.902,279.728 312.743,282.07 312.743,284.955C312.743,286.692 313.642,288.346 314.866,289.324C315.66,289.959 316.595,290.31 317.511,290.185C322.094,289.556 328.879,289.598 334.209,289.774C334.227,289.773 334.246,289.774 334.264,289.776C334.884,289.796 335.484,289.818 336.058,289.842C336.144,289.844 336.231,289.847 336.318,289.852L336.318,289.852C339.894,290.001 342.41,290.182 342.41,290.182C342.635,290.198 342.806,290.41 342.791,290.654C342.776,290.898 342.581,291.083 342.356,291.066C342.356,291.066 341.08,290.974 339.054,290.867Z"/>
                </g>
                <g transform="matrix(1.19933,-0.241334,0.222567,1.10607,373.029,258.895)">
                    <path d="M334.225,290.217C336.024,290.568 340.084,288.947 340.535,296.263C340.924,302.566 343.097,302.417 346.391,302.2C349.125,302.021 350.206,300.012 350.136,297.857C349.9,290.513 349.025,287.219 349.025,287.219C348.017,282.829 343.635,279.392 339.424,278.696C332.891,277.618 317.563,279.285 317.563,279.285C314.677,279.285 312.334,281.825 312.334,284.955C312.334,288.084 315.019,290.973 317.563,290.624C326.12,289.451 342.383,290.624 342.383,290.624" style="fill:rgb(224,224,224);"/>
                    <clipPath id="_clip17">
                        <path d="M334.225,290.217C336.024,290.568 340.084,288.947 340.535,296.263C340.924,302.566 343.097,302.417 346.391,302.2C349.125,302.021 350.206,300.012 350.136,297.857C349.9,290.513 349.025,287.219 349.025,287.219C348.017,282.829 343.635,279.392 339.424,278.696C332.891,277.618 317.563,279.285 317.563,279.285C314.677,279.285 312.334,281.825 312.334,284.955C312.334,288.084 315.019,290.973 317.563,290.624C326.12,289.451 342.383,290.624 342.383,290.624"/>
                    </clipPath>
                    <g clip-path="url(#_clip17)">
                        <g transform="matrix(0.633438,0.560207,-0.516644,0.686848,287.684,-76.1259)">
                            <path d="M280.937,296.564C280.937,296.564 286.638,300.102 293.411,293.849C300.185,287.597 289.154,301.789 289.154,301.789L280.937,299.66L280.937,296.564Z" style="fill:rgb(170,170,170);"/>
                        </g>
                        <g transform="matrix(0.633438,0.560207,-0.516644,0.686848,287.684,-76.1259)">
                            <path d="M313.604,278.038C313.604,278.038 316.636,284.746 323.345,286.746C330.053,288.746 316.425,289.649 316.425,289.649L307.54,282.682L313.604,278.038Z" style="fill:rgb(170,170,170);"/>
                        </g>
                        <g transform="matrix(0.633438,0.560207,-0.516644,0.686848,287.684,-76.1259)">
                            <path d="M316.183,269.551C316.183,269.551 309.088,268.361 298.251,278.102C287.413,287.843 285.285,288.165 281.608,287.456C277.931,286.746 290.574,271.78 290.574,271.78C290.574,271.78 302.379,263.65 310.314,265.651C318.248,267.652 316.183,269.551 316.183,269.551Z" style="fill:rgb(249,249,249);"/>
                        </g>
                    </g>
                </g>
                <g transform="matrix(1.19933,-0.241334,0.222567,1.10607,373.029,258.895)">
                    <path d="M334.178,290.657C334.729,290.759 335.48,290.692 336.275,290.737C336.988,290.778 337.744,290.914 338.395,291.433C339.291,292.147 339.959,293.561 340.127,296.293C340.335,299.656 341.076,301.274 342.147,302.046C343.215,302.815 344.664,302.758 346.415,302.643C347.922,302.544 348.966,301.926 349.63,301.051C350.296,300.175 350.583,299.03 350.545,297.841C350.313,290.625 349.465,287.28 349.419,287.103C348.371,282.558 343.848,278.979 339.485,278.258C333.047,277.195 318.105,278.781 317.538,278.842C314.44,278.854 311.925,281.588 311.925,284.955C311.925,286.973 312.959,288.901 314.381,290.037C315.35,290.812 316.496,291.217 317.614,291.064C322.159,290.441 328.885,290.483 334.178,290.657ZM339.054,290.867C339.998,291.721 340.762,293.293 340.943,296.234C341.124,299.174 341.663,300.633 342.6,301.308C343.54,301.985 344.824,301.859 346.366,301.758C347.594,301.677 348.457,301.201 348.999,300.488C349.541,299.775 349.759,298.839 349.728,297.872C349.494,290.603 348.632,287.341 348.632,287.341C348.631,287.336 348.629,287.331 348.628,287.326C347.657,283.096 343.42,279.805 339.362,279.135C332.86,278.061 317.603,279.726 317.603,279.726C317.59,279.727 317.576,279.728 317.563,279.728C314.902,279.728 312.743,282.07 312.743,284.955C312.743,286.692 313.642,288.346 314.866,289.324C315.66,289.959 316.595,290.31 317.511,290.185C322.094,289.556 328.879,289.598 334.209,289.774C334.227,289.773 334.246,289.774 334.264,289.776C334.884,289.796 335.484,289.818 336.058,289.842C336.144,289.844 336.231,289.847 336.318,289.852L336.318,289.852C339.894,290.001 342.41,290.182 342.41,290.182C342.635,290.198 342.806,290.41 342.791,290.654C342.776,290.898 342.581,291.083 342.356,291.066C342.356,291.066 341.08,290.974 339.054,290.867Z"/>
                </g>
                <g transform="matrix(1.10808,0.21233,-0.21233,1.10808,557.927,126.726)">
                    <path d="M334.225,290.217C336.024,290.568 340.084,288.947 340.535,296.263C340.924,302.566 343.097,302.417 346.391,302.2C349.125,302.021 350.206,300.012 350.136,297.857C349.9,290.513 349.025,287.219 349.025,287.219C348.017,282.829 343.635,279.392 339.424,278.696C332.891,277.618 317.563,279.285 317.563,279.285C314.677,279.285 312.334,281.825 312.334,284.955C312.334,288.084 315.019,290.973 317.563,290.624C326.12,289.451 342.383,290.624 342.383,290.624" style="fill:rgb(224,224,224);"/>
                    <clipPath id="_clip18">
                        <path d="M334.225,290.217C336.024,290.568 340.084,288.947 340.535,296.263C340.924,302.566 343.097,302.417 346.391,302.2C349.125,302.021 350.206,300.012 350.136,297.857C349.9,290.513 349.025,287.219 349.025,287.219C348.017,282.829 343.635,279.392 339.424,278.696C332.891,277.618 317.563,279.285 317.563,279.285C314.677,279.285 312.334,281.825 312.334,284.955C312.334,288.084 315.019,290.973 317.563,290.624C326.12,289.451 342.383,290.624 342.383,290.624"/>
                    </clipPath>
                    <g clip-path="url(#_clip18)">
                        <g transform="matrix(0.633438,0.560207,-0.516644,0.686848,287.684,-76.1259)">
                            <path d="M280.937,296.564C280.937,296.564 286.638,300.102 293.411,293.849C300.185,287.597 289.154,301.789 289.154,301.789L280.937,299.66L280.937,296.564Z" style="fill:rgb(170,170,170);"/>
                        </g>
                        <g transform="matrix(0.633438,0.560207,-0.516644,0.686848,287.684,-76.1259)">
                            <path d="M313.604,278.038C313.604,278.038 316.636,284.746 323.345,286.746C330.053,288.746 316.425,289.649 316.425,289.649L307.54,282.682L313.604,278.038Z" style="fill:rgb(170,170,170);"/>
                        </g>
                        <g transform="matrix(0.633438,0.560207,-0.516644,0.686848,287.684,-76.1259)">
                            <path d="M316.183,269.551C316.183,269.551 309.088,268.361 298.251,278.102C287.413,287.843 285.285,288.165 281.608,287.456C277.931,286.746 290.574,271.78 290.574,271.78C290.574,271.78 302.379,263.65 310.314,265.651C318.248,267.652 316.183,269.551 316.183,269.551Z" style="fill:rgb(249,249,249);"/>
                        </g>
                    </g>
                </g>
                <g transform="matrix(1.10808,0.21233,-0.21233,1.10808,557.927,126.726)">
                    <path d="M334.17,290.657C334.723,290.758 335.474,290.692 336.271,290.737C336.973,290.777 337.72,290.911 338.361,291.422C339.259,292.137 339.924,293.553 340.093,296.29C340.3,299.648 341.045,301.265 342.114,302.036C343.192,302.813 344.652,302.759 346.42,302.643C347.633,302.563 348.549,302.15 349.211,301.54C350.198,300.631 350.625,299.269 350.579,297.843C350.347,290.623 349.499,287.28 349.455,287.111C348.405,282.557 343.867,278.981 339.496,278.259C333.065,277.197 318.158,278.775 317.535,278.842C314.429,278.856 311.891,281.58 311.891,284.955C311.891,286.969 312.927,288.892 314.346,290.027C315.328,290.811 316.49,291.219 317.623,291.063C322.164,290.441 328.882,290.482 334.17,290.657ZM339.078,290.869C340.026,291.719 340.796,293.29 340.977,296.236C341.159,299.182 341.695,300.641 342.633,301.317C343.07,301.632 343.59,301.762 344.176,301.809C344.83,301.861 345.562,301.811 346.362,301.758C347.336,301.694 348.078,301.378 348.61,300.888C349.413,300.149 349.731,299.031 349.693,297.871C349.459,290.596 348.596,287.332 348.596,287.332C348.595,287.327 348.594,287.323 348.593,287.318C347.623,283.097 343.401,279.802 339.351,279.134C332.855,278.061 317.611,279.725 317.611,279.725C317.595,279.727 317.579,279.728 317.563,279.728C314.911,279.728 312.777,282.079 312.777,284.955C312.777,286.695 313.674,288.354 314.9,289.334C315.682,289.959 316.6,290.309 317.503,290.185C322.087,289.557 328.874,289.598 334.207,289.774C334.228,289.773 334.25,289.774 334.271,289.776C334.886,289.796 335.482,289.818 336.052,289.842C336.141,289.844 336.231,289.847 336.321,289.852L336.328,289.853C339.902,290.001 342.415,290.182 342.415,290.182C342.659,290.2 342.843,290.412 342.825,290.656C342.808,290.9 342.595,291.084 342.351,291.066C342.351,291.066 341.086,290.975 339.078,290.869Z"/>
                </g>
                <g transform="matrix(1.20809,0.192789,-0.177797,1.11414,539.437,153.594)">
                    <path d="M334.225,290.217C336.024,290.568 340.084,288.947 340.535,296.263C340.924,302.566 343.097,302.417 346.391,302.2C349.125,302.021 350.206,300.012 350.136,297.857C349.9,290.513 349.025,287.219 349.025,287.219C348.017,282.829 343.635,279.392 339.424,278.696C332.891,277.618 317.563,279.285 317.563,279.285C314.677,279.285 312.334,281.825 312.334,284.955C312.334,288.084 315.019,290.973 317.563,290.624C326.12,289.451 342.383,290.624 342.383,290.624" style="fill:rgb(224,224,224);"/>
                    <clipPath id="_clip19">
                        <path d="M334.225,290.217C336.024,290.568 340.084,288.947 340.535,296.263C340.924,302.566 343.097,302.417 346.391,302.2C349.125,302.021 350.206,300.012 350.136,297.857C349.9,290.513 349.025,287.219 349.025,287.219C348.017,282.829 343.635,279.392 339.424,278.696C332.891,277.618 317.563,279.285 317.563,279.285C314.677,279.285 312.334,281.825 312.334,284.955C312.334,288.084 315.019,290.973 317.563,290.624C326.12,289.451 342.383,290.624 342.383,290.624"/>
                    </clipPath>
                    <g clip-path="url(#_clip19)">
                        <g transform="matrix(0.633438,0.560207,-0.516644,0.686848,287.684,-76.1259)">
                            <path d="M280.937,296.564C280.937,296.564 286.638,300.102 293.411,293.849C300.185,287.597 289.154,301.789 289.154,301.789L280.937,299.66L280.937,296.564Z" style="fill:rgb(170,170,170);"/>
                        </g>
                        <g transform="matrix(0.633438,0.560207,-0.516644,0.686848,287.684,-76.1259)">
                            <path d="M313.604,278.038C313.604,278.038 316.636,284.746 323.345,286.746C330.053,288.746 316.425,289.649 316.425,289.649L307.54,282.682L313.604,278.038Z" style="fill:rgb(170,170,170);"/>
                        </g>
                        <g transform="matrix(0.633438,0.560207,-0.516644,0.686848,287.684,-76.1259)">
                            <path d="M316.183,269.551C316.183,269.551 309.088,268.361 298.251,278.102C287.413,287.843 285.285,288.165 281.608,287.456C277.931,286.746 290.574,271.78 290.574,271.78C290.574,271.78 302.379,263.65 310.314,265.651C318.248,267.652 316.183,269.551 316.183,269.551Z" style="fill:rgb(249,249,249);"/>
                        </g>
                    </g>
                </g>
                <g transform="matrix(1.20809,0.192789,-0.177797,1.11414,539.437,153.594)">
                    <path d="M334.178,290.657C334.729,290.759 335.48,290.692 336.275,290.737C336.988,290.778 337.744,290.914 338.395,291.433C339.291,292.147 339.959,293.561 340.127,296.293C340.335,299.656 341.076,301.274 342.147,302.046C343.215,302.815 344.664,302.758 346.415,302.643C347.922,302.544 348.966,301.926 349.63,301.051C350.296,300.175 350.583,299.03 350.545,297.841C350.313,290.625 349.465,287.28 349.419,287.103C348.371,282.558 343.848,278.979 339.485,278.258C333.047,277.195 318.105,278.781 317.538,278.842C314.44,278.854 311.925,281.588 311.925,284.955C311.925,286.973 312.959,288.901 314.381,290.037C315.35,290.812 316.496,291.217 317.614,291.064C322.159,290.441 328.885,290.483 334.178,290.657ZM339.054,290.867C339.998,291.721 340.762,293.293 340.943,296.234C341.124,299.174 341.663,300.633 342.6,301.308C343.54,301.985 344.824,301.859 346.366,301.758C347.594,301.677 348.457,301.201 348.999,300.488C349.541,299.775 349.759,298.839 349.728,297.872C349.494,290.603 348.632,287.341 348.632,287.341C348.631,287.336 348.629,287.331 348.628,287.326C347.657,283.096 343.42,279.805 339.362,279.135C332.86,278.061 317.603,279.726 317.603,279.726C317.59,279.727 317.576,279.728 317.563,279.728C314.902,279.728 312.743,282.07 312.743,284.955C312.743,286.692 313.642,288.346 314.866,289.324C315.66,289.959 316.595,290.31 317.511,290.185C322.094,289.556 328.879,289.598 334.209,289.774C334.227,289.773 334.246,289.774 334.264,289.776C334.884,289.796 335.484,289.818 336.058,289.842C336.144,289.844 336.231,289.847 336.318,289.852L336.318,289.852C339.894,290.001 342.41,290.182 342.41,290.182C342.635,290.198 342.806,290.41 342.791,290.654C342.776,290.898 342.581,291.083 342.356,291.066C342.356,291.066 341.08,290.974 339.054,290.867Z"/>
                </g>
                <g transform="matrix(1.21748,-0.119907,0.110583,1.12281,479.277,271.955)">
                    <path d="M334.225,290.217C336.024,290.568 340.084,288.947 340.535,296.263C340.924,302.566 343.097,302.417 346.391,302.2C349.125,302.021 350.206,300.012 350.136,297.857C349.9,290.513 349.025,287.219 349.025,287.219C348.017,282.829 343.635,279.392 339.424,278.696C332.891,277.618 317.563,279.285 317.563,279.285C314.677,279.285 312.334,281.825 312.334,284.955C312.334,288.084 315.019,290.973 317.563,290.624C326.12,289.451 342.383,290.624 342.383,290.624" style="fill:rgb(224,224,224);"/>
                    <clipPath id="_clip20">
                        <path d="M334.225,290.217C336.024,290.568 340.084,288.947 340.535,296.263C340.924,302.566 343.097,302.417 346.391,302.2C349.125,302.021 350.206,300.012 350.136,297.857C349.9,290.513 349.025,287.219 349.025,287.219C348.017,282.829 343.635,279.392 339.424,278.696C332.891,277.618 317.563,279.285 317.563,279.285C314.677,279.285 312.334,281.825 312.334,284.955C312.334,288.084 315.019,290.973 317.563,290.624C326.12,289.451 342.383,290.624 342.383,290.624"/>
                    </clipPath>
                    <g clip-path="url(#_clip20)">
                        <g transform="matrix(0.633438,0.560207,-0.516644,0.686848,287.684,-76.1259)">
                            <path d="M280.937,296.564C280.937,296.564 286.638,300.102 293.411,293.849C300.185,287.597 289.154,301.789 289.154,301.789L280.937,299.66L280.937,296.564Z" style="fill:rgb(170,170,170);"/>
                        </g>
                        <g transform="matrix(0.633438,0.560207,-0.516644,0.686848,287.684,-76.1259)">
                            <path d="M313.604,278.038C313.604,278.038 316.636,284.746 323.345,286.746C330.053,288.746 316.425,289.649 316.425,289.649L307.54,282.682L313.604,278.038Z" style="fill:rgb(170,170,170);"/>
                        </g>
                        <g transform="matrix(0.633438,0.560207,-0.516644,0.686848,287.684,-76.1259)">
                            <path d="M316.183,269.551C316.183,269.551 309.088,268.361 298.251,278.102C287.413,287.843 285.285,288.165 281.608,287.456C277.931,286.746 290.574,271.78 290.574,271.78C290.574,271.78 302.379,263.65 310.314,265.651C318.248,267.652 316.183,269.551 316.183,269.551Z" style="fill:rgb(249,249,249);"/>
                        </g>
                    </g>
                </g>
                <g transform="matrix(1.21748,-0.119907,0.110583,1.12281,479.277,271.955)">
                    <path d="M334.178,290.657C334.729,290.759 335.48,290.692 336.275,290.737C336.988,290.778 337.744,290.914 338.395,291.433C339.291,292.147 339.959,293.561 340.127,296.293C340.335,299.656 341.076,301.274 342.147,302.046C343.215,302.815 344.664,302.758 346.415,302.643C347.922,302.544 348.966,301.926 349.63,301.051C350.296,300.175 350.583,299.03 350.545,297.841C350.313,290.625 349.465,287.28 349.419,287.103C348.371,282.558 343.848,278.979 339.485,278.258C333.047,277.195 318.105,278.781 317.538,278.842C314.44,278.854 311.925,281.588 311.925,284.955C311.925,286.973 312.959,288.901 314.381,290.037C315.35,290.812 316.496,291.217 317.614,291.064C322.159,290.441 328.885,290.483 334.178,290.657ZM339.054,290.867C339.998,291.721 340.762,293.293 340.943,296.234C341.124,299.174 341.663,300.633 342.6,301.308C343.54,301.985 344.824,301.859 346.366,301.758C347.594,301.677 348.457,301.201 348.999,300.488C349.541,299.775 349.759,298.839 349.728,297.872C349.494,290.603 348.632,287.341 348.632,287.341C348.631,287.336 348.629,287.331 348.628,287.326C347.657,283.096 343.42,279.805 339.362,279.135C332.86,278.061 317.603,279.726 317.603,279.726C317.59,279.727 317.576,279.728 317.563,279.728C314.902,279.728 312.743,282.07 312.743,284.955C312.743,286.692 313.642,288.346 314.866,289.324C315.66,289.959 316.595,290.31 317.511,290.185C322.094,289.556 328.879,289.598 334.209,289.774C334.227,289.773 334.246,289.774 334.264,289.776C334.884,289.796 335.484,289.818 336.058,289.842C336.144,289.844 336.231,289.847 336.318,289.852L336.318,289.852C339.894,290.001 342.41,290.182 342.41,290.182C342.635,290.198 342.806,290.41 342.791,290.654C342.776,290.898 342.581,291.083 342.356,291.066C342.356,291.066 341.08,290.974 339.054,290.867Z"/>
                </g>
                <g transform="matrix(1.14292,0.436321,-0.402392,1.05404,672.869,125.134)">
                    <path d="M334.225,290.217C336.024,290.568 340.084,288.947 340.535,296.263C340.924,302.566 343.097,302.417 346.391,302.2C349.125,302.021 350.206,300.012 350.136,297.857C349.9,290.513 349.025,287.219 349.025,287.219C348.017,282.829 343.635,279.392 339.424,278.696C332.891,277.618 317.563,279.285 317.563,279.285C314.677,279.285 312.334,281.825 312.334,284.955C312.334,288.084 315.019,290.973 317.563,290.624C326.12,289.451 342.383,290.624 342.383,290.624" style="fill:rgb(224,224,224);"/>
                    <clipPath id="_clip21">
                        <path d="M334.225,290.217C336.024,290.568 340.084,288.947 340.535,296.263C340.924,302.566 343.097,302.417 346.391,302.2C349.125,302.021 350.206,300.012 350.136,297.857C349.9,290.513 349.025,287.219 349.025,287.219C348.017,282.829 343.635,279.392 339.424,278.696C332.891,277.618 317.563,279.285 317.563,279.285C314.677,279.285 312.334,281.825 312.334,284.955C312.334,288.084 315.019,290.973 317.563,290.624C326.12,289.451 342.383,290.624 342.383,290.624"/>
                    </clipPath>
                    <g clip-path="url(#_clip21)">
                        <g transform="matrix(0.633438,0.560207,-0.516644,0.686848,287.684,-76.1259)">
                            <path d="M280.937,296.564C280.937,296.564 286.638,300.102 293.411,293.849C300.185,287.597 289.154,301.789 289.154,301.789L280.937,299.66L280.937,296.564Z" style="fill:rgb(170,170,170);"/>
                        </g>
                        <g transform="matrix(0.633438,0.560207,-0.516644,0.686848,287.684,-76.1259)">
                            <path d="M313.604,278.038C313.604,278.038 316.636,284.746 323.345,286.746C330.053,288.746 316.425,289.649 316.425,289.649L307.54,282.682L313.604,278.038Z" style="fill:rgb(170,170,170);"/>
                        </g>
                        <g transform="matrix(0.633438,0.560207,-0.516644,0.686848,287.684,-76.1259)">
                            <path d="M316.183,269.551C316.183,269.551 309.088,268.361 298.251,278.102C287.413,287.843 285.285,288.165 281.608,287.456C277.931,286.746 290.574,271.78 290.574,271.78C290.574,271.78 302.379,263.65 310.314,265.651C318.248,267.652 316.183,269.551 316.183,269.551Z" style="fill:rgb(249,249,249);"/>
                        </g>
                    </g>
                </g>
                <g transform="matrix(1.14292,0.436321,-0.402392,1.05404,672.869,125.134)">
                    <path d="M334.178,290.657C334.729,290.759 335.48,290.692 336.275,290.737C336.988,290.778 337.744,290.914 338.395,291.433C339.291,292.147 339.959,293.561 340.127,296.293C340.335,299.656 341.076,301.274 342.147,302.046C343.215,302.815 344.664,302.758 346.415,302.643C347.922,302.544 348.966,301.926 349.63,301.051C350.296,300.175 350.583,299.03 350.545,297.841C350.313,290.625 349.465,287.28 349.419,287.103C348.371,282.558 343.848,278.979 339.485,278.258C333.047,277.195 318.105,278.781 317.538,278.842C314.44,278.854 311.925,281.588 311.925,284.955C311.925,286.973 312.959,288.901 314.381,290.037C315.35,290.812 316.496,291.217 317.614,291.064C322.159,290.441 328.885,290.483 334.178,290.657ZM339.054,290.867C339.998,291.721 340.762,293.293 340.943,296.234C341.124,299.174 341.663,300.633 342.6,301.308C343.54,301.985 344.824,301.859 346.366,301.758C347.594,301.677 348.457,301.201 348.999,300.488C349.541,299.775 349.759,298.839 349.728,297.872C349.494,290.603 348.632,287.341 348.632,287.341C348.631,287.336 348.629,287.331 348.628,287.326C347.657,283.096 343.42,279.805 339.362,279.135C332.86,278.061 317.603,279.726 317.603,279.726C317.59,279.727 317.576,279.728 317.563,279.728C314.902,279.728 312.743,282.07 312.743,284.955C312.743,286.692 313.642,288.346 314.866,289.324C315.66,289.959 316.595,290.31 317.511,290.185C322.094,289.556 328.879,289.598 334.209,289.774C334.227,289.773 334.246,289.774 334.264,289.776C334.884,289.796 335.484,289.818 336.058,289.842C336.144,289.844 336.231,289.847 336.318,289.852L336.318,289.852C339.894,290.001 342.41,290.182 342.41,290.182C342.635,290.198 342.806,290.41 342.791,290.654C342.776,290.898 342.581,291.083 342.356,291.066C342.356,291.066 341.08,290.974 339.054,290.867Z"/>
                </g>
            </g>
        </g>
        <g transform="matrix(1,0,0,1,-17.1231,20.6518)">
            <g id="connecting-chain" transform="matrix(0.902819,0.430021,-0.430021,0.902819,312.963,-270.473)">
                <g id="key" transform="matrix(0.691202,1.00939,-0.930902,0.637453,695.865,67.7036)">
                    <path d="M333.997,290.624C335.797,290.976 346.123,293.292 349.025,287.219C351.254,282.552 345.111,278.683 339.424,278.696C331.252,278.716 317.563,279.285 317.563,279.285C314.677,279.285 312.334,281.825 312.334,284.955C312.334,288.084 314.677,290.624 317.563,290.624L342.383,290.624" style="fill:rgb(224,224,224);"/>
                    <clipPath id="_clip22">
                        <path d="M333.997,290.624C335.797,290.976 346.123,293.292 349.025,287.219C351.254,282.552 345.111,278.683 339.424,278.696C331.252,278.716 317.563,279.285 317.563,279.285C314.677,279.285 312.334,281.825 312.334,284.955C312.334,288.084 314.677,290.624 317.563,290.624L342.383,290.624"/>
                    </clipPath>
                    <g clip-path="url(#_clip22)">
                        <g transform="matrix(-0.601362,-0.600332,0.553649,-0.652068,340.551,658.676)">
                            <path d="M269.575,309.855C266.968,306.625 267.902,311.226 281.414,315.463C288.775,317.771 294.816,308.352 297.38,306.298C300.223,304.021 300.552,303.146 303.304,303.395C304.296,303.486 306.478,304.392 305.766,305.089C302.991,307.804 291.937,317.386 286.655,319.684C282.802,321.36 276.923,320.516 274.076,318.878C271.229,317.239 270.605,311.13 269.575,309.855Z" style="fill:rgb(170,170,170);"/>
                        </g>
                        <g transform="matrix(-0.601362,-0.600332,0.553649,-0.652068,340.551,658.676)">
                            <path d="M307.364,287.714C305.59,287.446 303.913,289.167 302.445,290.295C300.241,291.988 294.314,296.423 294.14,297.874C293.965,299.326 299.146,299.968 301.397,299.005C303.91,297.93 308.224,293.305 309.218,291.424C309.864,290.201 309.46,287.903 307.364,287.714Z" style="fill:rgb(249,249,249);"/>
                        </g>
                        <g transform="matrix(-0.399378,-0.398694,0.298495,-0.351557,371.269,510.733)">
                            <path d="M307.364,287.714C305.59,287.446 303.913,289.167 302.445,290.295C300.241,291.988 294.314,296.423 294.14,297.874C293.965,299.326 299.146,299.968 301.397,299.005C303.91,297.93 308.224,293.305 309.218,291.424C309.864,290.201 309.46,287.903 307.364,287.714Z" style="fill:rgb(249,249,249);"/>
                        </g>
                    </g>
                </g>
                <g transform="matrix(0.691202,1.00939,-0.930902,0.637453,695.865,67.7036)">
                    <path d="M333.96,291.067C335.108,291.293 339.271,292.194 343.06,291.58C345.708,291.152 348.166,289.98 349.388,287.422C350.369,285.368 349.89,283.452 348.545,281.896C346.648,279.701 342.954,278.245 339.423,278.253C331.329,278.273 317.828,278.83 317.551,278.842C314.447,278.847 311.925,281.584 311.925,284.955C311.925,288.328 314.451,291.067 317.563,291.067L333.96,291.067ZM342.78,290.729L342.939,290.704C345.322,290.318 347.562,289.316 348.662,287.015C349.464,285.336 349.048,283.774 347.948,282.502C346.178,280.454 342.719,279.132 339.424,279.14C331.258,279.159 317.578,279.728 317.578,279.728C317.573,279.728 317.568,279.728 317.563,279.728C314.902,279.728 312.743,282.07 312.743,284.955C312.743,287.839 314.902,290.181 317.563,290.181L342.383,290.181C342.609,290.181 342.792,290.38 342.792,290.624C342.792,290.66 342.788,290.695 342.78,290.729Z"/>
                </g>
            </g>
        </g>
    </g>
</svg>
