<?xml version="1.0" encoding="UTF-8" standalone="no"?>
<!DOCTYPE svg PUBLIC "-//W3C//DTD SVG 1.1//EN" "http://www.w3.org/Graphics/SVG/1.1/DTD/svg11.dtd">
<svg width="148px" height="275px" version="1.1" xmlns="http://www.w3.org/2000/svg" xmlns:xlink="http://www.w3.org/1999/xlink" xml:space="preserve" xmlns:serif="http://www.serif.com/" style="fill-rule:evenodd;clip-rule:evenodd;stroke-linejoin:round;stroke-miterlimit:2;">
    <g transform="matrix(1,0,0,1,-583.144,-573.951)">
        <g transform="matrix(1,0,0,1,-17.1231,20.6518)">
            <g transform="matrix(1,0,0,1,14.9026,4.06015)">
                <g transform="matrix(-0.698471,-1.00438,0.926276,-0.644156,668.975,1305.38)">
                    <path d="M334.225,290.217C336.024,290.568 340.084,288.947 340.535,296.263C340.924,302.566 343.097,302.417 346.391,302.2C349.125,302.021 350.206,300.012 350.136,297.857C349.9,290.513 349.025,287.219 349.025,287.219C348.017,282.829 343.635,279.392 339.424,278.696C332.891,277.618 317.563,279.285 317.563,279.285C314.677,279.285 312.334,281.825 312.334,284.955C312.334,288.084 315.019,290.973 317.563,290.624C326.12,289.451 342.383,290.624 342.383,290.624" style="fill:rgb(224,224,224);"/>
                    <clipPath id="_clip1">
                        <path d="M334.225,290.217C336.024,290.568 340.084,288.947 340.535,296.263C340.924,302.566 343.097,302.417 346.391,302.2C349.125,302.021 350.206,300.012 350.136,297.857C349.9,290.513 349.025,287.219 349.025,287.219C348.017,282.829 343.635,279.392 339.424,278.696C332.891,277.618 317.563,279.285 317.563,279.285C314.677,279.285 312.334,281.825 312.334,284.955C312.334,288.084 315.019,290.973 317.563,290.624C326.12,289.451 342.383,290.624 342.383,290.624"/>
                    </clipPath>
                    <g clip-path="url(#_clip1)">
                        <g transform="matrix(0.633438,0.560207,-0.516644,0.686848,287.684,-76.1259)">
                            <path d="M280.937,296.564C280.937,296.564 286.638,300.102 293.411,293.849C300.185,287.597 289.154,301.789 289.154,301.789L280.937,299.66L280.937,296.564Z" style="fill:rgb(249,249,249);"/>
                        </g>
                        <g transform="matrix(-0.740417,0.375537,-0.346334,-0.802848,699.739,595.119)">
                            <path d="M243.053,495.583C243.295,493.142 245.164,486.759 247.054,485.342C248.943,483.924 250.676,483.452 252.881,484.712C255.086,485.972 254.141,487.902 254.298,487.96C254.456,488.019 252.232,485.51 248.768,485.353C245.303,485.195 247.904,492.051 247.117,493.941C246.329,495.831 242.912,497.009 243.053,495.583Z" style="fill:rgb(249,249,249);"/>
                        </g>
                        <g transform="matrix(0.505331,0.446911,-0.541975,0.720524,330.962,-53.9851)">
                            <path d="M316.183,269.551C316.183,269.551 309.088,268.361 298.251,278.102C287.413,287.843 285.285,288.165 281.608,287.456C277.931,286.746 290.574,271.78 290.574,271.78C290.574,271.78 302.379,263.65 310.314,265.651C318.248,267.652 316.183,269.551 316.183,269.551Z" style="fill:rgb(170,170,170);"/>
                        </g>
                        <g transform="matrix(-0.740417,0.375537,-0.346334,-0.802848,705.265,572.108)">
                            <g transform="matrix(1,0,0,1,18.0475,-18.5424)">
                                <path d="M244.416,499.803C244.81,499.158 247.603,500.801 248.93,501.766C250.514,502.919 254.313,506.073 253.919,506.718C253.525,507.363 249.037,507.109 246.566,505.634C244.885,504.63 244.022,500.447 244.416,499.803Z" style="fill:rgb(249,249,249);"/>
                            </g>
                            <g transform="matrix(1,0,0,1,17.1231,-20.6518)">
                                <path d="M262.822,506.271C266.037,504.768 274.319,510.64 275.737,512.006C277.154,513.373 277.941,514.318 276.367,515.736C274.792,517.153 266.13,514.791 263.925,512.271C261.72,509.751 260.226,507.486 262.822,506.271Z" style="fill:rgb(249,249,249);"/>
                            </g>
                        </g>
                    </g>
                </g>
                <g transform="matrix(-0.698471,-1.00438,0.926276,-0.644156,668.975,1305.38)">
                    <path d="M334.178,290.657C334.729,290.759 335.48,290.692 336.275,290.737C336.988,290.778 337.744,290.914 338.395,291.433C339.291,292.147 339.959,293.561 340.127,296.293C340.335,299.656 341.076,301.274 342.147,302.046C343.215,302.815 344.664,302.758 346.415,302.643C347.922,302.544 348.966,301.926 349.63,301.051C350.296,300.175 350.583,299.03 350.545,297.841C350.313,290.625 349.465,287.28 349.419,287.103C348.371,282.558 343.848,278.979 339.485,278.258C333.047,277.195 318.105,278.781 317.538,278.842C314.44,278.854 311.925,281.588 311.925,284.955C311.925,286.973 312.959,288.901 314.381,290.037C315.35,290.812 316.496,291.217 317.614,291.064C322.159,290.441 328.885,290.483 334.178,290.657ZM339.054,290.867C339.998,291.721 340.762,293.293 340.943,296.234C341.124,299.174 341.663,300.633 342.6,301.308C343.54,301.985 344.824,301.859 346.366,301.758C347.594,301.677 348.457,301.201 348.999,300.488C349.541,299.775 349.759,298.839 349.728,297.872C349.494,290.603 348.632,287.341 348.632,287.341C348.631,287.336 348.629,287.331 348.628,287.326C347.657,283.096 343.42,279.805 339.362,279.135C332.86,278.061 317.603,279.726 317.603,279.726C317.59,279.727 317.576,279.728 317.563,279.728C314.902,279.728 312.743,282.07 312.743,284.955C312.743,286.692 313.642,288.346 314.866,289.324C315.66,289.959 316.595,290.31 317.511,290.185C322.094,289.556 328.879,289.598 334.209,289.774C334.227,289.773 334.246,289.774 334.264,289.776C334.884,289.796 335.484,289.818 336.058,289.842C336.144,289.844 336.231,289.847 336.318,289.852L336.318,289.852C339.894,290.001 342.41,290.182 342.41,290.182C342.635,290.198 342.806,290.41 342.791,290.654C342.776,290.898 342.581,291.083 342.356,291.066C342.356,291.066 341.08,290.974 339.054,290.867Z"/>
                </g>
                <g transform="matrix(-0.851829,-0.878081,0.8098,-0.785589,744.905,1272.72)">
                    <path d="M334.225,290.217C336.024,290.568 340.084,288.947 340.535,296.263C340.924,302.566 343.097,302.417 346.391,302.2C349.125,302.021 350.206,300.012 350.136,297.857C349.9,290.513 349.025,287.219 349.025,287.219C348.017,282.829 343.635,279.392 339.424,278.696C332.891,277.618 317.563,279.285 317.563,279.285C314.677,279.285 312.334,281.825 312.334,284.955C312.334,288.084 315.019,290.973 317.563,290.624C326.12,289.451 342.383,290.624 342.383,290.624" style="fill:rgb(224,224,224);"/>
                    <clipPath id="_clip2">
                        <path d="M334.225,290.217C336.024,290.568 340.084,288.947 340.535,296.263C340.924,302.566 343.097,302.417 346.391,302.2C349.125,302.021 350.206,300.012 350.136,297.857C349.9,290.513 349.025,287.219 349.025,287.219C348.017,282.829 343.635,279.392 339.424,278.696C332.891,277.618 317.563,279.285 317.563,279.285C314.677,279.285 312.334,281.825 312.334,284.955C312.334,288.084 315.019,290.973 317.563,290.624C326.12,289.451 342.383,290.624 342.383,290.624"/>
                    </clipPath>
                    <g clip-path="url(#_clip2)">
                        <g transform="matrix(0.633438,0.560207,-0.516644,0.686848,287.684,-76.1259)">
                            <path d="M280.937,296.564C280.937,296.564 286.638,300.102 293.411,293.849C300.185,287.597 289.154,301.789 289.154,301.789L280.937,299.66L280.937,296.564Z" style="fill:rgb(249,249,249);"/>
                        </g>
                        <g transform="matrix(-0.740417,0.375537,-0.346334,-0.802848,699.739,595.119)">
                            <path d="M243.053,495.583C243.295,493.142 245.164,486.759 247.054,485.342C248.943,483.924 250.676,483.452 252.881,484.712C255.086,485.972 254.141,487.902 254.298,487.96C254.456,488.019 252.232,485.51 248.768,485.353C245.303,485.195 247.904,492.051 247.117,493.941C246.329,495.831 242.912,497.009 243.053,495.583Z" style="fill:rgb(249,249,249);"/>
                        </g>
                        <g transform="matrix(0.505331,0.446911,-0.541975,0.720524,330.962,-53.9851)">
                            <path d="M316.183,269.551C316.183,269.551 309.088,268.361 298.251,278.102C287.413,287.843 285.285,288.165 281.608,287.456C277.931,286.746 290.574,271.78 290.574,271.78C290.574,271.78 302.379,263.65 310.314,265.651C318.248,267.652 316.183,269.551 316.183,269.551Z" style="fill:rgb(170,170,170);"/>
                        </g>
                        <g transform="matrix(-0.740417,0.375537,-0.346334,-0.802848,705.265,572.108)">
                            <g transform="matrix(1,0,0,1,18.0475,-18.5424)">
                                <path d="M244.416,499.803C244.81,499.158 247.603,500.801 248.93,501.766C250.514,502.919 254.313,506.073 253.919,506.718C253.525,507.363 249.037,507.109 246.566,505.634C244.885,504.63 244.022,500.447 244.416,499.803Z" style="fill:rgb(249,249,249);"/>
                            </g>
                            <g transform="matrix(1,0,0,1,17.1231,-20.6518)">
                                <path d="M262.822,506.271C266.037,504.768 274.319,510.64 275.737,512.006C277.154,513.373 277.941,514.318 276.367,515.736C274.792,517.153 266.13,514.791 263.925,512.271C261.72,509.751 260.226,507.486 262.822,506.271Z" style="fill:rgb(249,249,249);"/>
                            </g>
                        </g>
                    </g>
                </g>
                <g transform="matrix(-0.851829,-0.878081,0.8098,-0.785589,744.905,1272.72)">
                    <path d="M334.178,290.657C334.729,290.759 335.48,290.692 336.275,290.737C336.988,290.778 337.744,290.914 338.395,291.433C339.291,292.147 339.959,293.561 340.127,296.293C340.335,299.656 341.076,301.274 342.147,302.046C343.215,302.815 344.664,302.758 346.415,302.643C347.922,302.544 348.966,301.926 349.63,301.051C350.296,300.175 350.583,299.03 350.545,297.841C350.313,290.625 349.465,287.28 349.419,287.103C348.371,282.558 343.848,278.979 339.485,278.258C333.047,277.195 318.105,278.781 317.538,278.842C314.44,278.854 311.925,281.588 311.925,284.955C311.925,286.973 312.959,288.901 314.381,290.037C315.35,290.812 316.496,291.217 317.614,291.064C322.159,290.441 328.885,290.483 334.178,290.657ZM339.054,290.867C339.998,291.721 340.762,293.293 340.943,296.234C341.124,299.174 341.663,300.633 342.6,301.308C343.54,301.985 344.824,301.859 346.366,301.758C347.594,301.677 348.457,301.201 348.999,300.488C349.541,299.775 349.759,298.839 349.728,297.872C349.494,290.603 348.632,287.341 348.632,287.341C348.631,287.336 348.629,287.331 348.628,287.326C347.657,283.096 343.42,279.805 339.362,279.135C332.86,278.061 317.603,279.726 317.603,279.726C317.59,279.727 317.576,279.728 317.563,279.728C314.902,279.728 312.743,282.07 312.743,284.955C312.743,286.692 313.642,288.346 314.866,289.324C315.66,289.959 316.595,290.31 317.511,290.185C322.094,289.556 328.879,289.598 334.209,289.774C334.227,289.773 334.246,289.774 334.264,289.776C334.884,289.796 335.484,289.818 336.058,289.842C336.144,289.844 336.231,289.847 336.318,289.852L336.318,289.852C339.894,290.001 342.41,290.182 342.41,290.182C342.635,290.198 342.806,290.41 342.791,290.654C342.776,290.898 342.581,291.083 342.356,291.066C342.356,291.066 341.08,290.974 339.054,290.867Z"/>
                </g>
                <g transform="matrix(-1.00001,-0.704711,0.649911,-0.922248,827.214,1225.83)">
                    <path d="M334.225,290.217C336.024,290.568 340.084,288.947 340.535,296.263C340.924,302.566 343.097,302.417 346.391,302.2C349.125,302.021 350.206,300.012 350.136,297.857C349.9,290.513 349.025,287.219 349.025,287.219C348.017,282.829 343.635,279.392 339.424,278.696C332.891,277.618 317.563,279.285 317.563,279.285C314.677,279.285 312.334,281.825 312.334,284.955C312.334,288.084 315.019,290.973 317.563,290.624C326.12,289.451 342.383,290.624 342.383,290.624" style="fill:rgb(224,224,224);"/>
                    <clipPath id="_clip3">
                        <path d="M334.225,290.217C336.024,290.568 340.084,288.947 340.535,296.263C340.924,302.566 343.097,302.417 346.391,302.2C349.125,302.021 350.206,300.012 350.136,297.857C349.9,290.513 349.025,287.219 349.025,287.219C348.017,282.829 343.635,279.392 339.424,278.696C332.891,277.618 317.563,279.285 317.563,279.285C314.677,279.285 312.334,281.825 312.334,284.955C312.334,288.084 315.019,290.973 317.563,290.624C326.12,289.451 342.383,290.624 342.383,290.624"/>
                    </clipPath>
                    <g clip-path="url(#_clip3)">
                        <g transform="matrix(0.633438,0.560207,-0.516644,0.686848,287.684,-76.1259)">
                            <path d="M280.937,296.564C280.937,296.564 286.638,300.102 293.411,293.849C300.185,287.597 289.154,301.789 289.154,301.789L280.937,299.66L280.937,296.564Z" style="fill:rgb(249,249,249);"/>
                        </g>
                        <g transform="matrix(-0.740417,0.375537,-0.346334,-0.802848,699.739,595.119)">
                            <path d="M243.053,495.583C243.295,493.142 245.164,486.759 247.054,485.342C248.943,483.924 250.676,483.452 252.881,484.712C255.086,485.972 254.141,487.902 254.298,487.96C254.456,488.019 252.232,485.51 248.768,485.353C245.303,485.195 247.904,492.051 247.117,493.941C246.329,495.831 242.912,497.009 243.053,495.583Z" style="fill:rgb(249,249,249);"/>
                        </g>
                        <g transform="matrix(0.505331,0.446911,-0.541975,0.720524,330.962,-53.9851)">
                            <path d="M316.183,269.551C316.183,269.551 309.088,268.361 298.251,278.102C287.413,287.843 285.285,288.165 281.608,287.456C277.931,286.746 290.574,271.78 290.574,271.78C290.574,271.78 302.379,263.65 310.314,265.651C318.248,267.652 316.183,269.551 316.183,269.551Z" style="fill:rgb(170,170,170);"/>
                        </g>
                        <g transform="matrix(-0.740417,0.375537,-0.346334,-0.802848,705.265,572.108)">
                            <g transform="matrix(1,0,0,1,18.0475,-18.5424)">
                                <path d="M244.416,499.803C244.81,499.158 247.603,500.801 248.93,501.766C250.514,502.919 254.313,506.073 253.919,506.718C253.525,507.363 249.037,507.109 246.566,505.634C244.885,504.63 244.022,500.447 244.416,499.803Z" style="fill:rgb(249,249,249);"/>
                            </g>
                            <g transform="matrix(1,0,0,1,17.1231,-20.6518)">
                                <path d="M262.822,506.271C266.037,504.768 274.319,510.64 275.737,512.006C277.154,513.373 277.941,514.318 276.367,515.736C274.792,517.153 266.13,514.791 263.925,512.271C261.72,509.751 260.226,507.486 262.822,506.271Z" style="fill:rgb(249,249,249);"/>
                            </g>
                        </g>
                    </g>
                </g>
                <g transform="matrix(-1.00001,-0.704711,0.649911,-0.922248,827.214,1225.83)">
                    <path d="M334.178,290.657C334.729,290.759 335.48,290.692 336.275,290.737C336.988,290.778 337.744,290.914 338.395,291.433C339.291,292.147 339.959,293.561 340.127,296.293C340.335,299.656 341.076,301.274 342.147,302.046C343.215,302.815 344.664,302.758 346.415,302.643C347.922,302.544 348.966,301.926 349.63,301.051C350.296,300.175 350.583,299.03 350.545,297.841C350.313,290.625 349.465,287.28 349.419,287.103C348.371,282.558 343.848,278.979 339.485,278.258C333.047,277.195 318.105,278.781 317.538,278.842C314.44,278.854 311.925,281.588 311.925,284.955C311.925,286.973 312.959,288.901 314.381,290.037C315.35,290.812 316.496,291.217 317.614,291.064C322.159,290.441 328.885,290.483 334.178,290.657ZM339.054,290.867C339.998,291.721 340.762,293.293 340.943,296.234C341.124,299.174 341.663,300.633 342.6,301.308C343.54,301.985 344.824,301.859 346.366,301.758C347.594,301.677 348.457,301.201 348.999,300.488C349.541,299.775 349.759,298.839 349.728,297.872C349.494,290.603 348.632,287.341 348.632,287.341C348.631,287.336 348.629,287.331 348.628,287.326C347.657,283.096 343.42,279.805 339.362,279.135C332.86,278.061 317.603,279.726 317.603,279.726C317.59,279.727 317.576,279.728 317.563,279.728C314.902,279.728 312.743,282.07 312.743,284.955C312.743,286.692 313.642,288.346 314.866,289.324C315.66,289.959 316.595,290.31 317.511,290.185C322.094,289.556 328.879,289.598 334.209,289.774C334.227,289.773 334.246,289.774 334.264,289.776C334.884,289.796 335.484,289.818 336.058,289.842C336.144,289.844 336.231,289.847 336.318,289.852L336.318,289.852C339.894,290.001 342.41,290.182 342.41,290.182C342.635,290.198 342.806,290.41 342.791,290.654C342.776,290.898 342.581,291.083 342.356,291.066C342.356,291.066 341.08,290.974 339.054,290.867Z"/>
                </g>
                <g transform="matrix(-1.1343,-0.458262,0.422627,-1.04609,919.762,1151.8)">
                    <path d="M334.225,290.217C336.024,290.568 340.084,288.947 340.535,296.263C340.924,302.566 343.097,302.417 346.391,302.2C349.125,302.021 350.206,300.012 350.136,297.857C349.9,290.513 349.025,287.219 349.025,287.219C348.017,282.829 343.635,279.392 339.424,278.696C332.891,277.618 317.563,279.285 317.563,279.285C314.677,279.285 312.334,281.825 312.334,284.955C312.334,288.084 315.019,290.973 317.563,290.624C326.12,289.451 342.383,290.624 342.383,290.624" style="fill:rgb(224,224,224);"/>
                    <clipPath id="_clip4">
                        <path d="M334.225,290.217C336.024,290.568 340.084,288.947 340.535,296.263C340.924,302.566 343.097,302.417 346.391,302.2C349.125,302.021 350.206,300.012 350.136,297.857C349.9,290.513 349.025,287.219 349.025,287.219C348.017,282.829 343.635,279.392 339.424,278.696C332.891,277.618 317.563,279.285 317.563,279.285C314.677,279.285 312.334,281.825 312.334,284.955C312.334,288.084 315.019,290.973 317.563,290.624C326.12,289.451 342.383,290.624 342.383,290.624"/>
                    </clipPath>
                    <g clip-path="url(#_clip4)">
                        <g transform="matrix(0.633438,0.560207,-0.516644,0.686848,287.684,-76.1259)">
                            <path d="M280.937,296.564C280.937,296.564 286.638,300.102 293.411,293.849C300.185,287.597 289.154,301.789 289.154,301.789L280.937,299.66L280.937,296.564Z" style="fill:rgb(249,249,249);"/>
                        </g>
                        <g transform="matrix(-0.740417,0.375537,-0.346334,-0.802848,699.739,595.119)">
                            <path d="M243.053,495.583C243.295,493.142 245.164,486.759 247.054,485.342C248.943,483.924 250.676,483.452 252.881,484.712C255.086,485.972 254.141,487.902 254.298,487.96C254.456,488.019 252.232,485.51 248.768,485.353C245.303,485.195 247.904,492.051 247.117,493.941C246.329,495.831 242.912,497.009 243.053,495.583Z" style="fill:rgb(249,249,249);"/>
                        </g>
                        <g transform="matrix(0.505331,0.446911,-0.541975,0.720524,330.962,-53.9851)">
                            <path d="M316.183,269.551C316.183,269.551 309.088,268.361 298.251,278.102C287.413,287.843 285.285,288.165 281.608,287.456C277.931,286.746 290.574,271.78 290.574,271.78C290.574,271.78 302.379,263.65 310.314,265.651C318.248,267.652 316.183,269.551 316.183,269.551Z" style="fill:rgb(170,170,170);"/>
                        </g>
                        <g transform="matrix(-0.740417,0.375537,-0.346334,-0.802848,705.265,572.108)">
                            <g transform="matrix(1,0,0,1,18.0475,-18.5424)">
                                <path d="M244.416,499.803C244.81,499.158 247.603,500.801 248.93,501.766C250.514,502.919 254.313,506.073 253.919,506.718C253.525,507.363 249.037,507.109 246.566,505.634C244.885,504.63 244.022,500.447 244.416,499.803Z" style="fill:rgb(249,249,249);"/>
                            </g>
                            <g transform="matrix(1,0,0,1,17.1231,-20.6518)">
                                <path d="M262.822,506.271C266.037,504.768 274.319,510.64 275.737,512.006C277.154,513.373 277.941,514.318 276.367,515.736C274.792,517.153 266.13,514.791 263.925,512.271C261.72,509.751 260.226,507.486 262.822,506.271Z" style="fill:rgb(249,249,249);"/>
                            </g>
                        </g>
                    </g>
                </g>
                <g transform="matrix(-1.1343,-0.458262,0.422627,-1.04609,919.762,1151.8)">
                    <path d="M334.178,290.657C334.729,290.759 335.48,290.692 336.275,290.737C336.988,290.778 337.744,290.914 338.395,291.433C339.291,292.147 339.959,293.561 340.127,296.293C340.335,299.656 341.076,301.274 342.147,302.046C343.215,302.815 344.664,302.758 346.415,302.643C347.922,302.544 348.966,301.926 349.63,301.051C350.296,300.175 350.583,299.03 350.545,297.841C350.313,290.625 349.465,287.28 349.419,287.103C348.371,282.558 343.848,278.979 339.485,278.258C333.047,277.195 318.105,278.781 317.538,278.842C314.44,278.854 311.925,281.588 311.925,284.955C311.925,286.973 312.959,288.901 314.381,290.037C315.35,290.812 316.496,291.217 317.614,291.064C322.159,290.441 328.885,290.483 334.178,290.657ZM339.054,290.867C339.998,291.721 340.762,293.293 340.943,296.234C341.124,299.174 341.663,300.633 342.6,301.308C343.54,301.985 344.824,301.859 346.366,301.758C347.594,301.677 348.457,301.201 348.999,300.488C349.541,299.775 349.759,298.839 349.728,297.872C349.494,290.603 348.632,287.341 348.632,287.341C348.631,287.336 348.629,287.331 348.628,287.326C347.657,283.096 343.42,279.805 339.362,279.135C332.86,278.061 317.603,279.726 317.603,279.726C317.59,279.727 317.576,279.728 317.563,279.728C314.902,279.728 312.743,282.07 312.743,284.955C312.743,286.692 313.642,288.346 314.866,289.324C315.66,289.959 316.595,290.31 317.511,290.185C322.094,289.556 328.879,289.598 334.209,289.774C334.227,289.773 334.246,289.774 334.264,289.776C334.884,289.796 335.484,289.818 336.058,289.842C336.144,289.844 336.231,289.847 336.318,289.852L336.318,289.852C339.894,290.001 342.41,290.182 342.41,290.182C342.635,290.198 342.806,290.41 342.791,290.654C342.776,290.898 342.581,291.083 342.356,291.066C342.356,291.066 341.08,290.974 339.054,290.867Z"/>
                </g>
                <g transform="matrix(-1.10814,-0.518337,0.47803,-1.02196,870.825,1137.7)">
                    <path d="M334.225,290.217C336.024,290.568 340.084,288.947 340.535,296.263C340.924,302.566 343.097,302.417 346.391,302.2C349.125,302.021 350.206,300.012 350.136,297.857C349.9,290.513 349.025,287.219 349.025,287.219C348.017,282.829 343.635,279.392 339.424,278.696C332.891,277.618 317.563,279.285 317.563,279.285C314.677,279.285 312.334,281.825 312.334,284.955C312.334,288.084 315.019,290.973 317.563,290.624C326.12,289.451 342.383,290.624 342.383,290.624" style="fill:rgb(224,224,224);"/>
                    <clipPath id="_clip5">
                        <path d="M334.225,290.217C336.024,290.568 340.084,288.947 340.535,296.263C340.924,302.566 343.097,302.417 346.391,302.2C349.125,302.021 350.206,300.012 350.136,297.857C349.9,290.513 349.025,287.219 349.025,287.219C348.017,282.829 343.635,279.392 339.424,278.696C332.891,277.618 317.563,279.285 317.563,279.285C314.677,279.285 312.334,281.825 312.334,284.955C312.334,288.084 315.019,290.973 317.563,290.624C326.12,289.451 342.383,290.624 342.383,290.624"/>
                    </clipPath>
                    <g clip-path="url(#_clip5)">
                        <g transform="matrix(0.633438,0.560207,-0.516644,0.686848,287.684,-76.1259)">
                            <path d="M280.937,296.564C280.937,296.564 286.638,300.102 293.411,293.849C300.185,287.597 289.154,301.789 289.154,301.789L280.937,299.66L280.937,296.564Z" style="fill:rgb(249,249,249);"/>
                        </g>
                        <g transform="matrix(-0.740417,0.375537,-0.346334,-0.802848,699.739,595.119)">
                            <path d="M243.053,495.583C243.295,493.142 245.164,486.759 247.054,485.342C248.943,483.924 250.676,483.452 252.881,484.712C255.086,485.972 254.141,487.902 254.298,487.96C254.456,488.019 252.232,485.51 248.768,485.353C245.303,485.195 247.904,492.051 247.117,493.941C246.329,495.831 242.912,497.009 243.053,495.583Z" style="fill:rgb(249,249,249);"/>
                        </g>
                        <g transform="matrix(0.505331,0.446911,-0.541975,0.720524,330.962,-53.9851)">
                            <path d="M316.183,269.551C316.183,269.551 309.088,268.361 298.251,278.102C287.413,287.843 285.285,288.165 281.608,287.456C277.931,286.746 290.574,271.78 290.574,271.78C290.574,271.78 302.379,263.65 310.314,265.651C318.248,267.652 316.183,269.551 316.183,269.551Z" style="fill:rgb(170,170,170);"/>
                        </g>
                        <g transform="matrix(-0.740417,0.375537,-0.346334,-0.802848,705.265,572.108)">
                            <g transform="matrix(1,0,0,1,18.0475,-18.5424)">
                                <path d="M244.416,499.803C244.81,499.158 247.603,500.801 248.93,501.766C250.514,502.919 254.313,506.073 253.919,506.718C253.525,507.363 249.037,507.109 246.566,505.634C244.885,504.63 244.022,500.447 244.416,499.803Z" style="fill:rgb(249,249,249);"/>
                            </g>
                            <g transform="matrix(1,0,0,1,17.1231,-20.6518)">
                                <path d="M262.822,506.271C266.037,504.768 274.319,510.64 275.737,512.006C277.154,513.373 277.941,514.318 276.367,515.736C274.792,517.153 266.13,514.791 263.925,512.271C261.72,509.751 260.226,507.486 262.822,506.271Z" style="fill:rgb(249,249,249);"/>
                            </g>
                        </g>
                    </g>
                </g>
                <g transform="matrix(-1.10814,-0.518337,0.47803,-1.02196,870.825,1137.7)">
                    <path d="M334.178,290.657C334.729,290.759 335.48,290.692 336.275,290.737C336.988,290.778 337.744,290.914 338.395,291.433C339.291,292.147 339.959,293.561 340.127,296.293C340.335,299.656 341.076,301.274 342.147,302.046C343.215,302.815 344.664,302.758 346.415,302.643C347.922,302.544 348.966,301.926 349.63,301.051C350.296,300.175 350.583,299.03 350.545,297.841C350.313,290.625 349.465,287.28 349.419,287.103C348.371,282.558 343.848,278.979 339.485,278.258C333.047,277.195 318.105,278.781 317.538,278.842C314.44,278.854 311.925,281.588 311.925,284.955C311.925,286.973 312.959,288.901 314.381,290.037C315.35,290.812 316.496,291.217 317.614,291.064C322.159,290.441 328.885,290.483 334.178,290.657ZM339.054,290.867C339.998,291.721 340.762,293.293 340.943,296.234C341.124,299.174 341.663,300.633 342.6,301.308C343.54,301.985 344.824,301.859 346.366,301.758C347.594,301.677 348.457,301.201 348.999,300.488C349.541,299.775 349.759,298.839 349.728,297.872C349.494,290.603 348.632,287.341 348.632,287.341C348.631,287.336 348.629,287.331 348.628,287.326C347.657,283.096 343.42,279.805 339.362,279.135C332.86,278.061 317.603,279.726 317.603,279.726C317.59,279.727 317.576,279.728 317.563,279.728C314.902,279.728 312.743,282.07 312.743,284.955C312.743,286.692 313.642,288.346 314.866,289.324C315.66,289.959 316.595,290.31 317.511,290.185C322.094,289.556 328.879,289.598 334.209,289.774C334.227,289.773 334.246,289.774 334.264,289.776C334.884,289.796 335.484,289.818 336.058,289.842C336.144,289.844 336.231,289.847 336.318,289.852L336.318,289.852C339.894,290.001 342.41,290.182 342.41,290.182C342.635,290.198 342.806,290.41 342.791,290.654C342.776,290.898 342.581,291.083 342.356,291.066C342.356,291.066 341.08,290.974 339.054,290.867Z"/>
                </g>
                <g transform="matrix(-1.03927,-0.645413,0.595224,-0.958453,791.035,1135.3)">
                    <path d="M334.225,290.217C336.024,290.568 340.084,288.947 340.535,296.263C340.924,302.566 343.097,302.417 346.391,302.2C349.125,302.021 350.206,300.012 350.136,297.857C349.9,290.513 349.025,287.219 349.025,287.219C348.017,282.829 343.635,279.392 339.424,278.696C332.891,277.618 317.563,279.285 317.563,279.285C314.677,279.285 312.334,281.825 312.334,284.955C312.334,288.084 315.019,290.973 317.563,290.624C326.12,289.451 342.383,290.624 342.383,290.624" style="fill:rgb(224,224,224);"/>
                    <clipPath id="_clip6">
                        <path d="M334.225,290.217C336.024,290.568 340.084,288.947 340.535,296.263C340.924,302.566 343.097,302.417 346.391,302.2C349.125,302.021 350.206,300.012 350.136,297.857C349.9,290.513 349.025,287.219 349.025,287.219C348.017,282.829 343.635,279.392 339.424,278.696C332.891,277.618 317.563,279.285 317.563,279.285C314.677,279.285 312.334,281.825 312.334,284.955C312.334,288.084 315.019,290.973 317.563,290.624C326.12,289.451 342.383,290.624 342.383,290.624"/>
                    </clipPath>
                    <g clip-path="url(#_clip6)">
                        <g transform="matrix(0.633438,0.560207,-0.516644,0.686848,287.684,-76.1259)">
                            <path d="M280.937,296.564C280.937,296.564 286.638,300.102 293.411,293.849C300.185,287.597 289.154,301.789 289.154,301.789L280.937,299.66L280.937,296.564Z" style="fill:rgb(170,170,170);"/>
                        </g>
                        <g transform="matrix(0.633438,0.560207,-0.516644,0.686848,287.684,-76.1259)">
                            <path d="M313.604,278.038C313.604,278.038 316.636,284.746 323.345,286.746C330.053,288.746 316.425,289.649 316.425,289.649L307.54,282.682L313.604,278.038Z" style="fill:rgb(170,170,170);"/>
                        </g>
                        <g transform="matrix(0.633438,0.560207,-0.516644,0.686848,287.684,-76.1259)">
                            <path d="M316.183,269.551C316.183,269.551 309.088,268.361 298.251,278.102C287.413,287.843 285.285,288.165 281.608,287.456C277.931,286.746 290.574,271.78 290.574,271.78C290.574,271.78 302.379,263.65 310.314,265.651C318.248,267.652 316.183,269.551 316.183,269.551Z" style="fill:rgb(249,249,249);"/>
                        </g>
                    </g>
                </g>
                <g transform="matrix(-1.03927,-0.645413,0.595224,-0.958453,791.035,1135.3)">
                    <path d="M334.178,290.657C334.729,290.759 335.48,290.692 336.275,290.737C336.988,290.778 337.744,290.914 338.395,291.433C339.291,292.147 339.959,293.561 340.127,296.293C340.335,299.656 341.076,301.274 342.147,302.046C343.215,302.815 344.664,302.758 346.415,302.643C347.922,302.544 348.966,301.926 349.63,301.051C350.296,300.175 350.583,299.03 350.545,297.841C350.313,290.625 349.465,287.28 349.419,287.103C348.371,282.558 343.848,278.979 339.485,278.258C333.047,277.195 318.105,278.781 317.538,278.842C314.44,278.854 311.925,281.588 311.925,284.955C311.925,286.973 312.959,288.901 314.381,290.037C315.35,290.812 316.496,291.217 317.614,291.064C322.159,290.441 328.885,290.483 334.178,290.657ZM339.054,290.867C339.998,291.721 340.762,293.293 340.943,296.234C341.124,299.174 341.663,300.633 342.6,301.308C343.54,301.985 344.824,301.859 346.366,301.758C347.594,301.677 348.457,301.201 348.999,300.488C349.541,299.775 349.759,298.839 349.728,297.872C349.494,290.603 348.632,287.341 348.632,287.341C348.631,287.336 348.629,287.331 348.628,287.326C347.657,283.096 343.42,279.805 339.362,279.135C332.86,278.061 317.603,279.726 317.603,279.726C317.59,279.727 317.576,279.728 317.563,279.728C314.902,279.728 312.743,282.07 312.743,284.955C312.743,286.692 313.642,288.346 314.866,289.324C315.66,289.959 316.595,290.31 317.511,290.185C322.094,289.556 328.879,289.598 334.209,289.774C334.227,289.773 334.246,289.774 334.264,289.776C334.884,289.796 335.484,289.818 336.058,289.842C336.144,289.844 336.231,289.847 336.318,289.852L336.318,289.852C339.894,290.001 342.41,290.182 342.41,290.182C342.635,290.198 342.806,290.41 342.791,290.654C342.776,290.898 342.581,291.083 342.356,291.066C342.356,291.066 341.08,290.974 339.054,290.867Z"/>
                </g>
                <g transform="matrix(-0.774468,-0.947015,0.873373,-0.714244,607.469,1132.46)">
                    <path d="M334.225,290.217C336.024,290.568 340.084,288.947 340.535,296.263C340.924,302.566 343.097,302.417 346.391,302.2C349.125,302.021 350.206,300.012 350.136,297.857C349.9,290.513 349.025,287.219 349.025,287.219C348.017,282.829 343.635,279.392 339.424,278.696C332.891,277.618 317.563,279.285 317.563,279.285C314.677,279.285 312.334,281.825 312.334,284.955C312.334,288.084 315.019,290.973 317.563,290.624C326.12,289.451 342.383,290.624 342.383,290.624" style="fill:rgb(224,224,224);"/>
                    <clipPath id="_clip7">
                        <path d="M334.225,290.217C336.024,290.568 340.084,288.947 340.535,296.263C340.924,302.566 343.097,302.417 346.391,302.2C349.125,302.021 350.206,300.012 350.136,297.857C349.9,290.513 349.025,287.219 349.025,287.219C348.017,282.829 343.635,279.392 339.424,278.696C332.891,277.618 317.563,279.285 317.563,279.285C314.677,279.285 312.334,281.825 312.334,284.955C312.334,288.084 315.019,290.973 317.563,290.624C326.12,289.451 342.383,290.624 342.383,290.624"/>
                    </clipPath>
                    <g clip-path="url(#_clip7)">
                        <g transform="matrix(0.633438,0.560207,-0.516644,0.686848,287.684,-76.1259)">
                            <path d="M280.937,296.564C280.937,296.564 286.638,300.102 293.411,293.849C300.185,287.597 289.154,301.789 289.154,301.789L280.937,299.66L280.937,296.564Z" style="fill:rgb(170,170,170);"/>
                        </g>
                        <g transform="matrix(0.633438,0.560207,-0.516644,0.686848,287.684,-76.1259)">
                            <path d="M313.604,278.038C313.604,278.038 316.636,284.746 323.345,286.746C330.053,288.746 316.425,289.649 316.425,289.649L307.54,282.682L313.604,278.038Z" style="fill:rgb(170,170,170);"/>
                        </g>
                        <g transform="matrix(0.633438,0.560207,-0.516644,0.686848,287.684,-76.1259)">
                            <path d="M316.183,269.551C316.183,269.551 309.088,268.361 298.251,278.102C287.413,287.843 285.285,288.165 281.608,287.456C277.931,286.746 290.574,271.78 290.574,271.78C290.574,271.78 302.379,263.65 310.314,265.651C318.248,267.652 316.183,269.551 316.183,269.551Z" style="fill:rgb(249,249,249);"/>
                        </g>
                    </g>
                </g>
                <g transform="matrix(-0.774468,-0.947015,0.873373,-0.714244,607.469,1132.46)">
                    <path d="M334.178,290.657C334.729,290.759 335.48,290.692 336.275,290.737C336.988,290.778 337.744,290.914 338.395,291.433C339.291,292.147 339.959,293.561 340.127,296.293C340.335,299.656 341.076,301.274 342.147,302.046C343.215,302.815 344.664,302.758 346.415,302.643C347.922,302.544 348.966,301.926 349.63,301.051C350.296,300.175 350.583,299.03 350.545,297.841C350.313,290.625 349.465,287.28 349.419,287.103C348.371,282.558 343.848,278.979 339.485,278.258C333.047,277.195 318.105,278.781 317.538,278.842C314.44,278.854 311.925,281.588 311.925,284.955C311.925,286.973 312.959,288.901 314.381,290.037C315.35,290.812 316.496,291.217 317.614,291.064C322.159,290.441 328.885,290.483 334.178,290.657ZM339.054,290.867C339.998,291.721 340.762,293.293 340.943,296.234C341.124,299.174 341.663,300.633 342.6,301.308C343.54,301.985 344.824,301.859 346.366,301.758C347.594,301.677 348.457,301.201 348.999,300.488C349.541,299.775 349.759,298.839 349.728,297.872C349.494,290.603 348.632,287.341 348.632,287.341C348.631,287.336 348.629,287.331 348.628,287.326C347.657,283.096 343.42,279.805 339.362,279.135C332.86,278.061 317.603,279.726 317.603,279.726C317.59,279.727 317.576,279.728 317.563,279.728C314.902,279.728 312.743,282.07 312.743,284.955C312.743,286.692 313.642,288.346 314.866,289.324C315.66,289.959 316.595,290.31 317.511,290.185C322.094,289.556 328.879,289.598 334.209,289.774C334.227,289.773 334.246,289.774 334.264,289.776C334.884,289.796 335.484,289.818 336.058,289.842C336.144,289.844 336.231,289.847 336.318,289.852L336.318,289.852C339.894,290.001 342.41,290.182 342.41,290.182C342.635,290.198 342.806,290.41 342.791,290.654C342.776,290.898 342.581,291.083 342.356,291.066C342.356,291.066 341.08,290.974 339.054,290.867Z"/>
                </g>
                <g transform="matrix(-0.327276,-1.17878,1.08712,-0.301826,394.073,1052.64)">
                    <path d="M334.225,290.217C336.024,290.568 340.084,288.947 340.535,296.263C340.924,302.566 343.097,302.417 346.391,302.2C349.125,302.021 350.206,300.012 350.136,297.857C349.9,290.513 349.025,287.219 349.025,287.219C348.017,282.829 343.635,279.392 339.424,278.696C332.891,277.618 317.563,279.285 317.563,279.285C314.677,279.285 312.334,281.825 312.334,284.955C312.334,288.084 315.019,290.973 317.563,290.624C326.12,289.451 342.383,290.624 342.383,290.624" style="fill:rgb(224,224,224);"/>
                    <clipPath id="_clip8">
                        <path d="M334.225,290.217C336.024,290.568 340.084,288.947 340.535,296.263C340.924,302.566 343.097,302.417 346.391,302.2C349.125,302.021 350.206,300.012 350.136,297.857C349.9,290.513 349.025,287.219 349.025,287.219C348.017,282.829 343.635,279.392 339.424,278.696C332.891,277.618 317.563,279.285 317.563,279.285C314.677,279.285 312.334,281.825 312.334,284.955C312.334,288.084 315.019,290.973 317.563,290.624C326.12,289.451 342.383,290.624 342.383,290.624"/>
                    </clipPath>
                    <g clip-path="url(#_clip8)">
                        <g transform="matrix(0.633438,0.560207,-0.516644,0.686848,287.684,-76.1259)">
                            <path d="M280.937,296.564C280.937,296.564 286.638,300.102 293.411,293.849C300.185,287.597 289.154,301.789 289.154,301.789L280.937,299.66L280.937,296.564Z" style="fill:rgb(170,170,170);"/>
                        </g>
                        <g transform="matrix(0.633438,0.560207,-0.516644,0.686848,287.684,-76.1259)">
                            <path d="M313.604,278.038C313.604,278.038 316.636,284.746 323.345,286.746C330.053,288.746 316.425,289.649 316.425,289.649L307.54,282.682L313.604,278.038Z" style="fill:rgb(170,170,170);"/>
                        </g>
                        <g transform="matrix(0.633438,0.560207,-0.516644,0.686848,287.684,-76.1259)">
                            <path d="M316.183,269.551C316.183,269.551 309.088,268.361 298.251,278.102C287.413,287.843 285.285,288.165 281.608,287.456C277.931,286.746 290.574,271.78 290.574,271.78C290.574,271.78 302.379,263.65 310.314,265.651C318.248,267.652 316.183,269.551 316.183,269.551Z" style="fill:rgb(249,249,249);"/>
                        </g>
                    </g>
                </g>
                <g transform="matrix(-0.327276,-1.17878,1.08712,-0.301826,394.073,1052.64)">
                    <path d="M334.178,290.657C334.729,290.759 335.48,290.692 336.275,290.737C336.988,290.778 337.744,290.914 338.395,291.433C339.291,292.147 339.959,293.561 340.127,296.293C340.335,299.656 341.076,301.274 342.147,302.046C343.215,302.815 344.664,302.758 346.415,302.643C347.922,302.544 348.966,301.926 349.63,301.051C350.296,300.175 350.583,299.03 350.545,297.841C350.313,290.625 349.465,287.28 349.419,287.103C348.371,282.558 343.848,278.979 339.485,278.258C333.047,277.195 318.105,278.781 317.538,278.842C314.44,278.854 311.925,281.588 311.925,284.955C311.925,286.973 312.959,288.901 314.381,290.037C315.35,290.812 316.496,291.217 317.614,291.064C322.159,290.441 328.885,290.483 334.178,290.657ZM339.054,290.867C339.998,291.721 340.762,293.293 340.943,296.234C341.124,299.174 341.663,300.633 342.6,301.308C343.54,301.985 344.824,301.859 346.366,301.758C347.594,301.677 348.457,301.201 348.999,300.488C349.541,299.775 349.759,298.839 349.728,297.872C349.494,290.603 348.632,287.341 348.632,287.341C348.631,287.336 348.629,287.331 348.628,287.326C347.657,283.096 343.42,279.805 339.362,279.135C332.86,278.061 317.603,279.726 317.603,279.726C317.59,279.727 317.576,279.728 317.563,279.728C314.902,279.728 312.743,282.07 312.743,284.955C312.743,286.692 313.642,288.346 314.866,289.324C315.66,289.959 316.595,290.31 317.511,290.185C322.094,289.556 328.879,289.598 334.209,289.774C334.227,289.773 334.246,289.774 334.264,289.776C334.884,289.796 335.484,289.818 336.058,289.842C336.144,289.844 336.231,289.847 336.318,289.852L336.318,289.852C339.894,290.001 342.41,290.182 342.41,290.182C342.635,290.198 342.806,290.41 342.791,290.654C342.776,290.898 342.581,291.083 342.356,291.066C342.356,291.066 341.08,290.974 339.054,290.867Z"/>
                </g>
                <g transform="matrix(0.809899,0.916898,-0.845598,0.746919,588.952,100.084)">
                    <path d="M333.997,290.624C335.797,290.976 340.084,288.947 340.535,296.263C340.924,302.566 343.097,302.417 346.391,302.2C349.125,302.021 350.206,300.012 350.136,297.857C349.9,290.513 349.025,287.219 349.025,287.219C348.017,282.829 343.68,278.506 339.424,278.696C331.259,279.062 317.563,279.285 317.563,279.285C314.677,279.285 312.334,281.825 312.334,284.955C312.334,288.084 314.677,290.624 317.563,290.624L342.383,290.624" style="fill:rgb(224,224,224);"/>
                    <clipPath id="_clip9">
                        <path d="M333.997,290.624C335.797,290.976 340.084,288.947 340.535,296.263C340.924,302.566 343.097,302.417 346.391,302.2C349.125,302.021 350.206,300.012 350.136,297.857C349.9,290.513 349.025,287.219 349.025,287.219C348.017,282.829 343.68,278.506 339.424,278.696C331.259,279.062 317.563,279.285 317.563,279.285C314.677,279.285 312.334,281.825 312.334,284.955C312.334,288.084 314.677,290.624 317.563,290.624L342.383,290.624"/>
                    </clipPath>
                    <g clip-path="url(#_clip9)">
                        <g transform="matrix(-0.601362,-0.600332,0.553649,-0.652068,340.551,658.676)">
                            <path d="M269.575,309.855C266.968,306.625 267.902,311.226 281.414,315.463C288.775,317.771 294.816,308.352 297.38,306.298C300.223,304.021 300.552,303.146 303.304,303.395C304.296,303.486 306.478,304.392 305.766,305.089C302.991,307.804 291.937,317.386 286.655,319.684C282.802,321.36 276.923,320.516 274.076,318.878C271.229,317.239 270.605,311.13 269.575,309.855Z" style="fill:rgb(170,170,170);"/>
                        </g>
                        <g transform="matrix(-0.601362,-0.600332,0.553649,-0.652068,340.551,658.676)">
                            <path d="M307.364,287.714C305.59,287.446 303.913,289.167 302.445,290.295C300.241,291.988 294.314,296.423 294.14,297.874C293.965,299.326 299.146,299.968 301.397,299.005C303.91,297.93 308.224,293.305 309.218,291.424C309.864,290.201 309.46,287.903 307.364,287.714Z" style="fill:rgb(249,249,249);"/>
                        </g>
                        <g transform="matrix(-0.399378,-0.398694,0.298495,-0.351557,371.269,510.733)">
                            <path d="M307.364,287.714C305.59,287.446 303.913,289.167 302.445,290.295C300.241,291.988 294.314,296.423 294.14,297.874C293.965,299.326 299.146,299.968 301.397,299.005C303.91,297.93 308.224,293.305 309.218,291.424C309.864,290.201 309.46,287.903 307.364,287.714Z" style="fill:rgb(249,249,249);"/>
                        </g>
                    </g>
                </g>
                <g transform="matrix(0.809899,0.916898,-0.845598,0.746919,588.952,100.084)">
                    <path d="M333.964,291.067C334.414,291.146 335.007,291.092 335.655,291.067L336.579,291.067C337.421,291.113 338.291,291.334 338.954,292.174C339.569,292.953 340,294.231 340.127,296.293C340.335,299.656 341.076,301.274 342.147,302.046C343.215,302.815 344.664,302.758 346.415,302.643C347.922,302.544 348.966,301.926 349.63,301.051C350.296,300.175 350.583,299.03 350.545,297.841C350.313,290.626 349.466,287.281 349.419,287.103C348.366,282.534 343.838,278.055 339.407,278.254C331.305,278.617 317.756,278.839 317.559,278.842C314.449,278.844 311.925,281.582 311.925,284.955C311.925,288.328 314.451,291.067 317.563,291.067L333.964,291.067ZM339.068,291.067C339.244,291.218 339.414,291.394 339.575,291.597C340.269,292.477 340.799,293.906 340.943,296.234C341.124,299.174 341.663,300.633 342.6,301.308C343.54,301.985 344.824,301.859 346.366,301.758C347.594,301.677 348.457,301.201 348.999,300.488C349.541,299.775 349.759,298.839 349.728,297.872C349.494,290.603 348.632,287.341 348.632,287.341C348.631,287.336 348.629,287.331 348.628,287.326C347.662,283.118 343.52,278.956 339.44,279.139C331.272,279.505 317.569,279.728 317.569,279.728C317.567,279.728 317.565,279.728 317.563,279.728C314.902,279.728 312.743,282.07 312.743,284.955C312.743,287.839 314.902,290.181 317.563,290.181L335.805,290.181C336.047,290.171 336.295,290.167 336.546,290.179L336.597,290.181L342.383,290.181C342.609,290.181 342.792,290.38 342.792,290.624C342.792,290.869 342.609,291.067 342.383,291.067L339.068,291.067Z"/>
                </g>
                <g transform="matrix(1.1432,0.435588,-0.401715,1.0543,368.635,198.787)">
                    <path d="M333.997,290.624C335.797,290.976 340.084,288.947 340.535,296.263C340.924,302.566 343.097,302.417 346.391,302.2C349.125,302.021 350.206,300.012 350.136,297.857C349.9,290.513 349.025,287.219 349.025,287.219C348.017,282.829 343.68,278.506 339.424,278.696C331.259,279.062 317.563,279.285 317.563,279.285C314.677,279.285 312.334,281.825 312.334,284.955C312.334,288.084 314.677,290.624 317.563,290.624L342.383,290.624" style="fill:rgb(224,224,224);"/>
                    <clipPath id="_clip10">
                        <path d="M333.997,290.624C335.797,290.976 340.084,288.947 340.535,296.263C340.924,302.566 343.097,302.417 346.391,302.2C349.125,302.021 350.206,300.012 350.136,297.857C349.9,290.513 349.025,287.219 349.025,287.219C348.017,282.829 343.68,278.506 339.424,278.696C331.259,279.062 317.563,279.285 317.563,279.285C314.677,279.285 312.334,281.825 312.334,284.955C312.334,288.084 314.677,290.624 317.563,290.624L342.383,290.624"/>
                    </clipPath>
                    <g clip-path="url(#_clip10)">
                        <g transform="matrix(-0.601362,-0.600332,0.553649,-0.652068,340.551,658.676)">
                            <path d="M269.575,309.855C266.968,306.625 268.068,313.226 281.58,317.463C288.94,319.771 295.341,308.781 297.906,306.727C300.749,304.45 301.484,305.652 304.236,305.902C305.228,305.992 306.22,304.733 305.766,305.089C302.836,307.386 291.937,317.386 286.655,319.684C282.802,321.36 276.923,320.516 274.076,318.878C271.229,317.239 270.605,311.13 269.575,309.855Z" style="fill:rgb(170,170,170);"/>
                        </g>
                        <g transform="matrix(0.708053,-0.442881,0.408442,0.767755,-43.5861,33.3624)">
                            <path d="M258.079,483.909C258.079,483.909 266.325,487.336 265.276,491.771C264.227,496.206 260.8,499.835 266.848,500.439C272.896,501.044 260.901,504.068 260.901,504.068L255.559,495.4L258.079,483.909Z" style="fill:rgb(170,170,170);"/>
                        </g>
                        <g transform="matrix(-0.601362,-0.600332,0.553649,-0.652068,341.83,657.012)">
                            <path d="M307.364,287.714C305.59,287.446 303.913,289.167 302.445,290.295C300.241,291.988 294.314,296.423 294.14,297.874C293.965,299.326 299.146,299.968 301.397,299.005C303.91,297.93 308.224,293.305 309.218,291.424C309.864,290.201 309.46,287.903 307.364,287.714Z" style="fill:rgb(249,249,249);"/>
                        </g>
                        <g transform="matrix(-0.399378,-0.398694,0.298495,-0.351557,369.681,506.943)">
                            <path d="M307.364,287.714C305.59,287.446 303.913,289.167 302.445,290.295C300.241,291.988 294.314,296.423 294.14,297.874C293.965,299.326 299.146,299.968 301.397,299.005C303.91,297.93 308.224,293.305 309.218,291.424C309.864,290.201 309.46,287.903 307.364,287.714Z" style="fill:rgb(249,249,249);"/>
                        </g>
                    </g>
                </g>
                <g transform="matrix(1.1432,0.435588,-0.401715,1.0543,368.635,198.787)">
                    <path d="M333.964,291.067C334.414,291.146 335.007,291.092 335.655,291.067L336.579,291.067C337.421,291.113 338.291,291.334 338.954,292.174C339.569,292.953 340,294.231 340.127,296.293C340.335,299.656 341.076,301.274 342.147,302.046C343.215,302.815 344.664,302.758 346.415,302.643C347.922,302.544 348.966,301.926 349.63,301.051C350.296,300.175 350.583,299.03 350.545,297.841C350.313,290.626 349.466,287.281 349.419,287.103C348.366,282.534 343.838,278.055 339.407,278.254C331.305,278.617 317.756,278.839 317.559,278.842C314.449,278.844 311.925,281.582 311.925,284.955C311.925,288.328 314.451,291.067 317.563,291.067L333.964,291.067ZM339.068,291.067C339.244,291.218 339.414,291.394 339.575,291.597C340.269,292.477 340.799,293.906 340.943,296.234C341.124,299.174 341.663,300.633 342.6,301.308C343.54,301.985 344.824,301.859 346.366,301.758C347.594,301.677 348.457,301.201 348.999,300.488C349.541,299.775 349.759,298.839 349.728,297.872C349.494,290.603 348.632,287.341 348.632,287.341C348.631,287.336 348.629,287.331 348.628,287.326C347.662,283.118 343.52,278.956 339.44,279.139C331.272,279.505 317.569,279.728 317.569,279.728C317.567,279.728 317.565,279.728 317.563,279.728C314.902,279.728 312.743,282.07 312.743,284.955C312.743,287.839 314.902,290.181 317.563,290.181L335.805,290.181C336.047,290.171 336.295,290.167 336.546,290.179L336.597,290.181L342.383,290.181C342.609,290.181 342.792,290.38 342.792,290.624C342.792,290.869 342.609,291.067 342.383,291.067L339.068,291.067Z"/>
                </g>
                <g transform="matrix(1.11267,0.508533,-0.468989,1.02615,421.983,209.379)">
                    <path d="M333.997,290.624C335.797,290.976 340.084,288.947 340.535,296.263C340.924,302.566 343.097,302.417 346.391,302.2C349.125,302.021 350.206,300.012 350.136,297.857C349.9,290.513 349.025,287.219 349.025,287.219C348.017,282.829 343.68,278.506 339.424,278.696C331.259,279.062 317.563,279.285 317.563,279.285C314.677,279.285 312.334,281.825 312.334,284.955C312.334,288.084 314.677,290.624 317.563,290.624L342.383,290.624" style="fill:rgb(224,224,224);"/>
                    <clipPath id="_clip11">
                        <path d="M333.997,290.624C335.797,290.976 340.084,288.947 340.535,296.263C340.924,302.566 343.097,302.417 346.391,302.2C349.125,302.021 350.206,300.012 350.136,297.857C349.9,290.513 349.025,287.219 349.025,287.219C348.017,282.829 343.68,278.506 339.424,278.696C331.259,279.062 317.563,279.285 317.563,279.285C314.677,279.285 312.334,281.825 312.334,284.955C312.334,288.084 314.677,290.624 317.563,290.624L342.383,290.624"/>
                    </clipPath>
                    <g clip-path="url(#_clip11)">
                        <g transform="matrix(-0.601362,-0.600332,0.553649,-0.652068,340.551,658.676)">
                            <path d="M269.575,309.855C266.968,306.625 268.068,313.226 281.58,317.463C288.94,319.771 295.341,308.781 297.906,306.727C300.749,304.45 301.484,305.652 304.236,305.902C305.228,305.992 306.22,304.733 305.766,305.089C302.836,307.386 291.937,317.386 286.655,319.684C282.802,321.36 276.923,320.516 274.076,318.878C271.229,317.239 270.605,311.13 269.575,309.855Z" style="fill:rgb(170,170,170);"/>
                        </g>
                        <g transform="matrix(0.708053,-0.442881,0.408442,0.767755,-43.5861,33.3624)">
                            <path d="M258.079,483.909C258.079,483.909 266.325,487.336 265.276,491.771C264.227,496.206 260.8,499.835 266.848,500.439C272.896,501.044 260.901,504.068 260.901,504.068L255.559,495.4L258.079,483.909Z" style="fill:rgb(170,170,170);"/>
                        </g>
                        <g transform="matrix(-0.601362,-0.600332,0.553649,-0.652068,341.83,657.012)">
                            <path d="M307.364,287.714C305.59,287.446 303.913,289.167 302.445,290.295C300.241,291.988 294.314,296.423 294.14,297.874C293.965,299.326 299.146,299.968 301.397,299.005C303.91,297.93 308.224,293.305 309.218,291.424C309.864,290.201 309.46,287.903 307.364,287.714Z" style="fill:rgb(249,249,249);"/>
                        </g>
                        <g transform="matrix(-0.399378,-0.398694,0.298495,-0.351557,369.681,506.943)">
                            <path d="M307.364,287.714C305.59,287.446 303.913,289.167 302.445,290.295C300.241,291.988 294.314,296.423 294.14,297.874C293.965,299.326 299.146,299.968 301.397,299.005C303.91,297.93 308.224,293.305 309.218,291.424C309.864,290.201 309.46,287.903 307.364,287.714Z" style="fill:rgb(249,249,249);"/>
                        </g>
                    </g>
                </g>
                <g transform="matrix(1.11267,0.508533,-0.468989,1.02615,421.983,209.379)">
                    <path d="M333.964,291.067C334.414,291.146 335.007,291.092 335.655,291.067L336.579,291.067C337.421,291.113 338.291,291.334 338.954,292.174C339.569,292.953 340,294.231 340.127,296.293C340.335,299.656 341.076,301.274 342.147,302.046C343.215,302.815 344.664,302.758 346.415,302.643C347.922,302.544 348.966,301.926 349.63,301.051C350.296,300.175 350.583,299.03 350.545,297.841C350.313,290.626 349.466,287.281 349.419,287.103C348.366,282.534 343.838,278.055 339.407,278.254C331.305,278.617 317.756,278.839 317.559,278.842C314.449,278.844 311.925,281.582 311.925,284.955C311.925,288.328 314.451,291.067 317.563,291.067L333.964,291.067ZM339.068,291.067C339.244,291.218 339.414,291.394 339.575,291.597C340.269,292.477 340.799,293.906 340.943,296.234C341.124,299.174 341.663,300.633 342.6,301.308C343.54,301.985 344.824,301.859 346.366,301.758C347.594,301.677 348.457,301.201 348.999,300.488C349.541,299.775 349.759,298.839 349.728,297.872C349.494,290.603 348.632,287.341 348.632,287.341C348.631,287.336 348.629,287.331 348.628,287.326C347.662,283.118 343.52,278.956 339.44,279.139C331.272,279.505 317.569,279.728 317.569,279.728C317.567,279.728 317.565,279.728 317.563,279.728C314.902,279.728 312.743,282.07 312.743,284.955C312.743,287.839 314.902,290.181 317.563,290.181L335.805,290.181C336.047,290.171 336.295,290.167 336.546,290.179L336.597,290.181L342.383,290.181C342.609,290.181 342.792,290.38 342.792,290.624C342.792,290.869 342.609,291.067 342.383,291.067L339.068,291.067Z"/>
                </g>
                <g transform="matrix(1.11267,0.508533,-0.468989,1.02615,444.297,235.05)">
                    <path d="M333.997,290.624C335.797,290.976 340.084,288.947 340.535,296.263C340.924,302.566 343.097,302.417 346.391,302.2C349.125,302.021 350.206,300.012 350.136,297.857C349.9,290.513 349.025,287.219 349.025,287.219C348.017,282.829 343.68,278.506 339.424,278.696C331.259,279.062 317.563,279.285 317.563,279.285C314.677,279.285 312.334,281.825 312.334,284.955C312.334,288.084 314.677,290.624 317.563,290.624L342.383,290.624" style="fill:rgb(224,224,224);"/>
                    <clipPath id="_clip12">
                        <path d="M333.997,290.624C335.797,290.976 340.084,288.947 340.535,296.263C340.924,302.566 343.097,302.417 346.391,302.2C349.125,302.021 350.206,300.012 350.136,297.857C349.9,290.513 349.025,287.219 349.025,287.219C348.017,282.829 343.68,278.506 339.424,278.696C331.259,279.062 317.563,279.285 317.563,279.285C314.677,279.285 312.334,281.825 312.334,284.955C312.334,288.084 314.677,290.624 317.563,290.624L342.383,290.624"/>
                    </clipPath>
                    <g clip-path="url(#_clip12)">
                        <g transform="matrix(-0.601362,-0.600332,0.553649,-0.652068,340.551,658.676)">
                            <path d="M269.575,309.855C266.968,306.625 268.068,313.226 281.58,317.463C288.94,319.771 295.341,308.781 297.906,306.727C300.749,304.45 301.484,305.652 304.236,305.902C305.228,305.992 306.22,304.733 305.766,305.089C302.836,307.386 291.937,317.386 286.655,319.684C282.802,321.36 276.923,320.516 274.076,318.878C271.229,317.239 270.605,311.13 269.575,309.855Z" style="fill:rgb(170,170,170);"/>
                        </g>
                        <g transform="matrix(0.708053,-0.442881,0.408442,0.767755,-43.5861,33.3624)">
                            <path d="M258.079,483.909C258.079,483.909 266.325,487.336 265.276,491.771C264.227,496.206 260.8,499.835 266.848,500.439C272.896,501.044 260.901,504.068 260.901,504.068L255.559,495.4L258.079,483.909Z" style="fill:rgb(170,170,170);"/>
                        </g>
                        <g transform="matrix(-0.601362,-0.600332,0.553649,-0.652068,341.83,657.012)">
                            <path d="M307.364,287.714C305.59,287.446 303.913,289.167 302.445,290.295C300.241,291.988 294.314,296.423 294.14,297.874C293.965,299.326 299.146,299.968 301.397,299.005C303.91,297.93 308.224,293.305 309.218,291.424C309.864,290.201 309.46,287.903 307.364,287.714Z" style="fill:rgb(249,249,249);"/>
                        </g>
                        <g transform="matrix(-0.399378,-0.398694,0.298495,-0.351557,369.681,506.943)">
                            <path d="M307.364,287.714C305.59,287.446 303.913,289.167 302.445,290.295C300.241,291.988 294.314,296.423 294.14,297.874C293.965,299.326 299.146,299.968 301.397,299.005C303.91,297.93 308.224,293.305 309.218,291.424C309.864,290.201 309.46,287.903 307.364,287.714Z" style="fill:rgb(249,249,249);"/>
                        </g>
                    </g>
                </g>
                <g transform="matrix(1.11267,0.508533,-0.468989,1.02615,444.297,235.05)">
                    <path d="M333.964,291.067C334.414,291.146 335.007,291.092 335.655,291.067L336.579,291.067C337.421,291.113 338.291,291.334 338.954,292.174C339.569,292.953 340,294.231 340.127,296.293C340.335,299.656 341.076,301.274 342.147,302.046C343.215,302.815 344.664,302.758 346.415,302.643C347.922,302.544 348.966,301.926 349.63,301.051C350.296,300.175 350.583,299.03 350.545,297.841C350.313,290.626 349.466,287.281 349.419,287.103C348.366,282.534 343.838,278.055 339.407,278.254C331.305,278.617 317.756,278.839 317.559,278.842C314.449,278.844 311.925,281.582 311.925,284.955C311.925,288.328 314.451,291.067 317.563,291.067L333.964,291.067ZM339.068,291.067C339.244,291.218 339.414,291.394 339.575,291.597C340.269,292.477 340.799,293.906 340.943,296.234C341.124,299.174 341.663,300.633 342.6,301.308C343.54,301.985 344.824,301.859 346.366,301.758C347.594,301.677 348.457,301.201 348.999,300.488C349.541,299.775 349.759,298.839 349.728,297.872C349.494,290.603 348.632,287.341 348.632,287.341C348.631,287.336 348.629,287.331 348.628,287.326C347.662,283.118 343.52,278.956 339.44,279.139C331.272,279.505 317.569,279.728 317.569,279.728C317.567,279.728 317.565,279.728 317.563,279.728C314.902,279.728 312.743,282.07 312.743,284.955C312.743,287.839 314.902,290.181 317.563,290.181L335.805,290.181C336.047,290.171 336.295,290.167 336.546,290.179L336.597,290.181L342.383,290.181C342.609,290.181 342.792,290.38 342.792,290.624C342.792,290.869 342.609,291.067 342.383,291.067L339.068,291.067Z"/>
                </g>
                <g transform="matrix(0.821275,0.906722,-0.836214,0.757411,666.566,212.478)">
                    <path d="M333.997,290.624C335.797,290.976 340.084,288.947 340.535,296.263C340.924,302.566 343.097,302.417 346.391,302.2C349.125,302.021 350.206,300.012 350.136,297.857C349.9,290.513 349.025,287.219 349.025,287.219C348.017,282.829 343.68,278.506 339.424,278.696C331.259,279.062 317.563,279.285 317.563,279.285C314.677,279.285 312.334,281.825 312.334,284.955C312.334,288.084 314.677,290.624 317.563,290.624L342.383,290.624" style="fill:rgb(224,224,224);"/>
                    <clipPath id="_clip13">
                        <path d="M333.997,290.624C335.797,290.976 340.084,288.947 340.535,296.263C340.924,302.566 343.097,302.417 346.391,302.2C349.125,302.021 350.206,300.012 350.136,297.857C349.9,290.513 349.025,287.219 349.025,287.219C348.017,282.829 343.68,278.506 339.424,278.696C331.259,279.062 317.563,279.285 317.563,279.285C314.677,279.285 312.334,281.825 312.334,284.955C312.334,288.084 314.677,290.624 317.563,290.624L342.383,290.624"/>
                    </clipPath>
                    <g clip-path="url(#_clip13)">
                        <g transform="matrix(-0.601362,-0.600332,0.553649,-0.652068,340.551,658.676)">
                            <path d="M269.575,309.855C266.968,306.625 268.068,313.226 281.58,317.463C288.94,319.771 295.341,308.781 297.906,306.727C300.749,304.45 301.484,305.652 304.236,305.902C305.228,305.992 306.22,304.733 305.766,305.089C302.836,307.386 291.937,317.386 286.655,319.684C282.802,321.36 276.923,320.516 274.076,318.878C271.229,317.239 270.605,311.13 269.575,309.855Z" style="fill:rgb(170,170,170);"/>
                        </g>
                        <g transform="matrix(0.708053,-0.442881,0.408442,0.767755,-43.5861,33.3624)">
                            <path d="M258.079,483.909C258.079,483.909 266.325,487.336 265.276,491.771C264.227,496.206 260.8,499.835 266.848,500.439C272.896,501.044 260.901,504.068 260.901,504.068L255.559,495.4L258.079,483.909Z" style="fill:rgb(170,170,170);"/>
                        </g>
                        <g transform="matrix(-0.601362,-0.600332,0.553649,-0.652068,341.83,657.012)">
                            <path d="M307.364,287.714C305.59,287.446 303.913,289.167 302.445,290.295C300.241,291.988 294.314,296.423 294.14,297.874C293.965,299.326 299.146,299.968 301.397,299.005C303.91,297.93 308.224,293.305 309.218,291.424C309.864,290.201 309.46,287.903 307.364,287.714Z" style="fill:rgb(249,249,249);"/>
                        </g>
                        <g transform="matrix(-0.399378,-0.398694,0.298495,-0.351557,369.681,506.943)">
                            <path d="M307.364,287.714C305.59,287.446 303.913,289.167 302.445,290.295C300.241,291.988 294.314,296.423 294.14,297.874C293.965,299.326 299.146,299.968 301.397,299.005C303.91,297.93 308.224,293.305 309.218,291.424C309.864,290.201 309.46,287.903 307.364,287.714Z" style="fill:rgb(249,249,249);"/>
                        </g>
                    </g>
                </g>
                <g transform="matrix(0.821275,0.906722,-0.836214,0.757411,666.566,212.478)">
                    <path d="M333.964,291.067C334.414,291.146 335.007,291.092 335.655,291.067L336.579,291.067C337.421,291.113 338.291,291.334 338.954,292.174C339.569,292.953 340,294.231 340.127,296.293C340.335,299.656 341.076,301.274 342.147,302.046C343.215,302.815 344.664,302.758 346.415,302.643C347.922,302.544 348.966,301.926 349.63,301.051C350.296,300.175 350.583,299.03 350.545,297.841C350.313,290.626 349.466,287.281 349.419,287.103C348.366,282.534 343.838,278.055 339.407,278.254C331.305,278.617 317.756,278.839 317.559,278.842C314.449,278.844 311.925,281.582 311.925,284.955C311.925,288.328 314.451,291.067 317.563,291.067L333.964,291.067ZM339.068,291.067C339.244,291.218 339.414,291.394 339.575,291.597C340.269,292.477 340.799,293.906 340.943,296.234C341.124,299.174 341.663,300.633 342.6,301.308C343.54,301.985 344.824,301.859 346.366,301.758C347.594,301.677 348.457,301.201 348.999,300.488C349.541,299.775 349.759,298.839 349.728,297.872C349.494,290.603 348.632,287.341 348.632,287.341C348.631,287.336 348.629,287.331 348.628,287.326C347.662,283.118 343.52,278.956 339.44,279.139C331.272,279.505 317.569,279.728 317.569,279.728C317.567,279.728 317.565,279.728 317.563,279.728C314.902,279.728 312.743,282.07 312.743,284.955C312.743,287.839 314.902,290.181 317.563,290.181L335.805,290.181C336.047,290.171 336.295,290.167 336.546,290.179L336.597,290.181L342.383,290.181C342.609,290.181 342.792,290.38 342.792,290.624C342.792,290.869 342.609,291.067 342.383,291.067L339.068,291.067Z"/>
                </g>
                <g transform="matrix(0.904175,0.824079,-0.759997,0.833865,630.945,251.161)">
                    <path d="M333.997,290.624C335.797,290.976 340.084,288.947 340.535,296.263C340.924,302.566 343.097,302.417 346.391,302.2C349.125,302.021 350.206,300.012 350.136,297.857C349.9,290.513 349.025,287.219 349.025,287.219C348.017,282.829 343.68,278.506 339.424,278.696C331.259,279.062 317.563,279.285 317.563,279.285C314.677,279.285 312.334,281.825 312.334,284.955C312.334,288.084 314.677,290.624 317.563,290.624L342.383,290.624" style="fill:rgb(224,224,224);"/>
                    <clipPath id="_clip14">
                        <path d="M333.997,290.624C335.797,290.976 340.084,288.947 340.535,296.263C340.924,302.566 343.097,302.417 346.391,302.2C349.125,302.021 350.206,300.012 350.136,297.857C349.9,290.513 349.025,287.219 349.025,287.219C348.017,282.829 343.68,278.506 339.424,278.696C331.259,279.062 317.563,279.285 317.563,279.285C314.677,279.285 312.334,281.825 312.334,284.955C312.334,288.084 314.677,290.624 317.563,290.624L342.383,290.624"/>
                    </clipPath>
                    <g clip-path="url(#_clip14)">
                        <g transform="matrix(-0.601362,-0.600332,0.553649,-0.652068,340.551,658.676)">
                            <path d="M269.575,309.855C266.968,306.625 268.068,313.226 281.58,317.463C288.94,319.771 295.341,308.781 297.906,306.727C300.749,304.45 301.484,305.652 304.236,305.902C305.228,305.992 306.22,304.733 305.766,305.089C302.836,307.386 291.937,317.386 286.655,319.684C282.802,321.36 276.923,320.516 274.076,318.878C271.229,317.239 270.605,311.13 269.575,309.855Z" style="fill:rgb(170,170,170);"/>
                        </g>
                        <g transform="matrix(0.708053,-0.442881,0.408442,0.767755,-43.5861,33.3624)">
                            <path d="M258.079,483.909C258.079,483.909 266.325,487.336 265.276,491.771C264.227,496.206 260.8,499.835 266.848,500.439C272.896,501.044 260.901,504.068 260.901,504.068L255.559,495.4L258.079,483.909Z" style="fill:rgb(170,170,170);"/>
                        </g>
                        <g transform="matrix(-0.601362,-0.600332,0.553649,-0.652068,341.83,657.012)">
                            <path d="M307.364,287.714C305.59,287.446 303.913,289.167 302.445,290.295C300.241,291.988 294.314,296.423 294.14,297.874C293.965,299.326 299.146,299.968 301.397,299.005C303.91,297.93 308.224,293.305 309.218,291.424C309.864,290.201 309.46,287.903 307.364,287.714Z" style="fill:rgb(249,249,249);"/>
                        </g>
                        <g transform="matrix(-0.399378,-0.398694,0.298495,-0.351557,369.681,506.943)">
                            <path d="M307.364,287.714C305.59,287.446 303.913,289.167 302.445,290.295C300.241,291.988 294.314,296.423 294.14,297.874C293.965,299.326 299.146,299.968 301.397,299.005C303.91,297.93 308.224,293.305 309.218,291.424C309.864,290.201 309.46,287.903 307.364,287.714Z" style="fill:rgb(249,249,249);"/>
                        </g>
                    </g>
                </g>
                <g transform="matrix(0.904175,0.824079,-0.759997,0.833865,630.945,251.161)">
                    <path d="M333.964,291.067C334.414,291.146 335.007,291.092 335.655,291.067L336.579,291.067C337.421,291.113 338.291,291.334 338.954,292.174C339.569,292.953 340,294.231 340.127,296.293C340.335,299.656 341.076,301.274 342.147,302.046C343.215,302.815 344.664,302.758 346.415,302.643C347.922,302.544 348.966,301.926 349.63,301.051C350.296,300.175 350.583,299.03 350.545,297.841C350.313,290.626 349.466,287.281 349.419,287.103C348.366,282.534 343.838,278.055 339.407,278.254C331.305,278.617 317.756,278.839 317.559,278.842C314.449,278.844 311.925,281.582 311.925,284.955C311.925,288.328 314.451,291.067 317.563,291.067L333.964,291.067ZM339.068,291.067C339.244,291.218 339.414,291.394 339.575,291.597C340.269,292.477 340.799,293.906 340.943,296.234C341.124,299.174 341.663,300.633 342.6,301.308C343.54,301.985 344.824,301.859 346.366,301.758C347.594,301.677 348.457,301.201 348.999,300.488C349.541,299.775 349.759,298.839 349.728,297.872C349.494,290.603 348.632,287.341 348.632,287.341C348.631,287.336 348.629,287.331 348.628,287.326C347.662,283.118 343.52,278.956 339.44,279.139C331.272,279.505 317.569,279.728 317.569,279.728C317.567,279.728 317.565,279.728 317.563,279.728C314.902,279.728 312.743,282.07 312.743,284.955C312.743,287.839 314.902,290.181 317.563,290.181L335.805,290.181C336.047,290.171 336.295,290.167 336.546,290.179L336.597,290.181L342.383,290.181C342.609,290.181 342.792,290.38 342.792,290.624C342.792,290.869 342.609,291.067 342.383,291.067L339.068,291.067Z"/>
                </g>
                <g transform="matrix(0.589816,1.0718,-0.988455,0.543951,806.452,284.82)">
                    <path d="M333.997,290.624C335.797,290.976 340.084,288.947 340.535,296.263C340.924,302.566 343.097,302.417 346.391,302.2C349.125,302.021 350.206,300.012 350.136,297.857C349.9,290.513 349.025,287.219 349.025,287.219C348.017,282.829 343.68,278.506 339.424,278.696C331.259,279.062 317.563,279.285 317.563,279.285C314.677,279.285 312.334,281.825 312.334,284.955C312.334,288.084 314.677,290.624 317.563,290.624L342.383,290.624" style="fill:rgb(224,224,224);"/>
                    <clipPath id="_clip15">
                        <path d="M333.997,290.624C335.797,290.976 340.084,288.947 340.535,296.263C340.924,302.566 343.097,302.417 346.391,302.2C349.125,302.021 350.206,300.012 350.136,297.857C349.9,290.513 349.025,287.219 349.025,287.219C348.017,282.829 343.68,278.506 339.424,278.696C331.259,279.062 317.563,279.285 317.563,279.285C314.677,279.285 312.334,281.825 312.334,284.955C312.334,288.084 314.677,290.624 317.563,290.624L342.383,290.624"/>
                    </clipPath>
                    <g clip-path="url(#_clip15)">
                        <g transform="matrix(-0.601362,-0.600332,0.553649,-0.652068,340.551,658.676)">
                            <path d="M269.575,309.855C266.968,306.625 268.068,313.226 281.58,317.463C288.94,319.771 295.341,308.781 297.906,306.727C300.749,304.45 301.484,305.652 304.236,305.902C305.228,305.992 306.22,304.733 305.766,305.089C302.836,307.386 291.937,317.386 286.655,319.684C282.802,321.36 276.923,320.516 274.076,318.878C271.229,317.239 270.605,311.13 269.575,309.855Z" style="fill:rgb(170,170,170);"/>
                        </g>
                        <g transform="matrix(0.708053,-0.442881,0.408442,0.767755,-43.5861,33.3624)">
                            <path d="M258.079,483.909C258.079,483.909 266.325,487.336 265.276,491.771C264.227,496.206 260.8,499.835 266.848,500.439C272.896,501.044 260.901,504.068 260.901,504.068L255.559,495.4L258.079,483.909Z" style="fill:rgb(170,170,170);"/>
                        </g>
                        <g transform="matrix(-0.601362,-0.600332,0.553649,-0.652068,341.83,657.012)">
                            <path d="M307.364,287.714C305.59,287.446 303.913,289.167 302.445,290.295C300.241,291.988 294.314,296.423 294.14,297.874C293.965,299.326 299.146,299.968 301.397,299.005C303.91,297.93 308.224,293.305 309.218,291.424C309.864,290.201 309.46,287.903 307.364,287.714Z" style="fill:rgb(249,249,249);"/>
                        </g>
                        <g transform="matrix(-0.399378,-0.398694,0.298495,-0.351557,369.681,506.943)">
                            <path d="M307.364,287.714C305.59,287.446 303.913,289.167 302.445,290.295C300.241,291.988 294.314,296.423 294.14,297.874C293.965,299.326 299.146,299.968 301.397,299.005C303.91,297.93 308.224,293.305 309.218,291.424C309.864,290.201 309.46,287.903 307.364,287.714Z" style="fill:rgb(249,249,249);"/>
                        </g>
                    </g>
                </g>
                <g transform="matrix(0.589816,1.0718,-0.988455,0.543951,806.452,284.82)">
                    <path d="M333.964,291.067C334.414,291.146 335.007,291.092 335.655,291.067L336.579,291.067C337.421,291.113 338.291,291.334 338.954,292.174C339.569,292.953 340,294.231 340.127,296.293C340.335,299.656 341.076,301.274 342.147,302.046C343.215,302.815 344.664,302.758 346.415,302.643C347.922,302.544 348.966,301.926 349.63,301.051C350.296,300.175 350.583,299.03 350.545,297.841C350.313,290.626 349.466,287.281 349.419,287.103C348.366,282.534 343.838,278.055 339.407,278.254C331.305,278.617 317.756,278.839 317.559,278.842C314.449,278.844 311.925,281.582 311.925,284.955C311.925,288.328 314.451,291.067 317.563,291.067L333.964,291.067ZM339.068,291.067C339.244,291.218 339.414,291.394 339.575,291.597C340.269,292.477 340.799,293.906 340.943,296.234C341.124,299.174 341.663,300.633 342.6,301.308C343.54,301.985 344.824,301.859 346.366,301.758C347.594,301.677 348.457,301.201 348.999,300.488C349.541,299.775 349.759,298.839 349.728,297.872C349.494,290.603 348.632,287.341 348.632,287.341C348.631,287.336 348.629,287.331 348.628,287.326C347.662,283.118 343.52,278.956 339.44,279.139C331.272,279.505 317.569,279.728 317.569,279.728C317.567,279.728 317.565,279.728 317.563,279.728C314.902,279.728 312.743,282.07 312.743,284.955C312.743,287.839 314.902,290.181 317.563,290.181L335.805,290.181C336.047,290.171 336.295,290.167 336.546,290.179L336.597,290.181L342.383,290.181C342.609,290.181 342.792,290.38 342.792,290.624C342.792,290.869 342.609,291.067 342.383,291.067L339.068,291.067Z"/>
                </g>
            </g>
        </g>
    </g>
</svg>
